<?xml version="1.0" encoding="utf-8"?>
<!-- Generator: Adobe Illustrator 16.0.0, SVG Export Plug-In . SVG Version: 6.00 Build 0)  -->
<!DOCTYPE svg PUBLIC "-//W3C//DTD SVG 1.1//EN" "http://www.w3.org/Graphics/SVG/1.1/DTD/svg11.dtd">
<svg version="1.1" id="Layer_1" xmlns="http://www.w3.org/2000/svg" xmlns:xlink="http://www.w3.org/1999/xlink" x="0px" y="0px"
	 width="700px" height="600px" viewBox="0 0 700 600" enable-background="new 0 0 700 600" xml:space="preserve">
<g>
	<defs>
		<rect id="SVGID_1_" x="-952" y="-252" width="1920" height="1080"/>
	</defs>
	<clipPath id="SVGID_2_">
		<use xlink:href="#SVGID_1_"  overflow="visible"/>
	</clipPath>
	<g clip-path="url(#SVGID_2_)">
		<defs>
			<rect id="SVGID_3_" x="-952" y="-252" width="1920" height="1080"/>
		</defs>
		<clipPath id="SVGID_4_">
			<use xlink:href="#SVGID_3_"  overflow="visible"/>
		</clipPath>
		
			<ellipse clip-path="url(#SVGID_4_)" fill="none" stroke="#F5C600" stroke-width="3.553" stroke-miterlimit="10" cx="545.296" cy="356.425" rx="9.517" ry="10.849"/>
		
			<ellipse clip-path="url(#SVGID_4_)" fill="none" stroke="#F5C600" stroke-width="3.553" stroke-miterlimit="10" cx="545.296" cy="375.408" rx="9.517" ry="10.849"/>
		
			<ellipse clip-path="url(#SVGID_4_)" fill="none" stroke="#F5C600" stroke-width="3.553" stroke-miterlimit="10" cx="545.296" cy="394.409" rx="9.517" ry="10.85"/>
		
			<ellipse clip-path="url(#SVGID_4_)" fill="none" stroke="#F5C600" stroke-width="3.553" stroke-miterlimit="10" cx="156.342" cy="356.425" rx="9.517" ry="10.849"/>
		
			<ellipse clip-path="url(#SVGID_4_)" fill="none" stroke="#F5C600" stroke-width="3.553" stroke-miterlimit="10" cx="156.342" cy="375.408" rx="9.517" ry="10.849"/>
		
			<ellipse clip-path="url(#SVGID_4_)" fill="none" stroke="#F5C600" stroke-width="3.553" stroke-miterlimit="10" cx="156.342" cy="394.409" rx="9.517" ry="10.85"/>
		<path clip-path="url(#SVGID_4_)" fill="#F5C600" d="M160.596,276.381L160.596,276.381c-2.018,0-3.65-1.634-3.65-3.65V106.524
			c0-2.016,1.633-3.65,3.65-3.65c2.016,0,3.648,1.634,3.648,3.65v166.207C164.244,274.747,162.611,276.381,160.596,276.381"/>
		<path clip-path="url(#SVGID_4_)" fill="#F5C600" d="M168.526,107.225c0,4.38-3.551,7.932-7.931,7.932
			c-4.381,0-7.932-3.552-7.932-7.932s3.551-7.931,7.932-7.931C164.976,99.294,168.526,102.845,168.526,107.225"/>
		<path clip-path="url(#SVGID_4_)" fill="#D60064" d="M537.65,220.229c-45.907-12.768-110.002-25.534-187.077-25.549
			c-76.7-0.014-140.526,12.605-186.328,25.268v-86.332c47.743-13.695,111.076-26.297,185.86-26.39
			c75.56-0.096,139.495,12.607,187.545,26.39V220.229z"/>
		<path clip-path="url(#SVGID_4_)" fill="#F5C600" d="M541.043,276.381L541.043,276.381c-2.016,0-3.649-1.634-3.649-3.65V106.524
			c0-2.016,1.634-3.65,3.649-3.65s3.65,1.634,3.65,3.65v166.207C544.693,274.747,543.059,276.381,541.043,276.381"/>
		<path clip-path="url(#SVGID_4_)" fill="#F5C600" d="M548.975,107.225c0,4.38-3.551,7.932-7.932,7.932s-7.932-3.552-7.932-7.932
			s3.551-7.931,7.932-7.931S548.975,102.845,548.975,107.225"/>
		<path clip-path="url(#SVGID_4_)" fill="#F5C600" d="M353.415,119.966c-0.637-0.003-1.269-0.013-1.906-0.013
			c-0.188,0-0.373,0.002-0.561,0.002c-0.188,0-0.374-0.002-0.562-0.002c-0.639,0-1.27,0.01-1.906,0.013
			c-66.459,0.274-123.729,10.969-168.843,20.576v2.62v57.274v4.492c39.261-12.806,98.164-21.452,170.661-21.523
			c0.218,0,0.432-0.001,0.649-0.001c0.217,0,0.431,0.001,0.648,0.001c72.497,0.071,131.399,8.717,170.661,21.523v-4.492v-57.274
			v-2.62C477.145,130.935,419.873,120.24,353.415,119.966"/>
		<path clip-path="url(#SVGID_4_)" fill="#1C3160" d="M230.847,179.596c-3.874-6.991-7.837-13.948-11.889-20.871
			c-0.425-0.68-0.119-1.264,0.609-1.426c1.144-0.253,2.288-0.504,3.433-0.751c0.677-0.146,1.229,0.149,1.47,0.767
			c2.949,5.499,5.849,11.016,8.699,16.552c0.118-0.024,0.235-0.048,0.354-0.072c0.536-6.227,1.126-12.457,1.771-18.688
			c0.021-0.722,0.424-1.16,1.103-1.291c0.957-0.184,1.915-0.366,2.873-0.545c0.732-0.136,1.266,0.123,1.499,0.798
			c2.881,5.562,5.71,11.143,8.487,16.741c0.135-0.024,0.27-0.047,0.404-0.07c0.623-6.195,1.299-12.39,2.026-18.587
			c-0.003-0.663,0.351-1.13,1.085-1.25c1.065-0.175,2.131-0.347,3.197-0.515c0.788-0.125,1.231,0.315,1.14,1.095
			c-1.226,7.925-2.357,15.849-3.396,23.773c-0.093,0.68-0.484,1.103-1.137,1.215c-1.221,0.209-2.441,0.423-3.661,0.64
			c-0.703,0.125-1.216-0.14-1.441-0.816c-2.651-5.118-5.35-10.22-8.094-15.305c-0.138,0.026-0.274,0.052-0.412,0.078
			c-0.69,5.737-1.332,11.473-1.925,17.207c0.036,0.711-0.344,1.147-1.044,1.288c-1.216,0.245-2.431,0.494-3.646,0.747
			C231.703,180.445,231.182,180.195,230.847,179.596"/>
		<path clip-path="url(#SVGID_4_)" fill="#1C3160" d="M268.078,163.242c0.084,0.598,0.169,1.197,0.253,1.795
			c0.435,3.044,2.946,4.717,6.39,4.265c2.738-0.359,4.537-1.642,4.836-3.454c0.176-0.681,0.44-1.069,1.156-1.156
			c0.937-0.111,1.874-0.222,2.813-0.329c0.768-0.089,1.268,0.211,1.289,0.867c-0.063,4.572-3.793,7.667-9.523,8.417
			c-6.429,0.845-11.217-2.285-12.092-8.015c-0.354-2.358-0.708-4.715-1.063-7.073c-0.875-5.722,2.918-10.185,9.566-11.061
			c6.649-0.871,11.457,2.463,12.09,8.216c0.162,1.435,0.324,2.87,0.485,4.305c0.085,0.751-0.333,1.203-1.052,1.286
			C278.171,161.885,273.121,162.531,268.078,163.242 M267.283,157.606c0.072,0.515,0.146,1.031,0.218,1.546
			c3.753-0.529,7.509-1.023,11.269-1.48c-0.063-0.517-0.125-1.033-0.188-1.55c-0.366-3.049-2.854-4.732-6.308-4.279
			C268.873,152.29,266.85,154.565,267.283,157.606"/>
		<path clip-path="url(#SVGID_4_)" fill="#1C3160" d="M291.019,164.766c-0.937-9.187-1.876-18.374-2.813-27.56
			c-0.078-0.752,0.312-1.196,1.116-1.277c0.965-0.097,1.929-0.191,2.896-0.283c0.75-0.071,1.271,0.285,1.341,1.037
			c0.817,8.777,1.637,17.553,2.455,26.33c0.171,1.806,1.505,2.894,3.39,2.728c0.204-0.018,0.408-0.036,0.612-0.054
			c0.459-0.04,0.79,0.236,0.829,0.687l0.231,2.71c0.064,0.753-0.356,1.193-1.064,1.255c-0.488,0.043-0.978,0.086-1.468,0.13
			C294.404,170.843,291.414,168.575,291.019,164.766"/>
		<path clip-path="url(#SVGID_4_)" fill="#1C3160" d="M304.32,161.035c-0.191-2.444-0.385-4.887-0.577-7.331
			c-0.466-5.719,3.519-9.845,10.096-10.247c6.31-0.382,11.003,2.662,11.231,8.347c0.031,0.754-0.365,1.225-1.095,1.257
			c-0.954,0.043-1.908,0.088-2.862,0.135c-0.73,0.036-1.113-0.348-1.242-0.795c-0.308-3.01-2.65-4.507-5.752-4.318
			c-3.365,0.205-5.379,2.321-5.168,5.285l0.507,7.234c0.212,2.966,2.438,4.774,5.699,4.575c3.108-0.188,5.112-2.002,5.118-4.929
			c0.08-0.457,0.419-0.879,1.142-0.915c0.944-0.047,1.889-0.091,2.833-0.133c0.721-0.032,1.156,0.454,1.188,1.209
			c0.229,5.74-4.04,9.031-9.999,9.394C309.178,170.184,304.787,166.763,304.32,161.035"/>
		<path clip-path="url(#SVGID_4_)" fill="#1C3160" d="M330.453,159.459c-0.081-2.383-0.162-4.766-0.243-7.148
			c-0.213-5.784,4.05-9.783,10.743-9.892c6.639-0.102,11.027,3.759,10.998,9.547c-0.006,2.384-0.012,4.768-0.018,7.152
			c-0.029,5.796-4.245,9.593-10.563,9.691C335.002,168.913,330.668,165.252,330.453,159.459 M346.781,159.079
			c-0.015-2.351-0.029-4.701-0.045-7.052c-0.016-3.02-2.289-5.027-5.71-4.973c-3.474,0.055-5.684,2.133-5.603,5.153
			c0.06,2.35,0.119,4.7,0.179,7.049c0.081,3.022,2.327,4.975,5.694,4.921C344.612,164.125,346.796,162.102,346.781,159.079"/>
		<path clip-path="url(#SVGID_4_)" fill="#1C3160" d="M395.184,151.771c-0.42,5.609-0.84,11.218-1.261,16.827
			c-0.057,0.753-0.542,1.12-1.25,1.069c-0.912-0.066-1.823-0.131-2.734-0.193c-0.761-0.052-1.139-0.48-1.089-1.234
			c0.332-5.026,0.664-10.052,0.997-15.078c0.192-2.864-1.727-4.913-4.776-5.09c-3.313-0.19-5.572,1.875-5.691,4.44
			c-0.244,5.048-0.488,10.095-0.733,15.143c-0.037,0.755-0.513,1.135-1.222,1.102c-0.912-0.042-1.824-0.083-2.737-0.121
			c-0.761-0.032-1.15-0.449-1.121-1.205c0.2-5.033,0.4-10.066,0.599-15.098c0.119-2.868-1.854-4.867-4.906-4.962
			c-3.314-0.103-5.518,2.02-5.57,4.587c-0.111,5.053-0.223,10.105-0.335,15.158c-0.017,0.756-0.482,1.148-1.191,1.134
			c-0.913-0.019-1.826-0.035-2.739-0.049c-0.761-0.012-1.162-0.419-1.151-1.176c0.101-7.621,0.203-15.243,0.305-22.865
			c0.01-0.755,0.44-1.153,1.233-1.14c0.953,0.014,1.905,0.031,2.857,0.05c0.741,0.014,1.209,0.428,1.191,1.183
			c-0.019,0.873-0.038,1.747-0.058,2.62c0.105,0.002,0.21,0.004,0.315,0.006c1.107-2.544,3.858-4.295,7.515-4.168
			c3.764,0.132,6.546,2.079,7.501,5.149c0.088,0.005,0.176,0.009,0.263,0.013c1.233-2.713,4.198-4.639,8.225-4.392
			C392.443,143.778,395.544,147.104,395.184,151.771"/>
		<path clip-path="url(#SVGID_4_)" fill="#1C3160" d="M405.768,160.045c-0.057,0.602-0.113,1.203-0.169,1.805
			c-0.284,3.061,1.769,5.271,5.222,5.629c2.744,0.285,4.792-0.546,5.502-2.241c0.328-0.621,0.676-0.938,1.391-0.855
			c0.938,0.108,1.875,0.218,2.813,0.33c0.768,0.093,1.185,0.5,1.055,1.144c-1.122,4.432-5.468,6.578-11.213,5.98
			c-6.445-0.667-10.367-4.82-9.892-10.597c0.202-2.376,0.405-4.752,0.607-7.127c0.476-5.769,5.187-9.233,11.854-8.544
			c6.666,0.693,10.573,5.051,9.854,10.794c-0.176,1.433-0.351,2.867-0.525,4.3c-0.093,0.75-0.603,1.093-1.322,1.007
			C415.891,161.063,410.832,160.521,405.768,160.045 M406.301,154.378c-0.049,0.518-0.098,1.037-0.146,1.555
			c3.769,0.354,7.533,0.744,11.295,1.17l0.177-1.551c0.351-3.051-1.679-5.264-5.142-5.624
			C409.074,149.575,406.584,151.32,406.301,154.378"/>
		<path clip-path="url(#SVGID_4_)" fill="#1C3160" d="M449.244,155.655c-0.698,4.19-1.396,8.38-2.096,12.57
			c-0.329,1.988,0.729,3.439,2.75,3.787c0.455,0.079,0.91,0.158,1.365,0.238c0.758,0.133,1.092,0.601,0.959,1.345
			c-0.133,0.76-0.269,1.521-0.403,2.281c-0.132,0.744-0.603,1.07-1.354,0.938c-0.869-0.152-1.74-0.302-2.609-0.451
			c-4.208-0.716-6.616-3.737-6.004-7.67c0.73-4.627,1.459-9.255,2.19-13.882c-1.128-0.178-2.257-0.353-3.386-0.524
			c-0.781-0.118-1.13-0.629-1.025-1.326c0.114-0.764,0.229-1.528,0.342-2.292c0.098-0.647,0.578-0.983,1.26-0.88
			c0.699,0.107,1.399,0.214,2.099,0.323c1.103,0.17,1.878-0.318,2.052-1.412c0.191-1.211,0.383-2.421,0.575-3.632
			c0.118-0.746,0.605-1.078,1.399-0.95c0.831,0.133,1.66,0.268,2.49,0.405c0.795,0.131,1.152,0.599,1.028,1.344
			c-0.295,1.772-0.591,3.544-0.886,5.317c1.711,0.285,3.422,0.578,5.132,0.878c0.783,0.138,1.132,0.609,1,1.353
			c-0.129,0.727-0.259,1.454-0.388,2.182c-0.124,0.695-0.618,1.067-1.396,0.93C452.641,156.229,450.943,155.938,449.244,155.655"/>
		<path clip-path="url(#SVGID_4_)" fill="#1C3160" d="M457.771,168.97l1.305-7.033c1.039-5.694,6.083-8.676,12.673-7.332
			c6.537,1.339,10.017,6.062,8.738,11.707c-0.521,2.327-1.04,4.654-1.561,6.98c-1.28,5.654-6.243,8.446-12.463,7.172
			C460.191,179.184,456.73,174.672,457.771,168.97 M473.875,172.135c0.493-2.298,0.985-4.597,1.478-6.895
			c0.638-2.953-1.163-5.406-4.531-6.095c-3.423-0.698-6.037,0.852-6.609,3.819c-0.448,2.307-0.897,4.614-1.346,6.921
			c-0.573,2.969,1.211,5.362,4.525,6.039C470.656,176.592,473.237,175.09,473.875,172.135"/>
		<path clip-path="url(#SVGID_4_)" fill="#D60064" d="M613.192,351.79H88.444c-25.089,0-45.428-20.339-45.428-45.428
			c0-25.089,20.339-45.427,45.428-45.427h524.748c25.09,0,45.428,20.338,45.428,45.427
			C658.62,331.451,638.282,351.79,613.192,351.79"/>
	</g>
	<g clip-path="url(#SVGID_2_)">
		<path fill="#FFFFFF" d="M120.515,330.397c-1.645,0-2.467-0.82-2.433-2.461v-41.973c0-1.641,0.822-2.461,2.433-2.461h9.22
			c1.439,0,2.33,0.649,2.707,1.948l9.287,22.251h0.617l9.116-22.251c0.445-1.299,1.371-1.948,2.776-1.948h8.773
			c1.645,0,2.467,0.82,2.467,2.461v41.973c0,1.641-0.822,2.461-2.467,2.461h-5.449c-1.646,0-2.468-0.82-2.468-2.461v-24.78
			l0.479-3.281h-0.754l-8.499,19.619c-0.445,1.299-1.371,1.948-2.776,1.948h-3.495c-1.405,0-2.331-0.649-2.776-1.948l-8.499-19.619
			h-0.856l0.514,3.281v24.78c0,1.641-0.822,2.461-2.468,2.461h-5.483H120.515z"/>
		<path fill="#FFFFFF" d="M190.468,294.646c4.558,0,8.19,1.06,10.897,3.213c2.708,2.153,4.044,5.024,4.044,8.613v21.841
			c0,1.436-0.72,2.153-2.193,2.153h-5.106c-1.438,0-2.158-0.718-2.193-2.153v-2.256H195.3c-0.72,1.641-1.885,2.939-3.53,3.862
			c-1.645,0.923-3.633,1.401-5.929,1.401c-3.427,0-6.169-0.957-8.26-2.837c-2.09-1.88-3.118-4.409-3.118-7.554
			c0-3.179,1.063-5.742,3.188-7.69c2.124-1.948,4.935-2.905,8.396-2.905h9.562v-3.213c0-1.401-0.48-2.529-1.439-3.384
			c-0.96-0.854-2.228-1.265-3.839-1.265c-2.639,0-4.249,0.923-4.832,2.803c-0.309,1.128-0.994,1.675-2.057,1.675h-5.414
			c-1.439,0-2.159-0.718-2.193-2.188c0-3.042,1.404-5.503,4.181-7.383s6.306-2.837,10.556-2.837L190.468,294.646z M189.576,323.972
			c1.782,0,3.222-0.376,4.318-1.128s1.645-1.743,1.645-2.939v-3.008h-7.162c-1.199,0-2.193,0.308-2.947,0.923
			s-1.131,1.436-1.131,2.461c0,1.06,0.479,1.914,1.439,2.598c0.959,0.684,2.228,1.025,3.838,1.025V323.972z"/>
		<path fill="#FFFFFF" d="M225.29,330.432c-3.119,0-5.655-0.889-7.608-2.7s-2.913-4.17-2.913-7.109v-37.017
			c0-1.436,0.72-2.153,2.159-2.188h5.483c1.439,0,2.159,0.718,2.159,2.188v34.453c0,1.06,0.309,1.88,0.891,2.461
			c0.583,0.581,1.405,0.854,2.468,0.854h0.754c0.892,0,1.337,0.479,1.337,1.401v5.469c0,1.436-0.72,2.153-2.159,2.153h-2.604
			L225.29,330.432z"/>
		<path fill="#FFFFFF" d="M252.061,294.646c4.558,0,8.19,1.06,10.897,3.213c2.708,2.153,4.044,5.024,4.044,8.613v21.841
			c0,1.436-0.719,2.153-2.193,2.153h-5.105c-1.439,0-2.159-0.718-2.193-2.153v-2.256h-0.617c-0.72,1.641-1.885,2.939-3.53,3.862
			c-1.645,0.923-3.633,1.401-5.929,1.401c-3.427,0-6.169-0.957-8.26-2.837c-2.09-1.88-3.118-4.409-3.118-7.554
			c0-3.179,1.063-5.742,3.188-7.69c2.124-1.948,4.935-2.905,8.396-2.905h9.563v-3.213c0-1.401-0.48-2.529-1.439-3.384
			c-0.96-0.854-2.228-1.265-3.839-1.265c-2.639,0-4.249,0.923-4.832,2.803c-0.309,1.128-0.994,1.675-2.057,1.675h-5.414
			c-1.439,0-2.159-0.718-2.193-2.188c0-3.042,1.404-5.503,4.181-7.383s6.306-2.837,10.556-2.837L252.061,294.646z M251.169,323.972
			c1.782,0,3.222-0.376,4.318-1.128s1.645-1.743,1.645-2.939v-3.008h-7.162c-1.199,0-2.193,0.308-2.947,0.923
			s-1.131,1.436-1.131,2.461c0,1.06,0.479,1.914,1.439,2.598c0.959,0.684,2.228,1.025,3.838,1.025V323.972z"/>
		<path fill="#FFFFFF" d="M316.184,294.646c3.051,0,5.518,0.957,7.402,2.871c1.886,1.914,2.845,4.409,2.845,7.52v23.311
			c0,1.436-0.72,2.153-2.159,2.153h-5.483c-1.439,0-2.159-0.718-2.193-2.153v-19.756c0-1.436-0.445-2.598-1.336-3.452
			c-0.892-0.854-2.091-1.299-3.599-1.299c-1.542,0-2.811,0.444-3.805,1.333c-0.993,0.889-1.474,2.017-1.474,3.35v19.824
			c0,1.436-0.72,2.153-2.159,2.153h-5.483c-1.438,0-2.158-0.718-2.158-2.153v-19.756c0-1.436-0.446-2.598-1.337-3.452
			c-0.892-0.854-2.091-1.299-3.599-1.299c-1.542,0-2.811,0.444-3.77,1.333c-0.96,0.889-1.439,2.017-1.439,3.35v19.824
			c0,1.436-0.72,2.153-2.193,2.153h-5.483c-1.439,0-2.159-0.718-2.159-2.153v-30.693c0-1.436,0.72-2.153,2.159-2.153h5.483
			c1.439,0,2.159,0.718,2.193,2.153v2.734h0.548c0.72-1.743,1.885-3.145,3.496-4.204c1.61-1.06,3.495-1.572,5.654-1.572
			c2.297,0,4.284,0.547,5.964,1.641c1.679,1.094,2.913,2.632,3.667,4.58h0.479c0.754-1.88,2.022-3.384,3.77-4.546
			c1.748-1.162,3.805-1.743,6.169-1.743V294.646z"/>
		<path fill="#FFFFFF" d="M373.904,283.537c5.003,0,9.013,1.538,12.063,4.58c3.05,3.042,4.558,7.075,4.558,12.1
			c0,5.093-1.508,9.16-4.558,12.202c-3.051,3.042-7.061,4.546-12.063,4.546h-8.979v10.972c0,1.641-0.822,2.461-2.468,2.461h-5.483
			c-1.645,0-2.467-0.82-2.433-2.461v-41.973c0-1.641,0.822-2.461,2.433-2.461h16.931V283.537z M372.979,307.429
			c2.193,0,3.941-0.649,5.209-1.914c1.269-1.265,1.92-3.042,1.92-5.298c0-2.188-0.651-3.931-1.92-5.229
			c-1.268-1.299-2.981-1.948-5.141-1.948h-8.122v14.424h8.122L372.979,307.429z"/>
		<path fill="#FFFFFF" d="M425.896,295.363c1.439,0,2.159,0.718,2.159,2.153v30.693c0,1.436-0.72,2.153-2.159,2.153h-5.483
			c-1.438,0-2.158-0.718-2.193-2.153v-2.734h-0.548c-0.72,1.743-1.851,3.145-3.427,4.204c-1.577,1.06-3.462,1.572-5.655,1.572
			c-3.084,0-5.586-0.923-7.471-2.803s-2.845-4.341-2.845-7.417v-23.481c0-1.436,0.72-2.153,2.159-2.153h5.483
			c1.439,0,2.159,0.718,2.159,2.153v19.756c0,1.436,0.445,2.598,1.336,3.452c0.892,0.854,2.091,1.299,3.599,1.299
			c1.542,0,2.811-0.444,3.771-1.333c0.959-0.889,1.438-2.017,1.438-3.35v-19.824c0-1.436,0.72-2.153,2.193-2.153h5.483V295.363z"/>
		<path fill="#FFFFFF" d="M458.147,294.646c3.119,0,5.655,0.957,7.608,2.837c1.954,1.88,2.913,4.375,2.913,7.451v23.413
			c0,1.436-0.72,2.153-2.193,2.153h-5.449c-1.439,0-2.159-0.718-2.193-2.153v-19.619c0-1.504-0.479-2.7-1.405-3.589
			c-0.925-0.889-2.158-1.333-3.701-1.333c-1.645,0-2.981,0.479-4.044,1.401s-1.576,2.051-1.576,3.384v19.688
			c0,1.436-0.72,2.153-2.193,2.153h-5.483c-1.439,0-2.159-0.718-2.159-2.153v-30.693c0-1.436,0.72-2.153,2.159-2.153h5.483
			c1.439,0,2.159,0.718,2.193,2.153v2.734h0.548c0.72-1.743,1.92-3.145,3.599-4.204c1.68-1.06,3.633-1.572,5.86-1.572
			L458.147,294.646z"/>
		<path fill="#FFFFFF" d="M492.115,331.32c-4.593,0-8.26-1.265-11.002-3.828c-2.741-2.563-4.112-5.947-4.112-10.186v-8.682
			c0-4.238,1.371-7.622,4.147-10.186c2.775-2.563,6.442-3.828,11.001-3.828c4.489,0,8.122,1.128,10.897,3.384
			c2.776,2.256,4.182,5.366,4.182,9.331c0,1.504-0.686,2.256-2.057,2.256h-5.586c-1.165,0-1.885-0.513-2.125-1.538
			c-0.377-2.905-2.159-4.341-5.346-4.341c-1.611,0-2.879,0.479-3.839,1.401s-1.439,2.119-1.439,3.589v8.545
			c0,1.504,0.479,2.7,1.474,3.623s2.262,1.367,3.839,1.367c3.187,0,4.969-1.436,5.346-4.341c0.24-1.025,0.96-1.538,2.159-1.538
			h5.586c1.337,0,2.022,0.786,2.057,2.324c0,3.965-1.405,7.041-4.215,9.263c-2.811,2.222-6.443,3.315-10.898,3.315L492.115,331.32z"
			/>
		<path fill="#FFFFFF" d="M529.751,294.646c4.558,0,8.19,1.06,10.897,3.213c2.708,2.153,4.044,5.024,4.044,8.613v21.841
			c0,1.436-0.72,2.153-2.193,2.153h-5.106c-1.438,0-2.158-0.718-2.193-2.153v-2.256h-0.616c-0.72,1.641-1.885,2.939-3.53,3.862
			c-1.645,0.923-3.633,1.401-5.929,1.401c-3.427,0-6.169-0.957-8.26-2.837c-2.09-1.88-3.118-4.409-3.118-7.554
			c0-3.179,1.063-5.742,3.188-7.69c2.124-1.948,4.935-2.905,8.396-2.905h9.562v-3.213c0-1.401-0.48-2.529-1.439-3.384
			c-0.96-0.854-2.228-1.265-3.839-1.265c-2.639,0-4.249,0.923-4.832,2.803c-0.309,1.128-0.994,1.675-2.057,1.675h-5.414
			c-1.439,0-2.159-0.718-2.193-2.188c0-3.042,1.404-5.503,4.181-7.383s6.306-2.837,10.556-2.837L529.751,294.646z M528.859,323.972
			c1.782,0,3.222-0.376,4.318-1.128s1.645-1.743,1.645-2.939v-3.008h-7.162c-1.199,0-2.193,0.308-2.947,0.923
			s-1.131,1.436-1.131,2.461c0,1.06,0.479,1.914,1.439,2.598c0.959,0.684,2.228,1.025,3.838,1.025V323.972z"/>
		<path fill="#FFFFFF" d="M585.169,327.8c0.446,0.752,0.515,1.367,0.206,1.846s-0.891,0.718-1.748,0.718h-6.751
			c-1.2,0-2.057-0.547-2.57-1.606l-6.752-11.963l-3.358,3.76v7.656c0,1.436-0.72,2.153-2.193,2.153h-5.483
			c-1.439,0-2.159-0.718-2.159-2.153v-44.673c0-1.436,0.72-2.153,2.159-2.188h5.483c1.439,0,2.159,0.718,2.193,2.188v24.507h0.686
			l9.185-11.279c0.617-0.923,1.474-1.401,2.604-1.401h6.614c0.788,0,1.269,0.273,1.439,0.82c0.172,0.547-0.034,1.162-0.617,1.88
			l-10.247,11.553l11.173,18.184H585.169z"/>
	</g>
	<g clip-path="url(#SVGID_2_)">
		<defs>
			<rect id="SVGID_5_" x="-952" y="-252" width="1920" height="1080"/>
		</defs>
		<clipPath id="SVGID_6_">
			<use xlink:href="#SVGID_5_"  overflow="visible"/>
		</clipPath>
		<path clip-path="url(#SVGID_6_)" fill="#6FBEAB" d="M613.193,481.427H88.445c-25.089,0-45.428-20.339-45.428-45.428
			s20.339-45.427,45.428-45.427h524.748c25.089,0,45.428,20.338,45.428,45.427S638.282,481.427,613.193,481.427"/>
	</g>
	<g clip-path="url(#SVGID_2_)">
		<path fill="#FFFFFF" d="M129.113,459.033c-1.645,0-2.467-0.82-2.433-2.461V414.6c0-1.641,0.822-2.461,2.433-2.461h9.22
			c1.439,0,2.33,0.649,2.707,1.948l9.287,22.251h0.617l9.116-22.251c0.445-1.299,1.371-1.948,2.776-1.948h8.773
			c1.645,0,2.467,0.82,2.467,2.461v41.973c0,1.641-0.822,2.461-2.467,2.461h-5.449c-1.646,0-2.468-0.82-2.468-2.461v-24.78
			l0.479-3.281h-0.754l-8.499,19.619c-0.445,1.299-1.371,1.948-2.776,1.948h-3.495c-1.405,0-2.331-0.649-2.776-1.948l-8.499-19.619
			h-0.856l0.514,3.281v24.78c0,1.641-0.822,2.461-2.468,2.461h-5.483H129.113z"/>
		<path fill="#FFFFFF" d="M222.063,459.033h-6.718c-1.268,0-2.056-0.649-2.364-1.948l-1.816-6.938h-15.319l-1.816,6.938
			c-0.274,1.299-1.063,1.948-2.331,1.948h-6.374c-1.782,0-2.468-0.923-2.022-2.734l12.544-42.075
			c0.309-1.401,1.199-2.085,2.673-2.085h10.315c1.405,0,2.331,0.684,2.776,2.085l12.509,42.075
			C224.633,458.11,223.947,459.033,222.063,459.033z M208.73,440.918l-4.9-18.423h-0.651l-4.832,18.423H208.73z"/>
		<path fill="#FFFFFF" d="M233.202,459.033c-0.925,0-1.542-0.273-1.816-0.82c-0.273-0.547-0.171-1.299,0.309-2.222l12.063-19.961
			l-12.509-20.781c-0.514-0.923-0.617-1.675-0.309-2.222s0.96-0.82,1.954-0.82h7.299c1.303,0,2.263,0.615,2.879,1.812l7.231,12.476
			h0.788l7.163-12.476c0.582-1.196,1.542-1.812,2.879-1.812h6.306c0.994,0,1.645,0.273,1.919,0.82s0.172,1.299-0.343,2.222
			l-11.994,19.961l12.543,20.781c0.514,0.923,0.617,1.675,0.309,2.222s-0.926,0.82-1.851,0.82h-7.369
			c-1.302,0-2.262-0.615-2.878-1.812l-7.231-12.476h-0.754l-7.231,12.476c-0.617,1.196-1.576,1.812-2.879,1.812h-6.374H233.202z"/>
		<path fill="#FFFFFF" d="M279.746,456.572V414.6c0-1.641,0.822-2.461,2.433-2.461h5.483c1.646,0,2.468,0.82,2.468,2.461v41.973
			c0,1.641-0.822,2.461-2.468,2.461h-5.483C280.534,459.033,279.712,458.213,279.746,456.572z"/>
		<path fill="#FFFFFF" d="M304.801,459.033c-1.645,0-2.467-0.82-2.433-2.461V414.6c0-1.641,0.822-2.461,2.433-2.461h9.22
			c1.439,0,2.33,0.649,2.707,1.948l9.287,22.251h0.617l9.116-22.251c0.445-1.299,1.371-1.948,2.776-1.948h8.773
			c1.645,0,2.467,0.82,2.467,2.461v41.973c0,1.641-0.822,2.461-2.467,2.461h-5.449c-1.646,0-2.468-0.82-2.468-2.461v-24.78
			l0.479-3.281h-0.754l-8.499,19.619c-0.445,1.299-1.371,1.948-2.776,1.948h-3.495c-1.405,0-2.331-0.649-2.776-1.948l-8.499-19.619
			h-0.856l0.514,3.281v24.78c0,1.641-0.822,2.461-2.468,2.461h-5.483H304.801z"/>
		<path fill="#FFFFFF" d="M397.75,459.033h-6.718c-1.268,0-2.056-0.649-2.364-1.948l-1.816-6.938h-15.319l-1.816,6.938
			c-0.274,1.299-1.063,1.948-2.331,1.948h-6.374c-1.782,0-2.468-0.923-2.022-2.734l12.544-42.075
			c0.309-1.401,1.199-2.085,2.673-2.085h10.315c1.405,0,2.331,0.684,2.776,2.085l12.509,42.075
			C400.32,458.11,399.635,459.033,397.75,459.033z M384.418,440.918l-4.9-18.423h-0.651l-4.832,18.423H384.418z"/>
		<path fill="#FFFFFF" d="M426.784,458.999c-1.439,0-2.159-0.718-2.193-2.153v-4.512c0-1.06,0.377-1.948,1.131-2.632l14.942-14.868
			c4.146-4.102,6.237-7.246,6.271-9.434c0-1.401-0.515-2.529-1.543-3.384c-1.027-0.854-2.433-1.299-4.215-1.299
			c-1.816,0-3.256,0.444-4.318,1.367s-1.61,2.153-1.61,3.691v0.581c0,1.265-0.686,1.88-2.057,1.88h-6.443
			c-1.438,0-2.158-0.684-2.193-2.051v-1.23c0-4.067,1.543-7.349,4.593-9.878s7.094-3.794,12.098-3.794
			c4.97,0,8.945,1.196,11.961,3.623s4.523,5.605,4.523,9.536c0,4.751-2.398,9.399-7.162,13.945l-10.453,10.562v0.547H455.4
			c1.439,0,2.159,0.718,2.193,2.188v5.195c0,1.436-0.72,2.153-2.193,2.153h-28.548L426.784,458.999z"/>
		<path fill="#FFFFFF" d="M472.128,455.479c-3.222-2.939-4.833-6.802-4.833-11.621v-16.543c0-4.819,1.611-8.682,4.833-11.621
			c3.221-2.939,7.471-4.409,12.748-4.409c5.278,0,9.528,1.47,12.715,4.375c3.188,2.905,4.798,6.802,4.798,11.655v16.543
			c0,4.854-1.61,8.75-4.798,11.655c-3.187,2.905-7.437,4.375-12.715,4.375C479.599,459.888,475.349,458.418,472.128,455.479z
			 M484.808,450.386c2.159,0,3.907-0.615,5.21-1.846c1.302-1.23,1.953-2.871,1.953-4.888v-16.099c0-2.017-0.651-3.623-1.953-4.854
			c-1.303-1.23-3.017-1.846-5.176-1.846c-2.193,0-3.94,0.615-5.243,1.846s-1.953,2.837-1.953,4.854v16.099
			c0,2.017,0.65,3.623,1.953,4.854s3.05,1.846,5.243,1.846L484.808,450.386z"/>
		<path fill="#FFFFFF" d="M514.148,458.999c-1.439,0-2.159-0.718-2.193-2.153v-4.512c0-1.06,0.377-1.948,1.131-2.632l14.942-14.868
			c4.146-4.102,6.237-7.246,6.271-9.434c0-1.401-0.515-2.529-1.543-3.384c-1.027-0.854-2.433-1.299-4.215-1.299
			c-1.816,0-3.256,0.444-4.318,1.367s-1.61,2.153-1.61,3.691v0.581c0,1.265-0.686,1.88-2.057,1.88h-6.443
			c-1.438,0-2.158-0.684-2.193-2.051v-1.23c0-4.067,1.543-7.349,4.593-9.878s7.094-3.794,12.098-3.794
			c4.97,0,8.945,1.196,11.961,3.623s4.523,5.605,4.523,9.536c0,4.751-2.398,9.399-7.162,13.945l-10.453,10.562v0.547h15.285
			c1.439,0,2.159,0.718,2.193,2.188v5.195c0,1.436-0.72,2.153-2.193,2.153h-28.548L514.148,458.999z"/>
		<path fill="#FFFFFF" d="M564.462,459.102c-1.439,0-2.159-0.718-2.193-2.153v-34.043h-0.616l-5.826,2.598
			c-0.789,0.308-1.405,0.308-1.886,0c-0.479-0.308-0.72-0.889-0.72-1.743v-4.99c0-1.196,0.549-2.017,1.68-2.427l8.362-3.657
			c0.891-0.376,1.816-0.547,2.741-0.547h4.49c1.439,0,2.159,0.718,2.159,2.153v42.588c0,1.436-0.72,2.153-2.159,2.153h-6.032
			V459.102z"/>
	</g>
</g>
</svg>
