<svg width="497" height="673" viewBox="0 0 497 673" fill="none" xmlns="http://www.w3.org/2000/svg">
<g clip-path="url(#clip0)">
<g opacity="0.33">
<g opacity="0.33">
<path opacity="0.33" d="M66.6551 64.07C63.6051 63.649 60.7921 65.779 60.3701 68.829L57.2401 91.488C56.8191 94.538 58.9491 97.352 61.9991 97.773C65.0491 98.195 67.8631 96.064 68.2831 93.014L71.4141 70.355C71.8351 67.305 69.7041 64.491 66.6551 64.07Z" fill="#D2A785"/>
<path opacity="0.33" d="M9.52495 56.461C-0.0380545 64.471 -1.30804 78.849 6.70295 88.411L47.0459 136.572C55.0569 146.134 69.434 147.404 78.997 139.394C88.559 131.383 89.8289 117.006 81.8179 107.444L41.475 59.283C33.464 49.721 19.0869 48.451 9.52495 56.461Z" fill="#EFC093"/>
<path opacity="0.33" d="M90.4099 167.697L65.644 138.049C65.65 138.048 65.684 138.042 65.684 138.042C65.684 138.042 64.0989 136.254 63.7849 134.31C63.7849 134.302 63.785 134.296 63.784 134.288C63.777 130.957 64.836 124.586 73.089 124.818C73.096 124.818 73.1009 124.818 73.1079 124.818C73.1799 124.82 73.259 124.829 73.331 124.832C74.583 124.944 77.338 125.596 80.166 128.981C80.172 128.989 80.179 128.991 80.185 128.999L82.675 131.979C86.043 136.011 91.872 137.322 96.419 134.689C98.347 133.573 99.743 131.996 100.633 130.214C100.665 130.149 100.742 130.128 100.788 130.184C102.589 132.34 131.477 166.923 145.256 183.418C152.707 192.337 152.782 205.618 144.784 214.051C135.32 224.026 119.444 223.272 110.881 213.021L87.353 184.855C87.311 184.804 87.327 184.731 87.386 184.702C88.884 183.974 90.2699 182.91 91.3579 181.331C94.2139 177.186 93.6369 171.56 90.4099 167.697Z" fill="#EE478A"/>
<path opacity="0.33" d="M100.67 130.139C99.7819 131.951 98.3739 133.557 96.4199 134.689C91.8729 137.322 86.045 136.013 82.676 131.981L80.185 128.998C80.179 128.991 80.172 128.988 80.167 128.981C77.338 125.596 74.5829 124.944 73.3319 124.832C73.2589 124.829 73.1799 124.82 73.1079 124.818C73.1009 124.817 73.096 124.817 73.089 124.817C64.837 124.586 63.777 130.956 63.784 134.288C63.785 134.295 63.785 134.302 63.786 134.309C64.1 136.254 65.684 138.042 65.684 138.042C65.684 138.042 65.6499 138.047 65.6439 138.048L90.413 167.699C93.639 171.561 94.214 177.186 91.359 181.33C90.261 182.923 88.8589 183.993 87.3449 184.722C87.3019 184.743 87.25 184.73 87.219 184.694L48.423 138.25C48.21 137.994 48.029 137.723 47.829 137.461L47.751 137.527L36.971 124.682C35.128 122.487 35.415 119.213 37.61 117.37L64.405 94.884C66.6 93.041 69.874 93.327 71.716 95.523L82.4959 108.368L82.494 108.369C82.74 108.637 82.999 108.888 83.235 109.17C83.235 109.17 99.731 128.917 100.659 130.029C100.686 130.062 100.689 130.102 100.67 130.139Z" fill="#FFD33F"/>
<path opacity="0.33" d="M68.291 91.623L33.724 120.633C33.675 120.674 33.6679 120.748 33.7099 120.797L41.062 129.557C41.103 129.606 41.176 129.612 41.226 129.571L75.792 100.561C75.842 100.52 75.848 100.447 75.807 100.397L68.456 91.638C68.414 91.588 68.339 91.582 68.291 91.623Z" fill="#FFE4A7"/>
</g>
</g>
<g opacity="0.33">
<g opacity="0.33">
<path opacity="0.33" d="M129.996 51.967C127.387 50.334 123.947 51.125 122.313 53.734L110.175 73.123C108.542 75.732 109.333 79.172 111.942 80.805C114.552 82.439 117.991 81.648 119.625 79.038L131.763 59.65C133.396 57.041 132.605 53.602 129.996 51.967Z" fill="#D2A785"/>
<path opacity="0.33" d="M80.997 21.623C68.993 25.013 61.9439 37.609 65.3339 49.613L82.4089 110.074C85.7989 122.079 98.3939 129.127 110.399 125.737C122.403 122.347 129.452 109.751 126.061 97.747L108.987 37.286C105.597 25.281 93.001 18.233 80.997 21.623Z" fill="#EFC093"/>
<path opacity="0.33" d="M109.216 156.232L98.7699 119.04C98.7749 119.041 98.8089 119.05 98.8089 119.05C98.8089 119.05 98.0959 116.77 98.6059 114.868C98.6079 114.861 98.6109 114.855 98.6129 114.847C99.9719 111.806 103.548 106.428 110.982 110.02C110.988 110.023 110.992 110.025 110.999 110.028C111.063 110.059 111.132 110.1 111.196 110.132C112.292 110.747 114.539 112.47 115.732 116.717C115.735 116.726 115.739 116.732 115.741 116.741L116.792 120.48C118.213 125.538 122.994 129.121 128.22 128.582C130.435 128.354 132.356 127.487 133.898 126.226C133.954 126.18 134.032 126.192 134.051 126.262C134.811 128.967 146.997 172.349 152.81 193.041C155.953 204.23 150.581 216.376 139.83 220.792C127.111 226.015 112.937 218.824 109.324 205.965L99.3989 170.631C99.3819 170.568 99.426 170.508 99.491 170.506C101.156 170.456 102.857 170.052 104.496 169.058C108.799 166.447 110.577 161.078 109.216 156.232Z" fill="#EE478A"/>
<path opacity="0.33" d="M133.961 126.173C132.408 127.463 130.466 128.35 128.219 128.582C122.994 129.121 118.213 125.539 116.792 120.482L115.741 116.74C115.738 116.732 115.734 116.726 115.731 116.717C114.538 112.47 112.292 110.747 111.196 110.132C111.131 110.1 111.063 110.059 110.998 110.027C110.992 110.025 110.987 110.023 110.981 110.019C103.547 106.427 99.9709 111.805 98.6119 114.847C98.6099 114.854 98.6069 114.86 98.6049 114.868C98.0949 116.77 98.8079 119.05 98.8079 119.05C98.8079 119.05 98.7749 119.041 98.7689 119.039L109.217 156.235C110.578 161.079 108.799 166.447 104.497 169.057C102.843 170.061 101.126 170.463 99.4459 170.506C99.3979 170.508 99.3549 170.476 99.3419 170.429L82.9759 112.169C82.8859 111.848 82.8329 111.527 82.7579 111.206L82.6589 111.234L78.0869 95.101C77.3059 92.343 78.9079 89.474 81.6659 88.693L115.32 79.155C118.078 78.374 120.947 79.976 121.729 82.734L126.3 98.867H126.298C126.413 99.213 126.546 99.548 126.646 99.902C126.646 99.902 133.605 124.673 133.996 126.068C134.007 126.108 133.993 126.146 133.961 126.173Z" fill="#FFD33F"/>
<path opacity="0.33" d="M120.202 77.772L76.7849 90.075C76.7229 90.093 76.6869 90.157 76.7039 90.219L79.822 101.222C79.84 101.284 79.9039 101.32 79.9659 101.302L123.383 89C123.445 88.982 123.481 88.918 123.464 88.856L120.346 77.854C120.328 77.792 120.264 77.754 120.202 77.772Z" fill="#FFE4A7"/>
</g>
</g>
<path d="M305.442 427.96H354.02L380.003 530.764L335.525 670.497C335.102 671.827 333.867 672.731 332.471 672.731C330.978 672.731 329.682 671.698 329.348 670.243L298.29 535.051C298.068 534.084 297.208 533.4 296.216 533.4C295.225 533.4 294.364 534.085 294.142 535.051L263.085 670.243C262.75 671.698 261.455 672.731 259.961 672.731C258.566 672.731 257.33 671.827 256.907 670.497L212.429 530.764L238.413 427.96H286.99H305.442V427.96Z" fill="#E33272"/>
<path d="M219.893 535.925L257.998 655.638C258.226 656.352 258.889 656.837 259.638 656.837C260.44 656.837 261.135 656.283 261.315 655.501L291.231 525.313C291.249 525.235 291.269 525.158 291.29 525.082L291.819 523.237C293.073 518.859 299.295 518.912 300.476 523.31L300.981 525.197L330.924 655.502C331.104 656.284 331.799 656.838 332.601 656.838C333.351 656.838 334.014 656.353 334.241 655.639L372.346 535.926" stroke="#F8BBD5" stroke-width="3.441" stroke-miterlimit="10" stroke-linecap="round" stroke-linejoin="round"/>
<path d="M298.852 196.871H284.166V209.361H298.852V196.871Z" fill="#D2A785"/>
<path d="M349.26 440.7H232.89C218.392 440.7 206.956 428.37 208.046 413.913L217.073 282.791C217.073 241.921 250.513 208.482 291.383 208.482C332.254 208.482 365.693 241.921 365.693 282.791L374.114 414.04C375.126 428.452 363.708 440.7 349.26 440.7Z" fill="#EFC093"/>
<path d="M370.969 353.123L374.93 414.855C375.361 420.986 373.526 426.713 370.182 431.285L406.438 616.785C408.571 627.693 401.39 638.362 390.482 640.495C379.573 642.627 368.905 635.446 366.772 624.538L331 441.516H252.782L217.01 624.538C214.877 635.446 204.208 642.627 193.3 640.495C182.392 638.362 175.211 627.693 177.344 616.785L213.511 431.442C210.142 426.838 207.448 421.853 207.913 415.676L212.154 354.089L370.969 353.123Z" fill="#055586"/>
<path d="M489.063 313.554C483.582 324.759 469.93 329.443 458.725 323.963L319.864 256.044C308.658 250.563 303.974 236.911 309.455 225.706C314.936 214.5 328.588 209.816 339.793 215.297L478.654 283.215C489.859 288.696 494.542 302.348 489.063 313.554Z" fill="#E33272"/>
<path d="M431.112 328.13L400.928 352.241C400.934 352.244 400.966 352.256 400.966 352.256C400.966 352.256 399.057 353.692 398.362 355.534C398.36 355.541 398.358 355.548 398.355 355.555C397.684 358.818 397.451 365.272 405.584 366.692C405.591 366.693 405.596 366.694 405.603 366.695C405.674 366.708 405.753 366.714 405.824 366.726C407.073 366.866 409.903 366.777 413.35 364.024C413.357 364.018 413.364 364.016 413.371 364.01L416.406 361.587C420.51 358.307 426.484 358.187 430.414 361.673C432.08 363.151 433.134 364.976 433.651 366.899C433.67 366.969 433.74 367.005 433.797 366.96C435.992 365.206 471.199 337.082 487.991 323.668C497.072 316.414 499.796 303.415 493.64 293.557C486.357 281.894 470.65 279.465 460.214 287.801L431.539 310.707C431.488 310.748 431.488 310.823 431.541 310.863C432.863 311.875 434.009 313.195 434.76 314.959C436.732 319.59 435.045 324.988 431.112 328.13Z" fill="#EE478A"/>
<path d="M433.672 366.979C433.164 365.026 432.104 363.171 430.415 361.672C426.485 358.186 420.512 358.306 416.408 361.584L413.371 364.01C413.364 364.016 413.357 364.018 413.35 364.023C409.903 366.776 407.073 366.865 405.824 366.725C405.753 366.714 405.673 366.707 405.603 366.695C405.596 366.693 405.591 366.692 405.584 366.691C397.451 365.271 397.684 358.818 398.355 355.555C398.358 355.547 398.359 355.541 398.361 355.534C399.057 353.691 400.966 352.255 400.966 352.255C400.966 352.255 400.934 352.243 400.928 352.241L431.114 328.127C435.046 324.987 436.733 319.589 434.761 314.959C434.003 313.18 432.843 311.851 431.505 310.835C431.466 310.806 431.413 310.808 431.376 310.837L384.093 348.607C383.834 348.815 383.603 349.045 383.354 349.262L383.29 349.182L370.165 359.617C367.922 361.401 367.548 364.666 369.333 366.91L391.102 394.29C392.886 396.534 396.151 396.906 398.395 395.123L411.52 384.687L411.518 384.685C411.813 384.472 412.117 384.277 412.404 384.048C412.404 384.048 432.508 367.989 433.64 367.085C433.672 367.06 433.683 367.02 433.672 366.979Z" fill="#FFD33F"/>
<path d="M394.259 398.262L366.175 362.939C366.134 362.889 366.143 362.816 366.194 362.775L375.145 355.658C375.195 355.618 375.268 355.627 375.308 355.677L403.393 391C403.433 391.05 403.425 391.124 403.374 391.164L394.423 398.281C394.372 398.321 394.299 398.312 394.259 398.262Z" fill="#FFE4A7"/>
<path d="M111.642 192.065C107.86 203.952 114.491 216.772 126.378 220.554L249.258 259.652C261.144 263.434 273.965 256.803 277.746 244.916C281.529 233.029 274.898 220.21 263.011 216.427L140.13 177.33C128.244 173.547 115.424 180.179 111.642 192.065Z" fill="#E33272"/>
<path d="M100.062 54.466C97.17 53.411 93.97 54.901 92.916 57.793L85.079 79.283C84.024 82.175 85.514 85.375 88.406 86.43C91.298 87.485 94.498 85.995 95.552 83.103L103.389 61.612C104.444 58.72 102.954 55.521 100.062 54.466Z" fill="#D2A785"/>
<path d="M45.8209 34.984C34.7849 40.798 30.5119 54.585 36.3269 65.621L65.6109 121.205C71.4249 132.241 85.2119 136.513 96.2479 130.699C107.284 124.884 111.556 111.098 105.742 100.062L76.4579 44.478C70.6439 33.442 56.8569 29.17 45.8209 34.984Z" fill="#EFC093"/>
<path d="M101.438 160.772L83.4789 126.568C83.4849 126.569 83.5189 126.57 83.5189 126.57C83.5189 126.57 82.3469 124.489 82.4509 122.522C82.4519 122.515 82.4519 122.508 82.4529 122.501C83.1489 119.243 85.5269 113.238 93.5459 115.204C93.5529 115.206 93.5579 115.207 93.5639 115.209C93.6339 115.226 93.7089 115.251 93.7799 115.27C94.9799 115.643 97.5359 116.861 99.5859 120.767C99.5909 120.775 99.5959 120.779 99.6009 120.788L101.406 124.226C103.849 128.877 109.271 131.387 114.271 129.772C116.39 129.088 118.088 127.84 119.334 126.286C119.378 126.23 119.458 126.225 119.491 126.29C120.797 128.777 141.746 168.673 151.737 187.702C157.14 197.992 154.414 210.99 144.817 217.546C133.464 225.302 118.104 221.219 111.894 209.393L94.8319 176.899C94.8019 176.841 94.8329 176.773 94.8959 176.757C96.5149 176.361 98.0939 175.612 99.4899 174.299C103.155 170.851 103.777 165.229 101.438 160.772Z" fill="#EE478A"/>
<path d="M119.384 126.222C118.134 127.806 116.419 129.079 114.27 129.773C109.271 131.389 103.849 128.88 101.407 124.229L99.6 120.788C99.595 120.78 99.59 120.776 99.586 120.767C97.535 116.862 94.979 115.644 93.779 115.271C93.709 115.252 93.6341 115.227 93.5641 115.21C93.5571 115.208 93.552 115.207 93.546 115.205C85.527 113.239 83.1491 119.243 82.4521 122.501C82.4511 122.509 82.451 122.515 82.45 122.522C82.346 124.489 83.518 126.57 83.518 126.57C83.518 126.57 83.4841 126.569 83.4781 126.568L101.439 160.774C103.779 165.23 103.155 170.85 99.49 174.299C98.081 175.624 96.486 176.375 94.852 176.768C94.805 176.779 94.757 176.756 94.734 176.714L66.601 123.135C66.446 122.84 66.328 122.537 66.187 122.239L66.096 122.286L58.2671 107.458C56.9291 104.924 57.899 101.784 60.433 100.446L91.3661 84.113C93.9011 82.774 97.0411 83.744 98.3791 86.279L106.208 101.107L106.206 101.109C106.39 101.422 106.591 101.722 106.762 102.048C106.762 102.048 118.724 124.829 119.397 126.111C119.416 126.148 119.41 126.188 119.384 126.222Z" fill="#FFD33F"/>
<path d="M95.853 81.745L55.9469 102.815C55.8899 102.846 55.8679 102.916 55.8979 102.973L61.2379 113.085C61.2679 113.142 61.338 113.164 61.395 113.134L101.301 92.064C101.358 92.034 101.38 91.963 101.35 91.906L96.0099 81.794C95.9799 81.737 95.91 81.715 95.853 81.745Z" fill="#FFE4A7"/>
<path d="M239.471 132.434C235.952 125.046 243.498 118.575 243.498 118.575C238.934 115 239.004 110.736 240.18 107.404C241.375 104.016 244.761 101.818 248.449 101.818H252.271C255.994 101.818 259.013 104.75 259.013 108.366V123.947C259.013 127.88 256.652 131.453 252.969 133.091L247.859 135.363C244.711 136.763 240.925 135.485 239.471 132.434Z" fill="#7BCCC4"/>
<path d="M339.605 132.434C343.124 125.046 335.578 118.575 335.578 118.575C340.142 115 340.072 110.736 338.896 107.404C337.701 104.016 334.315 101.818 330.627 101.818H326.805C323.082 101.818 320.063 104.75 320.063 108.366V123.947C320.063 127.88 322.424 131.453 326.107 133.091L331.217 135.363C334.365 136.763 338.152 135.485 339.605 132.434Z" fill="#7BCCC4"/>
<path d="M256.479 130.845C247.744 130.845 240.663 137.926 240.663 146.661C240.663 155.396 247.744 162.477 256.479 162.477V130.845Z" fill="#D2A785"/>
<path d="M322.703 162.478C331.438 162.478 338.519 155.397 338.519 146.662C338.519 137.927 331.438 130.846 322.703 130.846V162.478Z" fill="#D2A785"/>
<path d="M301.522 198.251H277.66C265.427 198.251 255.511 188.335 255.511 176.103V104.297H323.67V176.103C323.67 188.335 313.754 198.251 301.522 198.251Z" fill="#EFC093"/>
<path d="M316.516 96.978L332.034 29.492C332.461 27.637 331.717 25.714 330.142 24.646C324.634 20.91 310.329 13.003 287.896 13.003H286.202C263.77 13.003 249.465 20.91 243.956 24.646C242.382 25.714 241.638 27.637 242.064 29.492L257.582 96.978H316.516Z" fill="#EE478A"/>
<path d="M319.242 85.151C319.469 84.353 319.116 83.498 318.446 83.008C315.558 80.897 306.576 75.733 287.802 75.733H287.208C268.246 75.733 258.643 81.001 255.602 83.071C254.93 83.528 254.629 84.354 254.837 85.14L257.217 95.707L257.547 96.978H316.531L319.242 85.151Z" fill="#F8BBD5"/>
<path d="M348.022 104.25H231.159C228.812 104.25 226.892 102.33 226.892 99.982V98.597C226.892 96.25 228.812 94.329 231.159 94.329H348.022C350.369 94.329 352.29 96.25 352.29 98.597V99.982C352.29 102.33 350.369 104.25 348.022 104.25Z" fill="#EE478A"/>
<path d="M301.325 51.492C303.869 54.036 303.869 58.162 301.325 60.707C298.781 63.251 294.656 63.251 292.111 60.707C289.566 58.162 287.233 51.703 289.777 49.159C292.322 46.614 298.781 48.947 301.325 51.492Z" fill="#FFD33F"/>
<path d="M281.288 60.707C278.743 63.251 274.618 63.251 272.073 60.707C269.529 58.162 269.529 54.037 272.073 51.493C274.618 48.948 281.077 46.614 283.622 49.159C286.166 51.704 283.833 58.162 281.288 60.707Z" fill="#FFD33F"/>
<path d="M272 40.596C269.428 38.025 269.428 33.854 272 31.283C274.571 28.711 278.74 28.711 281.312 31.283C283.883 33.854 286.242 40.383 283.671 42.954C281.1 45.526 274.571 43.168 272 40.596Z" fill="#FFD33F"/>
<path d="M292.062 30.627C294.634 28.056 298.803 28.056 301.375 30.627C303.947 33.199 303.947 37.367 301.375 39.94C298.803 42.511 292.275 44.87 289.704 42.298C287.133 39.727 289.491 33.199 292.062 30.627Z" fill="#FFD33F"/>
<path d="M275.014 147.603H273.916C272.636 147.603 271.589 146.556 271.589 145.276V130.725C271.589 129.445 272.636 128.398 273.916 128.398H275.014C276.294 128.398 277.341 129.445 277.341 130.725V145.276C277.341 146.556 276.294 147.603 275.014 147.603Z" fill="#020202"/>
<path d="M267.089 113.405C272.156 111.669 277.704 114.299 279.552 119.353" stroke="#020202" stroke-width="3.441" stroke-miterlimit="10" stroke-linecap="round"/>
<path d="M304.044 147.603H305.388C306.712 147.603 307.796 146.519 307.796 145.195V130.806C307.796 129.481 306.712 128.398 305.388 128.398H304.044C302.72 128.398 301.636 129.481 301.636 130.806V145.195C301.636 146.519 302.72 147.603 304.044 147.603Z" fill="#020202"/>
<path d="M313.292 113.5C308.349 111.437 302.641 113.699 300.467 118.622" stroke="#020202" stroke-width="3.441" stroke-miterlimit="10" stroke-linecap="round"/>
<path d="M279.246 209.434L289.878 223.43C291.017 224.93 291.634 226.761 291.634 228.644V393.372C291.634 395.183 290.308 396.712 288.515 396.967C280.945 398.041 260.612 398.148 238.789 374.738C211.174 345.115 238.789 236.662 240.295 236.662C241.802 236.662 272.299 210.869 272.299 210.869L279.246 209.434Z" fill="#F3BF34"/>
<path d="M303.925 209.549L293.38 223.43C292.24 224.929 291.623 226.761 291.623 228.644V393.372C291.623 395.182 292.95 396.712 294.743 396.966C302.313 398.041 322.646 398.148 344.469 374.738C372.084 345.114 344.469 236.662 342.963 236.662C341.456 236.662 311.179 210.958 311.179 210.958L303.925 209.549Z" fill="#F3BF34"/>
<path d="M291.615 232.253V395.149" stroke="#836F2B" stroke-width="3.441" stroke-miterlimit="10" stroke-linecap="round" stroke-linejoin="round"/>
<path d="M308.71 211.562L306.551 337.327C306.217 356.803 312.279 376.008 324.448 391.258C334.742 404.157 350.885 416.65 376.19 423.602C376.963 418.725 377.176 413.778 376.825 408.854L367.271 274.905C367.271 274.905 365.771 240.541 335.292 219.014C334.258 218.284 333.163 217.647 332.037 217.068C330.955 216.511 329.478 215.751 327.994 214.987C324.107 212.988 319.82 211.884 315.448 211.758L308.71 211.562Z" fill="#E33272"/>
<path d="M316.763 210.573L346.917 269.66C348.743 273.238 349.695 277.19 349.695 281.198C349.695 287.761 347.147 294.072 342.579 298.828L311.618 331.066C310.991 331.719 310.12 332.09 309.209 332.09C307.346 332.09 305.847 330.575 305.886 328.732L308.267 212.487C308.316 210.145 310.192 208.242 312.555 208.137C314.32 208.059 315.967 209.013 316.763 210.573Z" fill="#F8BBD5"/>
<path d="M319.507 364.583C322.052 367.128 326.177 367.128 328.722 364.583C331.267 362.039 331.267 357.913 328.722 355.369C326.177 352.824 319.718 350.491 317.174 353.035C314.629 355.58 316.962 362.039 319.507 364.583Z" fill="#FFD33F"/>
<path d="M328.795 344.472C331.367 341.901 331.367 337.731 328.795 335.159C326.223 332.587 322.055 332.587 319.482 335.159C316.912 337.731 314.553 344.259 317.124 346.83C319.696 349.402 326.223 347.044 328.795 344.472Z" fill="#FFD33F"/>
<path d="M274.167 211.562L276.315 337.629C276.647 357.152 270.616 376.404 258.509 391.69C248.268 404.62 232.207 417.143 207.031 424.111C206.262 419.222 206.05 414.262 206.399 409.327L215.905 275.056C215.905 275.056 217.398 240.609 247.721 219.031C248.75 218.299 249.839 217.661 250.959 217.08C252.036 216.521 253.505 215.76 254.982 214.995C258.848 212.99 263.114 211.884 267.464 211.757L274.167 211.562Z" fill="#E33272"/>
<path d="M266.278 210.573L235.964 269.66C234.128 273.238 233.172 277.19 233.172 281.198C233.172 287.761 235.733 294.072 240.325 298.828L271.45 331.066C272.081 331.719 272.956 332.09 273.872 332.09C275.744 332.09 277.251 330.575 277.213 328.732L274.819 212.487C274.77 210.145 272.884 208.242 270.507 208.137C268.734 208.059 267.079 209.013 266.278 210.573Z" fill="#F8BBD5"/>
<path d="M263.359 364.583C260.814 367.128 256.689 367.128 254.144 364.583C251.6 362.039 251.6 357.913 254.144 355.369C256.689 352.824 263.148 350.491 265.693 353.035C268.237 355.58 265.904 362.039 263.359 364.583Z" fill="#FFD33F"/>
<path d="M254.072 344.472C251.5 341.901 251.5 337.731 254.072 335.159C256.643 332.587 260.812 332.587 263.384 335.159C265.955 337.731 268.314 344.259 265.743 346.83C263.171 349.402 256.643 347.044 254.072 344.472Z" fill="#FFD33F"/>
<path d="M273.936 152.812C281.839 152.812 288.246 146.405 288.246 138.502C288.246 130.599 281.839 124.192 273.936 124.192C266.033 124.192 259.626 130.599 259.626 138.502C259.626 146.405 266.033 152.812 273.936 152.812Z" stroke="#FFE52D" stroke-width="3.441" stroke-miterlimit="10"/>
<path d="M264.838 157.833C264.838 159.325 263.629 160.535 262.136 160.535C260.644 160.535 259.434 159.325 259.434 157.833C259.434 156.341 260.644 155.131 262.136 155.131C263.629 155.131 264.838 156.341 264.838 157.833Z" fill="#FFE52D"/>
<path d="M258.662 167.319C258.662 168.811 257.453 170.021 255.96 170.021C254.468 170.021 253.258 168.811 253.258 167.319C253.258 165.827 254.468 164.617 255.96 164.617C257.453 164.617 258.662 165.827 258.662 167.319Z" fill="#FFE52D"/>
<path d="M248.712 163.688C248.712 165.18 247.502 166.39 246.01 166.39C244.517 166.39 243.308 165.18 243.308 163.688C243.308 162.196 244.517 160.986 246.01 160.986C247.502 160.986 248.712 162.196 248.712 163.688Z" fill="#FFE52D"/>
<path d="M-0.0949707 36.188C-0.0949707 36.188 23.2841 -6.63301 74.1421 1.38299" stroke="#EE478A" stroke-width="3.441" stroke-miterlimit="10" stroke-linecap="round"/>
<path d="M289.591 167.319C289.591 167.319 273.497 167.228 265.814 162.477C265.814 162.477 267.004 190.844 289.591 190.314C312.177 190.844 313.367 162.477 313.367 162.477C305.684 167.228 289.591 167.319 289.591 167.319Z" fill="white"/>
<path d="M18.8269 35.288C18.8269 35.288 32.6129 10.038 62.6009 14.765" stroke="#EE478A" stroke-width="3.441" stroke-miterlimit="10" stroke-linecap="round"/>
<path d="M360.261 287.894L407.414 548.315C407.716 549.985 408.989 551.162 410.278 550.963C411.568 550.765 412.401 549.264 412.154 547.584L373.668 285.83C372.948 280.934 369.265 277.384 365.505 277.963C361.745 278.543 359.379 283.023 360.261 287.894Z" fill="#E8B435"/>
<path d="M344.635 280.684C346.47 292.185 357.282 300.02 368.783 298.184C380.284 296.349 388.119 285.537 386.283 274.036C384.448 262.535 373.636 254.7 362.135 256.536C350.634 258.372 342.799 269.183 344.635 280.684Z" fill="#FFD33F"/>
<path d="M348.112 272.23C348.552 274.987 351.144 276.865 353.901 276.425C356.658 275.985 358.536 273.394 358.096 270.636C357.656 267.879 355.064 266.001 352.307 266.441C349.55 266.881 347.672 269.473 348.112 272.23Z" fill="#FFEECB"/>
<path d="M374.519 277.886C375.075 268.341 369.185 259.92 360.626 256.834C362.558 256.382 364.581 256.185 366.663 256.306C378.289 256.982 387.166 266.956 386.49 278.582C385.813 290.209 375.84 299.086 364.213 298.41C362.132 298.289 360.145 297.859 358.279 297.186C367.138 295.112 373.964 287.432 374.519 277.886Z" fill="#F9C437"/>
<path d="M386.937 408.176L379.859 408.744C376.908 408.98 374.323 406.779 374.086 403.828L370.127 354.494C369.891 351.543 372.091 348.959 375.042 348.722L382.12 348.154C390.039 347.518 396.973 353.422 397.608 361.341L400.124 392.687C400.759 400.607 394.855 407.541 386.937 408.176Z" fill="#EFC093"/>
</g>
<defs>
<clipPath id="clip0">
<rect width="497" height="673" fill="white"/>
</clipPath>
</defs>
</svg>
