<?xml version="1.0" encoding="utf-8"?>
<!-- Generator: Adobe Illustrator 16.0.0, SVG Export Plug-In . SVG Version: 6.00 Build 0)  -->
<!DOCTYPE svg PUBLIC "-//W3C//DTD SVG 1.1//EN" "http://www.w3.org/Graphics/SVG/1.1/DTD/svg11.dtd">
<svg version="1.1" id="Layer_1" xmlns="http://www.w3.org/2000/svg" xmlns:xlink="http://www.w3.org/1999/xlink" x="0px" y="0px"
	 width="600px" height="600px" viewBox="0 0 600 600" enable-background="new 0 0 600 600" xml:space="preserve">
<g>
	<defs>
		<rect id="SVGID_1_" x="-291" y="-252" width="1920" height="1080"/>
	</defs>
	<clipPath id="SVGID_2_">
		<use xlink:href="#SVGID_1_"  overflow="visible"/>
	</clipPath>
	<g clip-path="url(#SVGID_2_)">
		<defs>
			<rect id="SVGID_3_" x="-291" y="-252" width="1920" height="1080"/>
		</defs>
		<clipPath id="SVGID_4_">
			<use xlink:href="#SVGID_3_"  overflow="visible"/>
		</clipPath>
		<path clip-path="url(#SVGID_4_)" fill="#F9E6EC" d="M269.397,527.302H134.955c-8.918,0-16.147-7.229-16.147-16.146
			c0-8.918,7.229-16.148,16.147-16.148h134.443c8.917,0,16.147,7.23,16.147,16.148C285.544,520.073,278.314,527.302,269.397,527.302
			"/>
		<path clip-path="url(#SVGID_4_)" fill="#F9E6EC" d="M559.878,504.664H39.271c-13.066,0-23.658-10.592-23.658-23.657
			s10.592-23.657,23.658-23.657h520.608c13.066,0,23.658,10.592,23.658,23.657S572.944,504.664,559.878,504.664"/>
		<path clip-path="url(#SVGID_4_)" fill="#F9E6EC" d="M517.103,481.434H73.716c-13.066,0-23.657-10.592-23.657-23.657
			s10.591-23.657,23.657-23.657h443.386c13.065,0,23.657,10.592,23.657,23.657S530.167,481.434,517.103,481.434"/>
		<rect x="161.066" y="475.463" clip-path="url(#SVGID_4_)" fill="#C194A3" width="301.071" height="6.096"/>
		<path clip-path="url(#SVGID_4_)" fill="#F9E6EC" d="M448.905,412.413H134.447c-11.841,0-21.439-9.599-21.439-21.439v-4.436
			c0-11.841,9.598-21.439,21.439-21.439h314.458c11.841,0,21.44,9.599,21.44,21.439v4.436
			C470.345,402.814,460.746,412.413,448.905,412.413"/>
		<path clip-path="url(#SVGID_4_)" fill="#F9E6EC" d="M485.117,368.323H101.652c-11.841,0-21.44-9.599-21.44-21.44v-4.435
			c0-11.841,9.599-21.439,21.44-21.439h383.465c11.841,0,21.44,9.599,21.44,21.439v4.435
			C506.557,358.725,496.958,368.323,485.117,368.323"/>
		<path clip-path="url(#SVGID_4_)" fill="#F9E6EC" d="M453.004,345.093H127.51c-11.84,0-21.44-9.599-21.44-21.438v-4.437
			c0-11.841,9.6-21.438,21.44-21.438h325.494c11.841,0,21.44,9.598,21.44,21.438v4.437
			C474.444,335.494,464.845,345.093,453.004,345.093"/>
		<path clip-path="url(#SVGID_4_)" fill="#F9E6EC" d="M113.008,388.756c0,0,1.98-19.643-11.754-20.578l27.468,0.146L113.008,388.756
			z"/>
		<path clip-path="url(#SVGID_4_)" fill="#F9E6EC" d="M470.788,388.756c0,0-1.98-19.643,11.754-20.578l-27.468,0.146
			L470.788,388.756z"/>
		<path clip-path="url(#SVGID_4_)" fill="#1A443E" d="M431.186,323.379h-12.148c-3.249,0-5.883-2.634-5.883-5.882v-1.217
			c0-3.249,2.634-5.882,5.883-5.882h12.148c3.249,0,5.882,2.633,5.882,5.882v1.217C437.067,320.745,434.435,323.379,431.186,323.379
			"/>
		<path clip-path="url(#SVGID_4_)" fill="#C194A3" d="M453.404,316.823c0,3.417-2.771,6.187-6.188,6.187s-6.188-2.77-6.188-6.187
			c0-3.418,2.771-6.188,6.188-6.188S453.404,313.405,453.404,316.823"/>
		<path clip-path="url(#SVGID_4_)" fill="#C194A3" d="M145.868,335.886H133.72c-3.249,0-5.883-2.633-5.883-5.882v-1.217
			c0-3.249,2.634-5.883,5.883-5.883h12.148c3.249,0,5.882,2.634,5.882,5.883v1.217C151.75,333.253,149.117,335.886,145.868,335.886"
			/>
		<path clip-path="url(#SVGID_4_)" fill="#D60064" d="M293.435,45.304c-133.676-2.965-141.192,105.118-141.192,105.118v174.427
			h16.503V150.422c0,0,9.357-84.896,124.246-88.615c0,0,102.958-1.81,121.683,88.615v174.427h16.503V150.422
			C431.178,150.422,427.111,48.268,293.435,45.304"/>
		<path clip-path="url(#SVGID_4_)" fill="#F2C800" d="M291.542,61.828c-68.004,0-123.133,44.439-123.133,99.257v163.507h246.267
			V161.084C414.675,106.267,359.546,61.828,291.542,61.828"/>
		<path clip-path="url(#SVGID_4_)" fill="#1C3261" d="M168.746,150.421c-0.227,1.262-0.338,2.539-0.338,3.821v170.35l76.893-28.684
			c8.508-3.174,14.149-11.3,14.149-20.38V149.33v-53.97V65.525C259.45,65.525,181.099,77.356,168.746,150.421"/>
		<path clip-path="url(#SVGID_4_)" fill="#1C3261" d="M414.337,150.421c0.227,1.262,0.338,2.539,0.338,3.821v170.35l-76.893-28.684
			c-8.508-3.174-14.149-11.3-14.149-20.38V149.33v-53.97V65.525C323.633,65.525,401.983,77.356,414.337,150.421"/>
	</g>
	<g clip-path="url(#SVGID_2_)">
		<defs>
			<path id="SVGID_5_" d="M168.746,150.422c-0.227,1.261-0.337,2.538-0.337,3.82v170.35l76.892-28.684
				c8.508-3.174,14.149-11.299,14.149-20.379v-126.2v-53.97V65.526C259.45,65.526,181.099,77.357,168.746,150.422"/>
		</defs>
		<clipPath id="SVGID_6_">
			<use xlink:href="#SVGID_5_"  overflow="visible"/>
		</clipPath>
		
			<path clip-path="url(#SVGID_6_)" fill="none" stroke="#11203C" stroke-width="4.134" stroke-linecap="round" stroke-linejoin="round" stroke-miterlimit="10" d="
			M244.108,297.383V70.423V297.383z"/>
		
			<path clip-path="url(#SVGID_6_)" fill="none" stroke="#11203C" stroke-width="4.134" stroke-linecap="round" stroke-linejoin="round" stroke-miterlimit="10" d="
			M227.229,303.103V76.143V303.103z"/>
		
			<path clip-path="url(#SVGID_6_)" fill="none" stroke="#11203C" stroke-width="4.134" stroke-linecap="round" stroke-linejoin="round" stroke-miterlimit="10" d="
			M209.337,308.539V81.579V308.539z"/>
		
			<path clip-path="url(#SVGID_6_)" fill="none" stroke="#11203C" stroke-width="4.134" stroke-linecap="round" stroke-linejoin="round" stroke-miterlimit="10" d="
			M193.028,326.982v-226.96V326.982z"/>
		
			<path clip-path="url(#SVGID_6_)" fill="none" stroke="#11203C" stroke-width="4.134" stroke-linecap="round" stroke-linejoin="round" stroke-miterlimit="10" d="
			M176.148,332.702V105.743V332.702z"/>
	</g>
	<g clip-path="url(#SVGID_2_)">
		<defs>
			<path id="SVGID_7_" d="M323.633,95.359v53.97v126.2c0,9.08,5.642,17.206,14.149,20.379l76.894,28.684v-170.35
				c0-1.282-0.112-2.559-0.339-3.82c-12.353-73.065-90.704-84.896-90.704-84.896V95.359z"/>
		</defs>
		<clipPath id="SVGID_8_">
			<use xlink:href="#SVGID_7_"  overflow="visible"/>
		</clipPath>
		
			<path clip-path="url(#SVGID_8_)" fill="none" stroke="#11203C" stroke-width="4.134" stroke-linecap="round" stroke-linejoin="round" stroke-miterlimit="10" d="
			M338.975,297.383V70.423V297.383z"/>
		
			<path clip-path="url(#SVGID_8_)" fill="none" stroke="#11203C" stroke-width="4.134" stroke-linecap="round" stroke-linejoin="round" stroke-miterlimit="10" d="
			M355.855,303.103V76.143V303.103z"/>
		
			<path clip-path="url(#SVGID_8_)" fill="none" stroke="#11203C" stroke-width="4.134" stroke-linecap="round" stroke-linejoin="round" stroke-miterlimit="10" d="
			M373.746,308.539V81.579V308.539z"/>
		
			<path clip-path="url(#SVGID_8_)" fill="none" stroke="#11203C" stroke-width="4.134" stroke-linecap="round" stroke-linejoin="round" stroke-miterlimit="10" d="
			M390.056,326.982v-226.96V326.982z"/>
		
			<path clip-path="url(#SVGID_8_)" fill="none" stroke="#11203C" stroke-width="4.134" stroke-linecap="round" stroke-linejoin="round" stroke-miterlimit="10" d="
			M406.936,332.702V105.743V332.702z"/>
	</g>
	<g clip-path="url(#SVGID_2_)">
		<defs>
			<rect id="SVGID_9_" x="-291" y="-252" width="1920" height="1080"/>
		</defs>
		<clipPath id="SVGID_10_">
			<use xlink:href="#SVGID_9_"  overflow="visible"/>
		</clipPath>
		<path clip-path="url(#SVGID_10_)" fill="#C97B14" d="M259.45,275.528v13.342l-17.057,35.722h-73.985l76.816-28.655
			c0.032-0.012,0.041-0.043,0.061-0.071C245.626,295.377,258.705,292.061,259.45,275.528"/>
		<path clip-path="url(#SVGID_10_)" fill="#C97B14" d="M323.633,275.528v13.342l17.058,35.722h73.984l-76.816-28.655
			c-0.032-0.012-0.041-0.043-0.061-0.071C337.456,295.377,324.379,292.061,323.633,275.528"/>
		<path clip-path="url(#SVGID_10_)" fill="#C97B14" d="M238.695,146.311c1.958,2.823,3.576,5.88,5.042,9.015
			c1.461,3.124,2.588,6.397,3.378,9.786c0.851,3.648,1.197,7.377,0.417,11.23c-0.766,3.786-2.715,6.873-5.883,9.171
			c-3.281,2.381-6.993,2.983-10.78,2.863c-2.986-0.093-5.864-0.662-8.688-1.504c-3.095-0.924-6.063-2.099-8.926-3.516
			c-2.82-1.396-5.547-2.937-8.096-4.764c-1.306-0.935-2.625-1.859-3.809-2.933c-1.749-1.586-3.309-3.329-4.526-5.403
			c-2.124-3.618-3.094-7.588-2.963-11.876c0.093-3.038,0.813-6.021,2.075-8.902c1.74-3.974,4.376-7.277,7.799-9.954
			c2.387-1.867,5.039-3.218,7.909-4.122c3.085-0.972,6.192-1.318,9.281-1.014c5.163,0.509,9.582,2.545,13.45,6.48
			C235.918,142.216,237.294,144.29,238.695,146.311"/>
		<path clip-path="url(#SVGID_10_)" fill="#F5C600" d="M244.217,146.316c1.958,2.823,3.576,5.879,5.042,9.015
			c1.461,3.124,2.588,6.397,3.378,9.786c0.851,3.647,1.197,7.377,0.417,11.229c-0.766,3.786-2.715,6.872-5.883,9.171
			c-3.281,2.38-6.992,2.982-10.78,2.863c-2.986-0.094-5.864-0.663-8.688-1.505c-3.095-0.923-6.063-2.098-8.926-3.515
			c-2.819-1.396-5.547-2.937-8.096-4.764c-1.305-0.935-2.625-1.859-3.809-2.933c-1.748-1.586-3.309-3.33-4.526-5.404
			c-2.124-3.618-3.094-7.588-2.962-11.875c0.092-3.038,0.812-6.021,2.074-8.902c1.74-3.974,4.376-7.278,7.799-9.955
			c2.387-1.866,5.039-3.217,7.909-4.122c3.085-0.971,6.192-1.318,9.281-1.013c5.163,0.508,9.582,2.545,13.45,6.479
			C241.44,142.221,242.816,144.295,244.217,146.316"/>
		<path clip-path="url(#SVGID_10_)" fill="#A70041" d="M205.9,213.353c2.823-1.958,5.879-3.576,9.015-5.042
			c3.124-1.46,6.397-2.587,9.786-3.378c3.647-0.851,7.377-1.197,11.23-0.417c3.786,0.766,6.872,2.715,9.171,5.883
			c2.381,3.282,2.983,6.993,2.863,10.78c-0.094,2.986-0.662,5.865-1.504,8.688c-0.924,3.095-2.099,6.064-3.516,8.926
			c-1.396,2.82-2.937,5.547-4.764,8.097c-0.935,1.305-1.859,2.624-2.933,3.808c-1.586,1.749-3.329,3.309-5.404,4.527
			c-3.618,2.123-7.587,3.093-11.875,2.962c-3.038-0.093-6.021-0.813-8.902-2.074c-3.974-1.741-7.277-4.376-9.954-7.799
			c-1.867-2.388-3.218-5.039-4.122-7.91c-0.972-3.085-1.318-6.191-1.014-9.28c0.509-5.164,2.545-9.582,6.479-13.451
			C201.806,216.13,203.879,214.754,205.9,213.353"/>
		<path clip-path="url(#SVGID_10_)" fill="#D60064" d="M211.422,210.987c2.823-1.958,5.879-3.576,9.015-5.042
			c3.124-1.461,6.397-2.587,9.786-3.378c3.648-0.851,7.377-1.197,11.23-0.417c3.786,0.766,6.873,2.715,9.171,5.883
			c2.381,3.281,2.983,6.993,2.863,10.78c-0.093,2.986-0.662,5.864-1.504,8.688c-0.924,3.095-2.099,6.063-3.516,8.926
			c-1.396,2.82-2.937,5.547-4.764,8.097c-0.935,1.305-1.859,2.624-2.933,3.808c-1.586,1.749-3.329,3.309-5.404,4.527
			c-3.618,2.123-7.587,3.093-11.875,2.962c-3.038-0.093-6.021-0.813-8.902-2.075c-3.974-1.74-7.277-4.376-9.954-7.799
			c-1.867-2.387-3.218-5.039-4.122-7.909c-0.972-3.085-1.318-6.192-1.014-9.281c0.509-5.163,2.545-9.582,6.48-13.45
			C207.328,213.764,209.401,212.388,211.422,210.987"/>
		<path clip-path="url(#SVGID_10_)" fill="#4E9A7A" d="M343.308,246.074c-1.958-2.823-3.576-5.879-5.042-9.015
			c-1.46-3.124-2.587-6.397-3.377-9.786c-0.851-3.647-1.197-7.377-0.418-11.229c0.766-3.787,2.716-6.873,5.883-9.172
			c3.282-2.38,6.993-2.982,10.78-2.863c2.986,0.094,5.865,0.663,8.688,1.505c3.095,0.923,6.064,2.098,8.926,3.515
			c2.82,1.396,5.547,2.937,8.097,4.764c1.305,0.935,2.624,1.859,3.809,2.933c1.748,1.586,3.308,3.33,4.526,5.404
			c2.123,3.618,3.093,7.588,2.962,11.875c-0.093,3.038-0.813,6.021-2.074,8.902c-1.74,3.974-4.376,7.278-7.799,9.955
			c-2.388,1.866-5.039,3.217-7.91,4.122c-3.085,0.971-6.191,1.318-9.28,1.013c-5.164-0.508-9.582-2.545-13.451-6.479
			C346.085,250.169,344.709,248.095,343.308,246.074"/>
		<path clip-path="url(#SVGID_10_)" fill="#6FBEAB" d="M337.787,246.069c-1.958-2.823-3.576-5.879-5.042-9.015
			c-1.46-3.124-2.587-6.397-3.377-9.786c-0.852-3.647-1.197-7.377-0.418-11.23c0.766-3.786,2.716-6.872,5.883-9.171
			c3.282-2.381,6.993-2.983,10.78-2.863c2.986,0.094,5.865,0.662,8.688,1.504c3.095,0.924,6.064,2.099,8.926,3.516
			c2.82,1.396,5.547,2.937,8.097,4.764c1.305,0.935,2.624,1.859,3.809,2.933c1.748,1.586,3.308,3.329,4.526,5.404
			c2.123,3.618,3.093,7.587,2.962,11.875c-0.093,3.038-0.813,6.021-2.074,8.902c-1.741,3.974-4.376,7.277-7.799,9.954
			c-2.388,1.867-5.039,3.218-7.91,4.122c-3.085,0.972-6.191,1.318-9.28,1.014c-5.164-0.509-9.582-2.545-13.451-6.479
			C340.563,250.163,339.188,248.09,337.787,246.069"/>
		<path clip-path="url(#SVGID_10_)" fill="#A70041" d="M376.104,179.032c-2.823,1.958-5.879,3.576-9.015,5.042
			c-3.124,1.46-6.397,2.587-9.786,3.377c-3.648,0.851-7.377,1.197-11.23,0.418c-3.786-0.766-6.873-2.716-9.171-5.883
			c-2.381-3.282-2.983-6.993-2.863-10.78c0.093-2.986,0.662-5.865,1.504-8.688c0.924-3.095,2.099-6.064,3.516-8.926
			c1.396-2.82,2.937-5.547,4.764-8.097c0.935-1.305,1.859-2.624,2.933-3.809c1.586-1.748,3.329-3.308,5.404-4.526
			c3.617-2.123,7.587-3.093,11.875-2.962c3.038,0.093,6.021,0.813,8.902,2.074c3.974,1.74,7.277,4.376,9.954,7.799
			c1.867,2.388,3.218,5.039,4.122,7.91c0.972,3.085,1.318,6.191,1.014,9.28c-0.509,5.164-2.545,9.582-6.48,13.451
			C380.197,176.255,378.125,177.631,376.104,179.032"/>
		<path clip-path="url(#SVGID_10_)" fill="#D60064" d="M370.582,181.398c-2.823,1.958-5.88,3.576-9.015,5.042
			c-3.124,1.46-6.397,2.587-9.786,3.378c-3.648,0.851-7.377,1.197-11.23,0.417c-3.786-0.766-6.873-2.715-9.171-5.883
			c-2.381-3.282-2.983-6.993-2.863-10.78c0.093-2.986,0.662-5.865,1.504-8.688c0.924-3.095,2.099-6.063,3.516-8.926
			c1.396-2.82,2.937-5.547,4.764-8.097c0.935-1.305,1.859-2.624,2.933-3.808c1.586-1.749,3.329-3.309,5.403-4.527
			c3.618-2.123,7.588-3.093,11.876-2.962c3.038,0.093,6.021,0.813,8.902,2.074c3.974,1.741,7.277,4.376,9.954,7.8
			c1.867,2.387,3.218,5.038,4.122,7.909c0.972,3.085,1.318,6.191,1.014,9.28c-0.509,5.164-2.545,9.582-6.48,13.451
			C374.676,178.622,372.603,179.998,370.582,181.398"/>
		<path clip-path="url(#SVGID_10_)" fill="#1A443E" d="M169.984,388.329h-12.149c-3.248,0-5.882-2.634-5.882-5.883v-1.217
			c0-3.249,2.634-5.883,5.882-5.883h12.149c3.249,0,5.882,2.634,5.882,5.883v1.217C175.866,385.695,173.233,388.329,169.984,388.329
			"/>
		<path clip-path="url(#SVGID_10_)" fill="#1A443E" d="M192.202,381.772c0,3.418-2.771,6.188-6.188,6.188
			c-3.418,0-6.188-2.771-6.188-6.188c0-3.417,2.77-6.187,6.188-6.187C189.431,375.586,192.202,378.355,192.202,381.772"/>
		<path clip-path="url(#SVGID_10_)" fill="#1A443E" d="M411.061,382.075h-12.149c-3.248,0-5.882-2.634-5.882-5.882v-1.217
			c0-3.249,2.634-5.883,5.882-5.883h12.149c3.249,0,5.882,2.634,5.882,5.883v1.217C416.943,379.441,414.31,382.075,411.061,382.075"
			/>
		<path clip-path="url(#SVGID_10_)" fill="#1A443E" d="M433.279,375.52c0,3.417-2.771,6.187-6.188,6.187
			c-3.418,0-6.188-2.77-6.188-6.187c0-3.418,2.77-6.188,6.188-6.188C430.508,369.331,433.279,372.102,433.279,375.52"/>
		<path clip-path="url(#SVGID_10_)" fill="#1A443E" d="M296.446,382.74c0,3.417-2.771,6.187-6.188,6.187s-6.188-2.77-6.188-6.187
			c0-3.418,2.771-6.188,6.188-6.188S296.446,379.322,296.446,382.74"/>
		<path clip-path="url(#SVGID_10_)" fill="#7D581A" d="M242.285,441.154h-41.132c-3.77,0-6.827-3.057-6.827-6.827v-1.412
			c0-3.771,3.057-6.827,6.827-6.827h41.132c3.77,0,6.827,3.057,6.827,6.827v1.412C249.112,438.098,246.055,441.154,242.285,441.154"
			/>
		<path clip-path="url(#SVGID_10_)" fill="#7D581A" d="M280.553,433.139c0,4.427-3.588,8.016-8.015,8.016
			c-4.426,0-8.015-3.589-8.015-8.016s3.589-8.015,8.015-8.015C276.965,425.124,280.553,428.712,280.553,433.139"/>
		<path clip-path="url(#SVGID_10_)" fill="#7D581A" d="M362.504,438.36h-41.132c-3.77,0-6.827-3.057-6.827-6.827v-1.412
			c0-3.771,3.057-6.826,6.827-6.826h41.132c3.77,0,6.827,3.056,6.827,6.826v1.412C369.332,435.304,366.274,438.36,362.504,438.36"/>
		<path clip-path="url(#SVGID_10_)" fill="#7D581A" d="M375.28,450.085h-21.505c-3.77,0-6.827-3.057-6.827-6.827v-1.412
			c0-3.771,3.057-6.827,6.827-6.827h21.505c3.771,0,6.827,3.057,6.827,6.827v1.412C382.107,447.028,379.051,450.085,375.28,450.085"
			/>
		<path clip-path="url(#SVGID_10_)" fill="#7D581A" d="M196.885,448.205h-11.75c-3.771,0-6.827-3.057-6.827-6.827v-1.412
			c0-3.771,3.056-6.827,6.827-6.827h11.75c3.77,0,6.827,3.057,6.827,6.827v1.412C203.712,445.148,200.655,448.205,196.885,448.205"
			/>
		<polygon clip-path="url(#SVGID_10_)" fill="#F2C800" points="431.178,323.944 301.704,323.944 152.203,323.944 130.181,346.192 
			302.721,346.192 453.199,346.192 		"/>
		<rect x="130.181" y="346.192" clip-path="url(#SVGID_10_)" fill="#A36419" width="323.018" height="19.497"/>
		<polygon clip-path="url(#SVGID_10_)" fill="#C97B14" points="259.45,288.871 232.01,345.924 130.182,346.192 152.203,323.944 		
			"/>
		<polygon clip-path="url(#SVGID_10_)" fill="#C97B14" points="323.879,288.871 350.268,345.644 453.199,346.192 431.126,323.944 		
			"/>
		<polygon clip-path="url(#SVGID_10_)" fill="#F2C800" points="453.512,365.713 303.507,365.713 130.298,365.713 104.784,387.961 
			304.685,387.961 479.025,387.961 		"/>
		<rect x="104.784" y="387.961" clip-path="url(#SVGID_10_)" fill="#C97B14" width="374.241" height="19.497"/>
		<polygon clip-path="url(#SVGID_10_)" fill="#F2C800" points="479.511,407.881 305.765,407.881 105.143,407.881 75.592,430.129 
			307.13,430.129 509.062,430.129 		"/>
		<rect x="75.592" y="430.129" clip-path="url(#SVGID_10_)" fill="#C97B14" width="433.47" height="19.497"/>
		<path clip-path="url(#SVGID_10_)" fill="#C194A3" d="M125.65,301.847l-0.759-3.953l-3.361,0.631v0.784
			c1.434,14.479,12.096,26.246,26.023,29.336"/>
		<path clip-path="url(#SVGID_10_)" fill="#F9E6EC" d="M213.929,283.499c-4.223,0-8.161,1.21-11.494,3.296
			c-0.98-5.425-5.717-9.545-11.425-9.545c-1.187,0-2.332,0.18-3.41,0.51c-5.639-10.528-16.742-17.692-29.521-17.692
			c-18.484,0-33.469,14.985-33.469,33.47s14.985,33.47,33.469,33.47l55.85-0.111c11.983,0,21.698-9.715,21.698-21.698
			C235.627,293.213,225.912,283.499,213.929,283.499"/>
		<path clip-path="url(#SVGID_10_)" fill="#C194A3" d="M177.732,314.466h-12.149c-3.248,0-5.882-2.634-5.882-5.883v-1.217
			c0-3.248,2.634-5.882,5.882-5.882h12.149c3.249,0,5.882,2.634,5.882,5.882v1.217C183.614,311.832,180.981,314.466,177.732,314.466
			"/>
		<path clip-path="url(#SVGID_10_)" fill="#C194A3" d="M199.95,307.91c0,3.417-2.77,6.188-6.188,6.188
			c-3.417,0-6.188-2.771-6.188-6.188c0-3.418,2.771-6.188,6.188-6.188C197.18,301.723,199.95,304.492,199.95,307.91"/>
		<path clip-path="url(#SVGID_10_)" fill="#C194A3" d="M161.975,276.909c2.655,2.151,3.064,6.048,0.913,8.703
			c-2.152,2.656-6.049,3.064-8.704,0.913c-2.655-2.152-3.064-6.048-0.913-8.704C155.423,275.166,159.32,274.757,161.975,276.909"/>
		<path clip-path="url(#SVGID_10_)" fill="#C194A3" d="M455.32,301.847l0.759-3.953l3.361,0.631v0.784
			c-1.434,14.479-10.203,25.764-24.129,28.854l-2.563-2.631"/>
		<path clip-path="url(#SVGID_10_)" fill="#F9E6EC" d="M367.042,283.499c4.223,0,8.161,1.21,11.494,3.296
			c0.98-5.425,5.717-9.545,11.425-9.545c1.187,0,2.331,0.18,3.41,0.51c5.639-10.528,16.742-17.692,29.521-17.692
			c18.484,0,33.469,14.985,33.469,33.47s-14.985,33.47-33.469,33.47l-55.85-0.111c-11.983,0-21.698-9.715-21.698-21.698
			C345.343,293.213,355.059,283.499,367.042,283.499"/>
		<path clip-path="url(#SVGID_10_)" fill="#C194A3" d="M403.238,314.466h12.149c3.248,0,5.882-2.634,5.882-5.883v-1.217
			c0-3.248-2.634-5.882-5.882-5.882h-12.149c-3.249,0-5.882,2.634-5.882,5.882v1.217
			C397.356,311.832,399.989,314.466,403.238,314.466"/>
		<path clip-path="url(#SVGID_10_)" fill="#C194A3" d="M381.02,307.91c0,3.417,2.771,6.188,6.188,6.188
			c3.418,0,6.188-2.771,6.188-6.188c0-3.418-2.77-6.188-6.188-6.188C383.791,301.723,381.02,304.492,381.02,307.91"/>
		<path clip-path="url(#SVGID_10_)" fill="#C194A3" d="M418.996,276.909c-2.656,2.151-3.064,6.048-0.913,8.703
			c2.152,2.656,6.048,3.064,8.704,0.913c2.655-2.152,3.064-6.048,0.913-8.704C425.547,275.166,421.65,274.757,418.996,276.909"/>
		<polygon clip-path="url(#SVGID_10_)" fill="#F2C800" points="509.079,449.691 307.607,449.691 74.973,449.691 40.706,471.939 
			309.189,471.939 543.346,471.939 		"/>
		<rect x="40.705" y="471.94" clip-path="url(#SVGID_10_)" fill="#C97B14" width="502.64" height="19.497"/>
		<path clip-path="url(#SVGID_10_)" fill="#F9E6EC" d="M126.557,473.057c-4.222,0-8.16,1.211-11.494,3.297
			c-0.979-5.426-5.716-9.546-11.425-9.546c-1.187,0-2.331,0.18-3.41,0.511c-5.639-10.528-16.741-17.692-29.52-17.692
			c-18.485,0-33.47,14.984-33.47,33.47c0,18.484,14.985,33.47,33.47,33.47l55.849-0.112c11.984,0,21.699-9.714,21.699-21.698
			C148.256,482.771,138.541,473.057,126.557,473.057"/>
		<path clip-path="url(#SVGID_10_)" fill="#C194A3" d="M90.361,504.024H78.212c-3.249,0-5.882-2.634-5.882-5.883v-1.217
			c0-3.249,2.633-5.883,5.882-5.883h12.149c3.249,0,5.882,2.634,5.882,5.883v1.217C96.243,501.391,93.61,504.024,90.361,504.024"/>
		<path clip-path="url(#SVGID_10_)" fill="#C194A3" d="M112.579,497.468c0,3.418-2.771,6.188-6.188,6.188s-6.188-2.771-6.188-6.188
			c0-3.417,2.771-6.187,6.188-6.187S112.579,494.051,112.579,497.468"/>
		<path clip-path="url(#SVGID_10_)" fill="#C194A3" d="M74.604,466.467c2.655,2.151,3.064,6.048,0.913,8.703
			c-2.152,2.656-6.049,3.064-8.704,0.913c-2.655-2.151-3.064-6.048-0.913-8.704C68.051,464.724,71.948,464.315,74.604,466.467"/>
		<path clip-path="url(#SVGID_10_)" fill="#F9E6EC" d="M370.065,543.449H216.415c-11.51,0-20.84-9.33-20.84-20.839v-4.238
			c0-11.509,9.33-20.839,20.84-20.839h153.651c11.509,0,20.839,9.33,20.839,20.839v4.238
			C390.904,534.119,381.574,543.449,370.065,543.449"/>
		<path clip-path="url(#SVGID_10_)" fill="#F9E6EC" d="M476.534,532.481H342.091c-8.918,0-16.147-7.229-16.147-16.146
			c0-8.918,7.229-16.146,16.147-16.146h134.443c8.918,0,16.147,7.229,16.147,16.146
			C492.681,525.252,485.452,532.481,476.534,532.481"/>
		<path clip-path="url(#SVGID_10_)" fill="#F9E6EC" d="M464.329,475.298c4.223,0,8.161,1.21,11.494,3.296
			c0.98-5.426,5.717-9.545,11.425-9.545c1.187,0,2.331,0.18,3.41,0.51c5.639-10.528,16.741-17.692,29.521-17.692
			c18.484,0,33.469,14.985,33.469,33.47c0,18.485-14.985,33.47-33.469,33.47l-55.85-0.111c-11.983,0-21.698-9.715-21.698-21.698
			C442.631,485.012,452.346,475.298,464.329,475.298"/>
		<path clip-path="url(#SVGID_10_)" fill="#C194A3" d="M500.526,506.265h12.149c3.248,0,5.882-2.634,5.882-5.883v-1.217
			c0-3.248-2.634-5.882-5.882-5.882h-12.149c-3.249,0-5.882,2.634-5.882,5.882v1.217
			C494.644,503.631,497.277,506.265,500.526,506.265"/>
		<path clip-path="url(#SVGID_10_)" fill="#C194A3" d="M478.308,499.709c0,3.417,2.771,6.188,6.188,6.188
			c3.418,0,6.188-2.771,6.188-6.188c0-3.418-2.77-6.188-6.188-6.188C481.079,493.521,478.308,496.291,478.308,499.709"/>
		<path clip-path="url(#SVGID_10_)" fill="#C194A3" d="M516.283,468.707c-2.656,2.151-3.064,6.049-0.913,8.704
			c2.152,2.655,6.048,3.063,8.704,0.912c2.655-2.151,3.064-6.048,0.913-8.703C522.835,466.965,518.938,466.556,516.283,468.707"/>
		<rect x="152.243" y="490.234" clip-path="url(#SVGID_10_)" fill="#C194A3" width="293.386" height="6.097"/>
		<path clip-path="url(#SVGID_10_)" fill="#F9E6EC" d="M363.97,467.429c4.04,1.229,7.455,3.532,10.037,6.498
			c2.517-4.906,8.248-7.47,13.709-5.809c1.135,0.346,2.178,0.851,3.113,1.48c8.459-8.433,21.165-12.056,33.391-8.337
			c17.686,5.378,27.662,24.074,22.284,41.76c-5.379,17.685-24.076,27.661-41.76,22.283l-53.401-16.357
			c-11.465-3.486-17.933-15.607-14.446-27.072C340.384,470.409,352.505,463.941,363.97,467.429"/>
		<path clip-path="url(#SVGID_10_)" fill="#F9E6EC" d="M223.975,471.865c-4.271,0.728-8.051,2.599-11.072,5.229
			c-1.902-5.18-7.385-8.425-13.159-7.441c-1.2,0.204-2.328,0.579-3.363,1.091c-7.471-9.408-19.903-14.558-32.828-12.356
			c-18.697,3.184-31.337,20.537-28.234,38.759c3.103,18.223,20.775,30.414,39.471,27.23l56.47-9.729
			c12.121-2.064,20.316-13.314,18.304-25.128C247.553,477.705,236.096,469.801,223.975,471.865"/>
		<path clip-path="url(#SVGID_10_)" fill="#C194A3" d="M358.64,487.876c0,2.417-1.959,4.376-4.375,4.376
			c-2.417,0-4.376-1.959-4.376-4.376c0-2.416,1.959-4.376,4.376-4.376C356.681,483.5,358.64,485.46,358.64,487.876"/>
		<path clip-path="url(#SVGID_10_)" fill="#C194A3" d="M417.53,473.516c0,2.416-1.959,4.375-4.376,4.375
			c-2.416,0-4.375-1.959-4.375-4.375c0-2.417,1.959-4.376,4.375-4.376C415.571,469.14,417.53,471.099,417.53,473.516"/>
		<path clip-path="url(#SVGID_10_)" fill="#C194A3" d="M395.412,515.663h14.898c2.49,0,4.508-2.019,4.508-4.508
			c0-2.49-2.018-4.508-4.508-4.508h-14.898c-2.489,0-4.508,2.018-4.508,4.508C390.904,513.645,392.923,515.663,395.412,515.663"/>
		<path clip-path="url(#SVGID_10_)" fill="#C194A3" d="M204.326,485.383c0,2.416-1.959,4.375-4.376,4.375
			c-2.416,0-4.375-1.959-4.375-4.375c0-2.417,1.959-4.376,4.375-4.376C202.367,481.007,204.326,482.966,204.326,485.383"/>
		<path clip-path="url(#SVGID_10_)" fill="#C194A3" d="M142.252,514.43c0,2.417-1.959,4.376-4.375,4.376
			c-2.417,0-4.376-1.959-4.376-4.376c0-2.416,1.959-4.375,4.376-4.375C140.293,510.055,142.252,512.014,142.252,514.43"/>
		<path clip-path="url(#SVGID_10_)" fill="#C194A3" d="M160.42,489.891h14.898c2.49,0,4.508-2.019,4.508-4.508
			c0-2.49-2.018-4.508-4.508-4.508H160.42c-2.489,0-4.508,2.018-4.508,4.508C155.912,487.872,157.931,489.891,160.42,489.891"/>
		<path clip-path="url(#SVGID_10_)" fill="#C194A3" d="M226.227,531.81h14.897c2.49,0,4.509-2.018,4.509-4.508
			c0-2.489-2.019-4.508-4.509-4.508h-14.897c-2.49,0-4.508,2.019-4.508,4.508C221.719,529.792,223.736,531.81,226.227,531.81"/>
		<path clip-path="url(#SVGID_10_)" fill="#C194A3" d="M266.052,527.302c0,2.417-1.959,4.376-4.375,4.376
			c-2.417,0-4.376-1.959-4.376-4.376c0-2.416,1.959-4.375,4.376-4.375C264.093,522.927,266.052,524.886,266.052,527.302"/>
		<path clip-path="url(#SVGID_10_)" fill="#6FBEAB" d="M453.047,88.764c-2.46-1.013-4.779-2.281-6.777-4.229
			c-2.127-2.073-3.427-4.552-4.47-7.177c-1.117-2.816-5.108-2.821-6.236-0.009c-1.045,2.604-2.346,5.069-4.446,7.159
			c-1.971,1.961-4.278,3.205-6.742,4.224c-1.431,0.592-2.113,1.95-2.046,3.274c-0.067,1.324,0.615,2.682,2.046,3.274
			c2.464,1.02,4.771,2.263,6.742,4.225c2.1,2.09,3.401,4.554,4.446,7.158c1.128,2.812,5.119,2.807,6.236-0.008
			c1.043-2.626,2.343-5.104,4.47-7.178c1.998-1.947,4.317-3.215,6.777-4.229c1.447-0.595,2.139-1.931,2.092-3.242
			C455.187,90.696,454.494,89.36,453.047,88.764"/>
		<path clip-path="url(#SVGID_10_)" fill="#F5C600" d="M96.538,234.354c2.747,1.8,7.482,2.255,10.522,1.012
			c3.04-1.242,4.821,0.333,3.958,3.502c-0.862,3.169,0.168,7.813,2.29,10.32c2.121,2.507,1.172,4.688-2.108,4.847
			c-3.28,0.159-7.379,2.573-9.107,5.365c-1.729,2.793-4.097,2.565-5.262-0.505c-1.165-3.071-4.727-6.223-7.917-7.004
			c-3.189-0.782-3.705-3.104-1.144-5.16c2.56-2.057,4.457-6.419,4.214-9.694C91.742,233.762,93.791,232.554,96.538,234.354"/>
		<path clip-path="url(#SVGID_10_)" fill="#D60064" d="M176.11,74.105c-0.879-0.284-1.543-1.008-1.753-1.913
			c-0.082-0.359-2.009-8.911-0.065-14.87c2.823-8.753,7.726-8.218,9.706-7.582c1.437,0.464,2.576,1.353,3.329,2.574
			c0.325,0.526,0.578,1.115,0.752,1.759c0.537,1.993,0.32,4.438-0.661,7.479c-1.931,5.979-8.487,11.784-8.766,12.029
			C177.957,74.19,176.991,74.39,176.11,74.105"/>
		<path clip-path="url(#SVGID_10_)" fill="#F5C600" d="M168.833,78.55c-0.142,0.44-0.504,0.772-0.956,0.877
			c-0.18,0.04-4.456,1.004-7.435,0.032c-4.377-1.411-4.109-3.863-3.792-4.852c0.233-0.72,0.677-1.289,1.288-1.665
			c0.263-0.163,0.557-0.289,0.879-0.376c0.996-0.268,2.22-0.161,3.74,0.33c2.988,0.966,5.892,4.244,6.014,4.383
			C168.876,77.627,168.977,78.11,168.833,78.55"/>
		<path clip-path="url(#SVGID_10_)" fill="#FFFFFF" d="M481.49,287.275c0.736,0.559,1.71,0.689,2.572,0.344
			c0.342-0.139,8.457-3.454,12.231-8.458c5.562-7.325,2.318-11.039,0.663-12.299c-1.204-0.913-2.585-1.338-4.017-1.257
			c-0.617,0.035-1.245,0.165-1.872,0.391c-1.942,0.7-3.824,2.277-5.755,4.822c-3.797,5.004-4.806,13.704-4.847,14.072
			C480.363,285.81,480.75,286.716,481.49,287.275"/>
		<path clip-path="url(#SVGID_10_)" fill="#6FBFAC" d="M485.936,296.341c-0.083,0.498,0.103,1.003,0.489,1.331
			c0.155,0.13,3.825,3.208,7.206,3.757c4.959,0.822,5.928-1.691,6.115-2.813c0.134-0.814-0.012-1.591-0.416-2.263
			c-0.175-0.289-0.397-0.56-0.666-0.805c-0.834-0.761-2.076-1.269-3.799-1.554c-3.387-0.56-7.849,1.17-8.037,1.244
			C486.356,295.423,486.018,295.842,485.936,296.341"/>
		<path clip-path="url(#SVGID_10_)" fill="#FFFFFF" d="M115.979,220.952c-0.337,0.425-0.871,0.641-1.411,0.57
			c-0.214-0.028-5.306-0.726-8.179-3.017c-4.228-3.348-2.928-5.931-2.172-6.888c0.551-0.694,1.273-1.137,2.098-1.3
			c0.355-0.07,0.731-0.088,1.12-0.052c1.205,0.115,2.503,0.736,3.972,1.899c2.886,2.288,4.729,7.081,4.806,7.285
			C116.405,219.956,116.316,220.527,115.979,220.952"/>
		<path clip-path="url(#SVGID_10_)" fill="#D60064" d="M443.767,116.859c-0.053-0.459,0.139-0.912,0.507-1.194
			c0.146-0.112,3.638-2.762,6.752-3.113c4.568-0.53,5.341,1.811,5.462,2.844c0.087,0.75-0.081,1.453-0.481,2.048
			c-0.172,0.257-0.387,0.495-0.644,0.707c-0.796,0.658-1.953,1.066-3.54,1.25c-3.12,0.361-7.121-1.418-7.29-1.494
			C444.111,117.716,443.82,117.319,443.767,116.859"/>
	</g>
</g>
</svg>
