<svg width="290" height="661" viewBox="0 0 290 661" fill="none" xmlns="http://www.w3.org/2000/svg">
<path d="M191.59 614.717C191.59 611.366 189.373 607.013 186.663 605.042L168.567 591.881C167.197 590.885 165.548 590.349 163.856 590.349C160.192 590.349 156.99 592.826 156.093 596.378L155.127 598.38C149.801 609.41 150.161 622.339 156.093 633.056L157.288 635.214C158.61 637.603 161.125 639.085 163.855 639.085C165.547 639.085 167.196 638.549 168.566 637.553L186.662 624.392C189.373 622.421 191.59 618.067 191.59 614.717Z" fill="#F06EA9"/>
<path d="M209.356 614.717C209.356 611.366 211.574 607.013 214.283 605.042L232.379 591.881C233.749 590.885 235.399 590.349 237.09 590.349C240.754 590.349 243.957 592.826 244.854 596.378L245.82 598.38C251.146 609.41 250.786 622.339 244.854 633.056L243.659 635.214C242.336 637.603 239.822 639.085 237.091 639.085C235.4 639.085 233.75 638.549 232.38 637.553L214.284 624.392C211.574 622.421 209.356 618.067 209.356 614.717Z" fill="#F06EA9"/>
<path d="M207.164 614.717C207.164 618.412 204.169 621.407 200.474 621.407C196.779 621.407 193.784 618.412 193.784 614.717C193.784 611.022 196.779 608.027 200.474 608.027C204.169 608.027 207.164 611.021 207.164 614.717Z" fill="#F06EA9"/>
<path d="M79.2669 614.717C79.2669 611.366 77.0499 607.013 74.3399 605.042L56.243 591.881C54.875 590.885 53.2249 590.349 51.5329 590.349C47.8689 590.349 44.666 592.826 43.77 596.378L42.8029 598.38C37.4769 609.41 37.837 622.339 43.77 633.056L44.9649 635.214C46.2859 637.603 48.802 639.085 51.532 639.085C53.224 639.085 54.8739 638.549 56.2419 637.553L74.339 624.392C77.05 622.421 79.2669 618.067 79.2669 614.717Z" fill="#F06EA9"/>
<path d="M97.033 614.717C97.033 611.366 99.251 607.013 101.96 605.042L120.057 591.881C121.426 590.885 123.076 590.349 124.768 590.349C128.432 590.349 131.634 592.826 132.53 596.378L133.497 598.38C138.823 609.41 138.463 622.339 132.53 633.056L131.336 635.214C130.013 637.603 127.499 639.085 124.769 639.085C123.077 639.085 121.427 638.549 120.058 637.553L101.961 624.392C99.2511 622.421 97.033 618.067 97.033 614.717Z" fill="#F06EA9"/>
<path d="M94.8409 614.717C94.8409 618.412 91.845 621.407 88.151 621.407C84.456 621.407 81.4611 618.412 81.4611 614.717C81.4611 611.022 84.456 608.027 88.151 608.027C91.845 608.026 94.8409 611.021 94.8409 614.717Z" fill="#F06EA9"/>
<path d="M200.565 557.227C211.587 557.247 220.623 548.242 220.642 537.218L220.895 388.23C220.914 377.207 211.91 368.171 200.886 368.153C189.862 368.135 180.827 377.138 180.809 388.163L180.555 537.15C180.537 548.173 189.541 557.208 200.565 557.227Z" fill="#FDD0A6"/>
<path d="M200.565 643.012C211.587 643.032 220.623 634.028 220.642 623.003L220.895 474.015C220.914 462.991 211.91 453.957 200.886 453.938C189.863 453.919 180.827 462.923 180.809 473.948L180.555 622.935C180.537 633.959 189.541 642.993 200.565 643.012Z" fill="#FFD930"/>
<path d="M201.001 486.638C206.503 486.876 213.374 492.395 213.13 497.919C213.093 498.756 212.733 499.528 212.115 500.094C211.496 500.66 210.695 500.951 209.859 500.914C209.703 500.908 209.55 500.889 209.403 500.859C208.07 500.596 207.078 499.452 206.875 497.88C206.333 493.722 202.631 492.467 200.748 492.38L200.556 492.372C198.673 492.288 194.874 493.213 193.969 497.31C193.59 499.03 192.287 500.139 190.729 500.07C190.567 500.063 190.409 500.044 190.253 500.013C189.602 499.884 189.011 499.553 188.554 499.054C187.989 498.437 187.697 497.635 187.733 496.798C187.978 491.275 195.307 486.386 200.809 486.628L200.999 486.637" fill="#EBB530"/>
<path d="M201.422 518.242C206.925 518.48 213.795 523.999 213.552 529.523C213.515 530.361 213.155 531.133 212.536 531.699C211.918 532.265 211.117 532.555 210.281 532.518C210.125 532.511 209.972 532.494 209.825 532.464C208.491 532.201 207.5 531.056 207.296 529.485C206.755 525.327 203.052 524.072 201.17 523.986L200.978 523.977C199.095 523.894 195.295 524.818 194.391 528.915C194.012 530.636 192.709 531.744 191.151 531.675C190.989 531.668 190.831 531.65 190.674 531.618C190.023 531.49 189.432 531.158 188.975 530.66C188.41 530.042 188.119 529.24 188.155 528.403C188.4 522.88 195.729 517.992 201.23 518.234L201.422 518.242Z" fill="#EBB530"/>
<path d="M201.511 551.533C207.014 551.771 213.884 557.29 213.641 562.814C213.604 563.651 213.243 564.423 212.625 564.989C212.007 565.555 211.206 565.846 210.369 565.809C210.214 565.802 210.061 565.784 209.914 565.754C208.581 565.491 207.589 564.346 207.385 562.775C206.844 558.617 203.142 557.362 201.259 557.275L201.067 557.267C199.184 557.183 195.384 558.108 194.48 562.205C194.101 563.925 192.798 565.034 191.24 564.965C191.079 564.958 190.92 564.939 190.763 564.908C190.112 564.779 189.522 564.448 189.064 563.949C188.499 563.332 188.208 562.53 188.245 561.693C188.489 556.17 195.818 551.281 201.319 551.523L201.511 551.533Z" fill="#EBB530"/>
<path d="M201.742 587.653C207.245 587.891 214.115 593.41 213.872 598.934C213.835 599.772 213.475 600.543 212.856 601.11C212.238 601.675 211.437 601.966 210.601 601.929C210.445 601.922 210.292 601.904 210.145 601.875C208.812 601.611 207.82 600.467 207.616 598.896C207.075 594.738 203.373 593.483 201.49 593.396V593.397L201.298 593.388C199.415 593.305 195.615 594.229 194.711 598.326C194.332 600.047 193.029 601.155 191.471 601.086C191.309 601.079 191.151 601.06 190.994 601.029C190.343 600.9 189.752 600.569 189.295 600.071C188.73 599.453 188.439 598.651 188.475 597.814C188.72 592.291 196.049 587.402 201.55 587.644L201.742 587.653Z" fill="#EBB530"/>
<path d="M167.755 660.688C163.402 660.705 160.111 656.721 160.976 652.456C164.718 633.983 181.011 620.045 200.598 619.968C220.186 619.891 236.588 633.7 240.476 652.143C241.373 656.402 238.114 660.412 233.761 660.428L167.755 660.688Z" fill="#EE458F"/>
<path d="M88.574 557.227C77.55 557.247 68.515 548.242 68.497 537.218L68.2431 388.23C68.2241 377.207 77.228 368.171 88.252 368.153C99.276 368.135 108.311 377.138 108.329 388.163L108.583 537.15C108.602 548.173 99.598 557.208 88.574 557.227Z" fill="#FDD0A6"/>
<path d="M88.574 643.012C77.55 643.032 68.515 634.028 68.497 623.003L68.2431 474.015C68.2241 462.991 77.228 453.957 88.252 453.938C99.275 453.919 108.311 462.923 108.329 473.948L108.583 622.935C108.602 633.959 99.598 642.993 88.574 643.012Z" fill="#FFD930"/>
<path d="M88.1379 486.638C82.6359 486.876 75.765 492.395 76.009 497.919C76.046 498.756 76.406 499.528 77.024 500.094C77.643 500.66 78.444 500.951 79.28 500.914C79.436 500.908 79.5889 500.889 79.7359 500.859C81.0689 500.596 82.061 499.452 82.265 497.88C82.806 493.722 86.508 492.467 88.391 492.38L88.583 492.372C90.466 492.288 94.266 493.213 95.17 497.31C95.549 499.03 96.852 500.139 98.41 500.07C98.571 500.063 98.7299 500.044 98.8869 500.013C99.5369 499.884 100.128 499.553 100.585 499.054C101.151 498.437 101.442 497.635 101.405 496.798C101.16 491.275 93.832 486.386 88.331 486.628L88.14 486.637" fill="#EBB530"/>
<path d="M87.7171 518.242C82.2151 518.48 75.3441 523.999 75.5871 529.523C75.6241 530.361 75.9841 531.133 76.6031 531.699C77.2211 532.265 78.0221 532.555 78.8591 532.518C79.0141 532.511 79.167 532.494 79.314 532.464C80.648 532.201 81.6391 531.056 81.8431 529.485C82.3851 525.327 86.087 524.072 87.969 523.986L88.1611 523.977C90.0441 523.894 93.8441 524.818 94.7481 528.915C95.1271 530.636 96.4301 531.744 97.9881 531.675C98.1491 531.668 98.308 531.65 98.465 531.618C99.115 531.49 99.707 531.158 100.164 530.66C100.729 530.042 101.02 529.24 100.983 528.403C100.74 522.88 93.41 517.992 87.908 518.234L87.7171 518.242Z" fill="#EBB530"/>
<path d="M87.6281 551.533C82.1251 551.771 75.2551 557.29 75.4981 562.814C75.5351 563.651 75.8951 564.423 76.5141 564.989C77.1321 565.555 77.9331 565.846 78.7691 565.809C78.9251 565.802 79.078 565.784 79.225 565.754C80.559 565.491 81.5501 564.346 81.7541 562.775C82.2951 558.617 85.997 557.362 87.88 557.275L88.0721 557.267C89.9551 557.183 93.7551 558.108 94.6591 562.205C95.0381 563.925 96.341 565.034 97.898 564.965C98.06 564.958 98.219 564.939 98.376 564.908C99.027 564.779 99.618 564.448 100.075 563.949C100.64 563.332 100.931 562.53 100.894 561.693C100.65 556.17 93.321 551.281 87.82 551.523L87.6281 551.533Z" fill="#EBB530"/>
<path d="M87.396 587.653C81.894 587.891 75.023 593.41 75.266 598.934C75.303 599.772 75.663 600.543 76.282 601.11C76.9 601.675 77.701 601.966 78.537 601.929C78.693 601.922 78.8461 601.904 78.9931 601.875C80.3271 601.611 81.318 600.467 81.522 598.896C82.064 594.738 85.766 593.483 87.648 593.396V593.397L87.84 593.388C89.723 593.305 93.523 594.229 94.427 598.326C94.806 600.047 96.109 601.155 97.667 601.086C97.828 601.079 97.9871 601.06 98.1441 601.029C98.7941 600.9 99.3861 600.569 99.8431 600.071C100.408 599.453 100.699 598.651 100.662 597.814C100.419 592.291 93.0891 587.402 87.5871 587.644L87.396 587.653Z" fill="#EBB530"/>
<path d="M121.384 660.688C125.736 660.705 129.028 656.721 128.163 652.456C124.421 633.983 108.128 620.045 88.541 619.968C68.953 619.891 52.552 633.7 48.663 652.143C47.766 656.402 51.0251 660.412 55.3781 660.428L121.384 660.688Z" fill="#EE458F"/>
<path d="M65.446 299.231C73.761 300.328 81.462 294.422 82.558 286.107L93.899 200.153C94.996 191.838 89.09 184.138 80.775 183.041C72.461 181.944 64.759 187.849 63.663 196.164L52.323 282.119C51.227 290.433 57.132 298.134 65.446 299.231Z" fill="#F064A5"/>
<path d="M58.921 233.707L88.793 237.621C88.927 237.639 89.05 237.544 89.066 237.41L90.715 224.83C90.732 224.696 90.638 224.573 90.504 224.555L60.631 220.641C60.497 220.624 60.374 220.718 60.357 220.853L58.709 233.432C58.691 233.566 58.786 233.689 58.921 233.707Z" fill="#E53D86"/>
<path d="M118.391 203.705C118.391 221.429 104.023 235.797 86.298 235.797C68.574 235.797 54.205 221.429 54.205 203.705C54.205 185.981 68.574 171.613 86.298 171.613C104.022 171.613 118.391 185.98 118.391 203.705Z" fill="#EF5099"/>
<path d="M144.793 157.417C149.318 157.417 153.022 161.12 153.022 165.646V173.875C153.022 178.4 149.319 182.104 144.793 182.104C140.267 182.104 136.564 178.4 136.564 173.875V165.646C136.564 161.121 140.268 157.417 144.793 157.417Z" fill="#E9BC9D"/>
<path d="M5.26404 401.196C5.26404 401.196 6.11794 400.624 7.66394 399.801L8.56995 393.196L5.26404 401.196Z" fill="#FFD930"/>
<path d="M257.065 331.766L208.926 289.49H146.284H144.741H82.1L33.9611 331.766L28.308 345.444L8.57104 393.196L7.66602 399.801C16.094 395.318 45.105 383.368 68.832 415.698C94.907 451.229 137.745 450.574 143.731 450.3C144.266 450.276 144.801 450.26 145.336 450.26H145.69C146.226 450.26 146.761 450.276 147.294 450.3C148.69 450.363 152.107 450.443 156.827 450.085C172.359 448.907 202.197 442.947 222.194 415.698C250.275 377.434 285.761 401.195 285.761 401.195L257.065 331.766Z" fill="#FFD930"/>
<path d="M282.595 393.196L262.858 345.443C262.278 345.453 261.695 345.487 261.107 345.568C253.03 346.675 247.325 354.189 248.433 362.266L250.094 374.391C250.069 374.365 250.055 374.35 250.055 374.35C250.055 374.35 248.896 386.233 238.15 381.488C237.264 380.999 235.612 379.878 234.215 377.693C234.054 377.442 233.865 377.264 233.667 377.118L225.707 366.849C221.686 361.661 214.153 360.708 208.967 364.728C203.78 368.749 202.824 376.281 206.846 381.468L209.578 384.992C211.766 388.954 211.807 392.721 211.761 393.849C211.201 398.041 209.037 402.444 202.03 400.382C201.542 400.164 199.109 398.974 198.177 396.671L196.156 390.283C194.176 384.026 187.436 380.527 181.179 382.507C174.922 384.488 171.424 391.228 173.405 397.485L175.909 405.398C176.023 406.039 176.713 410.242 175.759 412.983C175.649 413.245 175.529 413.509 175.4 413.776C175.328 413.907 175.258 414.039 175.174 414.156C175.05 414.331 174.98 414.497 174.946 414.657C172.942 418.282 169.18 421.741 162.429 418.755C160.974 418.025 158.252 416.028 158.252 411.276C158.252 411.014 158.223 410.797 158.201 410.568V404.765C158.201 398.202 152.832 392.833 146.269 392.833C146.037 392.833 145.811 392.854 145.582 392.868C145.353 392.854 145.127 392.833 144.895 392.833C138.332 392.833 132.963 398.202 132.963 404.765V410.568C132.941 410.797 132.911 411.014 132.911 411.276C132.911 416.028 130.189 418.024 128.735 418.755C121.983 421.741 118.221 418.282 116.217 414.657C116.185 414.497 116.113 414.331 115.989 414.156C115.905 414.039 115.836 413.907 115.763 413.776C115.635 413.509 115.514 413.245 115.405 412.983C114.45 410.242 115.139 406.039 115.254 405.398L117.759 397.485C119.739 391.228 116.239 384.489 109.984 382.507C103.728 380.528 96.9881 384.027 95.0081 390.283L92.986 396.671C92.055 398.974 89.6231 400.164 89.1331 400.382C82.1251 402.444 79.96 398.041 79.403 393.849C79.356 392.721 79.396 388.953 81.585 384.992L84.317 381.468C88.338 376.28 87.383 368.748 82.197 364.728C77.009 360.708 69.4761 361.662 65.4561 366.849L57.4969 377.118C57.2979 377.264 57.109 377.442 56.949 377.693C55.553 379.878 53.8999 380.999 53.0129 381.488C42.2669 386.233 41.108 374.35 41.108 374.35C41.108 374.35 41.094 374.365 41.069 374.391L42.73 362.266C43.837 354.189 38.134 346.675 30.056 345.568C29.468 345.487 28.8851 345.453 28.3051 345.443L8.56799 393.196L7.66296 399.801C16.091 395.318 45.102 383.368 68.829 415.698C92.694 448.218 130.581 450.425 141.425 450.353C141.612 450.353 141.774 450.35 141.946 450.348C142.034 450.347 142.134 450.347 142.217 450.345C142.909 450.335 143.477 450.317 143.868 450.299C144.403 450.275 144.938 450.259 145.473 450.259H145.689C146.225 450.259 146.76 450.275 147.294 450.299C147.686 450.317 148.252 450.335 148.945 450.345C149.029 450.347 149.128 450.347 149.216 450.348C149.388 450.35 149.55 450.353 149.737 450.353C160.581 450.424 198.468 448.217 222.333 415.698C246.06 383.368 275.071 395.317 283.499 399.801L282.595 393.196Z" fill="#F280B3"/>
<path d="M229.995 124.708C229.995 144.136 214.246 159.886 194.817 159.886C175.388 159.886 159.638 144.136 159.638 124.708C159.638 105.28 175.388 89.53 194.817 89.53C214.246 89.53 229.995 105.28 229.995 124.708Z" fill="#EE458F"/>
<path d="M193.172 153.612C193.172 161.849 186.494 168.527 178.257 168.527C170.02 168.527 163.342 161.849 163.342 153.612C163.342 145.375 170.02 138.697 178.257 138.697C186.494 138.697 193.172 145.375 193.172 153.612Z" fill="#EE458F"/>
<path d="M158.405 86.135C158.405 106.757 141.687 123.473 121.066 123.473C100.445 123.473 83.728 106.757 83.728 86.135C83.728 65.514 100.445 48.797 121.066 48.797C141.687 48.797 158.405 65.514 158.405 86.135Z" fill="#E13F8D"/>
<path d="M59.6591 124.708C59.6591 144.136 75.409 159.886 94.837 159.886C114.266 159.886 130.016 144.136 130.016 124.708C130.016 105.28 114.266 89.53 94.837 89.53C75.409 89.53 59.6591 105.28 59.6591 124.708Z" fill="#E13F8D"/>
<path d="M96.483 153.612C96.483 161.849 103.16 168.527 111.397 168.527C119.634 168.527 126.312 161.849 126.312 153.612C126.312 145.375 119.634 138.697 111.397 138.697C103.16 138.697 96.483 145.375 96.483 153.612Z" fill="#E13F8D"/>
<path d="M102.214 111.549C94.549 111.549 88.335 117.763 88.335 125.427C88.335 133.092 94.549 139.306 102.214 139.306V111.549Z" fill="#E9BC9D"/>
<path d="M187.728 139.307C195.393 139.307 201.607 133.093 201.607 125.428C201.607 117.764 195.393 111.55 187.728 111.55V139.307Z" fill="#E9BC9D"/>
<path d="M190.122 123.513C190.122 148.622 169.767 168.977 144.657 168.977C119.547 168.977 99.193 148.622 99.193 123.513C99.193 98.404 119.547 78.049 144.657 78.049C169.767 78.049 190.122 98.404 190.122 123.513Z" fill="#FDD0A6"/>
<path d="M118.666 2.41002C127.017 -0.943978 133.547 0.326022 136.235 1.14502C137.036 1.38902 137.583 2.11701 137.605 2.95401C137.792 9.48301 138.558 37.88 137.906 38.387L125.304 40.95C124.505 40.738 114.118 14.298 111.739 8.21501C111.434 7.43501 111.653 6.55203 112.295 6.01403C114.449 4.21103 119.965 0.490012 128.962 0.316012" fill="#E13F8D"/>
<path d="M138.173 31.159C129.697 28.72 122.248 34.362 122.248 34.362L122.995 36.313C123.349 37.238 123.757 38.142 124.215 39.02L124.668 40.303L138.026 37.585L138.111 36.456L138.171 34.347L138.173 31.159Z" fill="#FFD930"/>
<path d="M151.415 37.896L113.788 45.549C112.684 45.773 111.599 45.054 111.374 43.951C111.148 42.848 111.868 41.762 112.972 41.537L150.599 33.884C151.703 33.66 152.788 34.378 153.013 35.482C153.237 36.585 152.519 37.671 151.415 37.896Z" fill="#EF5099"/>
<path d="M143.832 23.794C145.191 21.741 147.957 21.178 150.011 22.537C152.063 23.896 152.626 26.662 151.268 28.715C149.909 30.769 145.895 33.214 143.842 31.855C141.789 30.496 142.473 25.848 143.832 23.794Z" fill="#FFD930"/>
<path d="M119.43 107.638C119.222 107.638 119.011 107.592 118.811 107.494C118.113 107.152 117.823 106.307 118.165 105.608C120.42 101.003 126.039 99.013 130.693 101.175C131.399 101.502 131.705 102.341 131.378 103.047C131.049 103.753 130.209 104.059 129.505 103.731C126.233 102.211 122.282 103.611 120.697 106.848C120.451 107.348 119.951 107.638 119.43 107.638Z" fill="#020202"/>
<path d="M163.002 137.039C163.002 145.12 154.958 152.244 145.035 152.244C135.113 152.244 127.068 145.12 127.068 137.039C138.585 135.145 150.441 135.091 161.982 136.881L163.002 137.039Z" fill="white"/>
<path d="M168.486 124.943C167.965 124.943 167.445 124.744 167.05 124.345C164.392 121.666 160.002 121.599 157.268 124.201C156.459 124.971 155.179 124.939 154.409 124.13C153.64 123.32 153.672 122.041 154.48 121.271C158.797 117.163 165.723 117.267 169.921 121.498C170.707 122.291 170.701 123.571 169.908 124.357C169.516 124.748 169 124.943 168.486 124.943Z" fill="#020202"/>
<path d="M132.948 123.731C132.427 123.731 131.907 123.532 131.511 123.133C128.854 120.454 124.464 120.387 121.73 122.989C120.921 123.759 119.641 123.727 118.871 122.918C118.102 122.108 118.134 120.829 118.942 120.059C123.259 115.952 130.185 116.055 134.382 120.286C135.169 121.079 135.163 122.359 134.37 123.145C133.978 123.536 133.462 123.731 132.948 123.731Z" fill="#020202"/>
<path d="M225.171 299.231C216.856 300.328 209.154 294.422 208.059 286.107L196.718 200.153C195.621 191.838 201.526 184.138 209.841 183.041C218.156 181.944 225.857 187.849 226.954 196.164L238.294 282.119C239.391 290.433 233.484 298.134 225.171 299.231Z" fill="#F064A5"/>
<path d="M231.696 233.707L201.824 237.621C201.69 237.639 201.567 237.544 201.55 237.41L199.902 224.83C199.885 224.696 199.979 224.573 200.113 224.555L229.985 220.641C230.12 220.624 230.243 220.718 230.26 220.853L231.908 233.432C231.925 233.566 231.831 233.689 231.696 233.707Z" fill="#E53D86"/>
<path d="M172.227 203.705C172.227 221.429 186.595 235.797 204.32 235.797C222.044 235.797 236.412 221.429 236.412 203.705C236.412 185.981 222.044 171.613 204.32 171.613C186.595 171.613 172.227 185.98 172.227 203.705Z" fill="#EF5099"/>
<path d="M145.033 178.195C88.254 169.966 75.2939 282.495 75.2939 282.495H214.773C214.772 282.495 201.812 169.966 145.033 178.195Z" fill="#FDD0A6"/>
<path d="M217.093 284.039C217.093 284.039 291.531 332.936 289.739 415.382C289.733 415.658 289.677 415.935 289.575 416.193C288.818 418.121 286.093 418.13 285.322 416.207L285.036 415.488C285.011 415.425 284.991 415.371 284.972 415.305C284.099 412.38 260.952 336.074 214.951 303.994C214.951 303.994 208.471 295.045 200.448 306.154C192.425 317.263 148.915 402.739 148.915 402.739L148.904 402.758C147.24 405.849 142.803 405.838 141.155 402.739C141.155 402.739 97.6449 317.262 89.6219 306.154C81.5989 295.045 75.119 303.994 75.119 303.994C29.117 336.074 5.97101 412.38 5.09701 415.305C5.07601 415.37 5.05802 415.424 5.03402 415.488L4.74496 416.207C3.97596 418.13 1.25101 418.121 0.493008 416.193C0.392008 415.935 0.337021 415.659 0.331021 415.382C-1.46398 332.936 72.9759 284.039 72.9759 284.039C72.9759 284.039 80.222 195.22 139.578 193.213H151.557C209.374 193.213 217.36 284.039 217.36 284.039" fill="#EF5099"/>
<path d="M170.373 263.214C174.778 267.619 174.778 274.762 170.373 279.167C165.968 283.573 158.827 283.573 154.421 279.167C150.016 274.762 145.976 263.58 150.381 259.174C154.787 254.769 165.968 258.808 170.373 263.214Z" fill="#FFD930"/>
<path d="M135.685 279.166C131.28 283.571 124.138 283.571 119.732 279.166C115.327 274.76 115.327 267.619 119.732 263.214C124.138 258.808 135.32 254.769 139.725 259.174C144.13 263.58 140.091 274.76 135.685 279.166Z" fill="#FFD930"/>
<path d="M119.605 244.349C115.153 239.897 115.153 232.678 119.605 228.226C124.057 223.773 131.273 223.773 135.727 228.226C140.178 232.678 144.262 243.979 139.81 248.432C135.358 252.884 124.058 248.802 119.605 244.349Z" fill="#FFD930"/>
<path d="M154.337 227.092C158.79 222.64 166.008 222.64 170.46 227.092C174.913 231.544 174.913 238.761 170.46 243.215C166.008 247.666 154.707 251.749 150.255 247.297C145.803 242.845 149.886 231.544 154.337 227.092Z" fill="#FFD930"/>
<path d="M54.617 292.332C59.318 299.277 68.847 301.113 75.792 296.412L130.979 259.052C137.924 254.351 139.759 244.823 135.057 237.877V237.876C130.357 230.932 120.828 229.096 113.882 233.797L58.6961 271.157C51.7511 275.858 49.915 285.387 54.617 292.332Z" fill="#FDD0A6"/>
<path d="M142.237 204.877L113.882 233.56L113.926 233.634C107.459 238.127 105.356 246.851 109.363 253.793C113.35 260.7 121.889 263.246 128.993 259.971L129.028 260.033L129.343 259.813C129.651 259.662 129.97 259.568 130.27 259.395C131.379 258.755 132.337 257.967 133.218 257.116L137.685 254.007C142.143 250.856 144.792 245.738 144.792 240.279V205.927C144.793 204.592 143.176 203.928 142.237 204.877Z" fill="#146694"/>
<path d="M207.99 336.789C205.229 335.964 203.685 333.031 204.567 330.288L234.443 237.338C234.92 235.856 236.494 235.027 237.985 235.473C239.47 235.916 240.332 237.463 239.926 238.96L214.426 333.205C213.673 335.997 210.762 337.618 207.99 336.789Z" fill="#F9C437"/>
<path d="M247.817 210.708L248.115 223.275C248.137 224.209 248.758 225.022 249.653 225.29L261.697 228.89C263.699 229.488 263.765 232.298 261.795 232.99L249.935 237.157C249.054 237.466 248.472 238.309 248.495 239.242L248.793 251.81C248.843 253.897 246.191 254.829 244.923 253.169L237.296 243.177C236.73 242.435 235.749 242.141 234.867 242.451L223.007 246.618C221.037 247.31 219.331 245.076 220.519 243.358L227.665 233.016C228.196 232.247 228.172 231.224 227.605 230.482L219.977 220.49C218.709 218.83 220.307 216.518 222.308 217.116L234.353 220.716C235.248 220.983 236.213 220.644 236.744 219.876L243.89 209.534C245.075 207.815 247.769 208.62 247.817 210.708Z" fill="#FFD930"/>
<path d="M236 292.332C231.299 299.277 221.77 301.113 214.824 296.412L159.638 259.052C152.693 254.351 150.857 244.823 155.559 237.877V237.876C160.26 230.932 169.789 229.096 176.735 233.797L231.921 271.157C238.866 275.858 240.702 285.387 236 292.332Z" fill="#FDD0A6"/>
<path d="M147.164 204.877L175.519 233.56L175.475 233.634C181.942 238.127 184.045 246.851 180.038 253.793C176.051 260.7 167.512 263.246 160.408 259.971L160.373 260.033L160.057 259.813C159.75 259.662 159.431 259.568 159.131 259.395C158.022 258.755 157.063 257.967 156.183 257.116L151.716 254.007C147.258 250.856 144.609 245.738 144.609 240.279V205.927C144.608 204.592 146.226 203.928 147.164 204.877Z" fill="#146694"/>
<path d="M144.793 205.927L144.701 241.993L144.793 205.927Z" stroke="#1C526E" stroke-width="1.085" stroke-miterlimit="10" stroke-linecap="round" stroke-linejoin="round"/>
<path d="M131.25 86.135C131.25 106.757 147.967 123.473 168.588 123.473C189.209 123.473 205.926 106.757 205.926 86.135C205.926 65.514 189.209 48.797 168.588 48.797C147.967 48.797 131.25 65.514 131.25 86.135Z" fill="#EF589E"/>
</svg>
