<svg width="269" height="453" viewBox="0 0 269 453" fill="none" xmlns="http://www.w3.org/2000/svg">
<g opacity="0.33">
<g opacity="0.33">
<path opacity="0.33" d="M39.3199 35.532L36.1679 35.097C35.4009 34.991 34.6929 35.527 34.5869 36.294L32.4699 51.616C32.3639 52.384 32.8999 53.092 33.6679 53.198L36.8199 53.633C37.5869 53.739 38.2949 53.203 38.4009 52.436L40.5179 37.114C40.6249 36.346 40.0869 35.638 39.3199 35.532Z" fill="#C1946F"/>
<path opacity="0.33" d="M12.0229 27.071L2.09894 35.385C-0.308063 37.4 -0.627062 41.019 1.38794 43.425L31.3699 79.216C33.3859 81.622 37.0039 81.942 39.4099 79.926L49.3349 71.612C51.7409 69.597 52.061 65.978 50.045 63.572L20.0639 27.781C18.0479 25.375 14.4299 25.055 12.0229 27.071Z" fill="#E5B37F"/>
<path opacity="0.33" d="M50.5029 90.97L37.2009 75.046C37.2049 75.046 37.2229 75.043 37.2229 75.043C37.2229 75.043 36.3719 74.083 36.2029 73.038C36.2029 73.034 36.2029 73.031 36.2019 73.027C36.1989 71.237 36.7679 67.816 41.1999 67.94C41.2039 67.94 41.2069 67.94 41.2099 67.941C41.2489 67.942 41.2909 67.947 41.3299 67.948C42.0019 68.008 43.4819 68.358 45.0009 70.177C45.0039 70.18 45.0079 70.182 45.0109 70.186L46.3479 71.787C48.1569 73.952 51.2879 74.656 53.7299 73.242C54.7649 72.643 55.5159 71.796 55.9929 70.839C56.0109 70.804 56.0519 70.792 56.0769 70.822C57.0439 71.98 72.5589 90.554 79.9589 99.413C83.9609 104.204 84.0019 111.337 79.7059 115.865C74.6229 121.223 66.0959 120.818 61.4979 115.313L48.8609 100.185C48.8379 100.158 48.8469 100.118 48.8779 100.103C49.6829 99.712 50.4279 99.14 51.0119 98.293C52.5459 96.067 52.2359 93.045 50.5029 90.97Z" fill="#EC2579"/>
<path opacity="0.33" d="M56.0129 70.798C55.5359 71.771 54.78 72.634 53.73 73.242C51.288 74.656 48.1579 73.953 46.3489 71.787L45.0109 70.185C45.0079 70.181 45.004 70.18 45.001 70.176C43.482 68.358 42.0019 68.008 41.3299 67.948C41.2909 67.946 41.2489 67.941 41.2099 67.94C41.2059 67.94 41.204 67.94 41.2 67.94C36.767 67.815 36.1989 71.237 36.2019 73.026C36.2029 73.03 36.2029 73.034 36.2029 73.038C36.3719 74.082 37.2229 75.042 37.2229 75.042C37.2229 75.042 37.2049 75.045 37.2009 75.046L50.5039 90.971C52.2369 93.045 52.5459 96.066 51.0119 98.292C50.4229 99.147 49.6699 99.722 48.8559 100.113C48.8329 100.124 48.8049 100.118 48.7889 100.098L27.9519 75.154C27.8379 75.017 27.7409 74.871 27.6329 74.73L27.591 74.766L21.8019 67.867C20.8119 66.688 20.9659 64.93 22.1449 63.94L36.536 51.863C37.715 50.874 39.473 51.027 40.463 52.206L46.252 59.105L46.251 59.106C46.383 59.25 46.5219 59.384 46.6489 59.536C46.6489 59.536 55.5089 70.142 56.0069 70.739C56.0219 70.756 56.0229 70.778 56.0129 70.798Z" fill="#FFCB1B"/>
<path opacity="0.33" d="M38.648 50.091L20.032 65.714C20.019 65.725 20.018 65.743 20.028 65.756L24.019 70.511C24.03 70.524 24.048 70.525 24.061 70.515L42.677 54.892C42.689 54.881 42.6909 54.863 42.6799 54.85L38.6889 50.095C38.6799 50.082 38.661 50.081 38.648 50.091Z" fill="#FEE092"/>
</g>
</g>
<g opacity="0.33">
<g opacity="0.33">
<path opacity="0.33" d="M73.112 29.658L70.415 27.97C69.758 27.559 68.893 27.758 68.482 28.414L60.274 41.525C59.863 42.181 60.062 43.047 60.719 43.458L63.416 45.146C64.073 45.557 64.938 45.358 65.349 44.702L73.557 31.591C73.968 30.935 73.769 30.069 73.112 29.658Z" fill="#C1946F"/>
<path opacity="0.33" d="M51.6769 10.757L39.2179 14.275C36.1969 15.129 34.4229 18.299 35.2759 21.32L47.9649 66.251C48.8179 69.272 51.9879 71.046 55.0089 70.193L67.4679 66.674C70.4889 65.821 72.2629 62.651 71.4099 59.63L58.7209 14.699C57.8679 11.678 54.6979 9.90399 51.6769 10.757Z" fill="#E5B37F"/>
<path opacity="0.33" d="M60.6039 84.813L54.9929 64.838C54.9959 64.839 55.0139 64.843 55.0139 64.843C55.0139 64.843 54.6309 63.619 54.9049 62.597C54.9059 62.593 54.9079 62.59 54.9089 62.586C55.6389 60.952 57.5589 58.064 61.5519 59.993C61.5549 59.995 61.5579 59.996 61.5609 59.998C61.5949 60.015 61.6319 60.036 61.6669 60.054C62.2559 60.384 63.4619 61.31 64.1029 63.59C64.1039 63.595 64.1069 63.598 64.1079 63.603L64.6719 65.611C65.4349 68.328 68.0029 70.252 70.8099 69.963C71.9999 69.84 73.0309 69.375 73.8589 68.697C73.8899 68.673 73.9319 68.679 73.9419 68.717C74.3499 70.169 80.8949 93.469 84.0169 104.582C85.7049 110.592 82.8199 117.115 77.0459 119.486C70.2139 122.292 62.6019 118.43 60.6619 111.523L55.3309 92.547C55.3219 92.513 55.3459 92.48 55.3809 92.479C56.2749 92.452 57.1879 92.236 58.0689 91.701C60.3789 90.298 61.3339 87.416 60.6039 84.813Z" fill="#EC2579"/>
<path opacity="0.33" d="M73.8929 68.668C73.0589 69.361 72.0159 69.837 70.8089 69.962C68.0029 70.252 65.4349 68.328 64.6719 65.611L64.1069 63.602C64.1059 63.597 64.1039 63.594 64.1019 63.589C63.4609 61.309 62.2549 60.383 61.6659 60.053C61.6309 60.035 61.5949 60.013 61.5599 59.997C61.5569 59.995 61.5539 59.994 61.5509 59.992C57.5579 58.063 55.6379 60.951 54.9079 62.585C54.9069 62.589 54.9059 62.592 54.9039 62.596C54.6299 63.618 55.0129 64.842 55.0129 64.842C55.0129 64.842 54.9949 64.838 54.9919 64.837L60.6039 84.814C61.3349 87.416 60.3789 90.298 58.0679 91.7C57.1799 92.239 56.2579 92.455 55.3559 92.479C55.3299 92.479 55.3069 92.462 55.2999 92.437L46.5099 61.147C46.4619 60.975 46.4329 60.802 46.3929 60.629L46.3399 60.645L43.8839 51.98C43.4649 50.499 44.3249 48.958 45.8059 48.538L63.8819 43.416C65.3629 42.996 66.9039 43.857 67.3229 45.338L69.7789 54.002L69.7769 54.003C69.8389 54.188 69.9109 54.368 69.9639 54.558C69.9639 54.558 73.7019 67.863 73.9119 68.612C73.9179 68.633 73.9099 68.654 73.8929 68.668Z" fill="#FFCB1B"/>
<path opacity="0.33" d="M66.5349 42.664L43.153 49.29C43.137 49.294 43.1279 49.311 43.1319 49.326L44.8249 55.299C44.8289 55.315 44.8459 55.324 44.8609 55.32L68.2439 48.694C68.2589 48.689 68.2679 48.673 68.2639 48.657L66.571 42.684C66.567 42.669 66.5509 42.66 66.5349 42.664Z" fill="#FEE092"/>
</g>
</g>
<path d="M165.992 230.751H192.082L206.037 285.965L182.149 361.013C181.922 361.727 181.258 362.212 180.509 362.212C179.707 362.212 179.011 361.657 178.831 360.876L162.151 288.268C162.032 287.747 161.57 287.38 161.037 287.38C160.504 287.38 160.042 287.747 159.923 288.268L143.243 360.876C143.063 361.657 142.367 362.212 141.565 362.212C140.815 362.212 140.152 361.727 139.925 361.013L116.037 285.965L129.992 230.751H156.082H165.992V230.751Z" fill="#CE1D5F"/>
<path d="M120.045 288.737L140.51 353.032C140.632 353.417 140.989 353.677 141.391 353.677C141.822 353.677 142.195 353.38 142.292 352.96L158.359 283.038C158.369 282.996 158.379 282.955 158.391 282.914L158.675 281.923C159.348 279.571 162.69 279.6 163.324 281.962L163.596 282.975L179.677 352.96C179.774 353.38 180.147 353.677 180.578 353.677C180.981 353.677 181.337 353.417 181.459 353.032L201.924 288.737" stroke="#F6AACB" stroke-width="0.866" stroke-miterlimit="10" stroke-linecap="round" stroke-linejoin="round"/>
<path d="M162.453 106.639H154.565V113.347H162.453V106.639Z" fill="#C1946F"/>
<path d="M189.526 237.594H127.026C119.24 237.594 113.098 230.972 113.683 223.207L118.531 152.785C118.531 130.834 136.491 112.874 158.441 112.874H158.442C180.392 112.874 198.352 130.834 198.352 152.785L202.875 223.275C203.418 231.016 197.285 237.594 189.526 237.594Z" fill="#E5B37F"/>
<path d="M201.186 190.559L203.313 223.714C203.544 227.007 202.559 230.083 200.763 232.538L220.236 332.165C221.381 338.024 217.524 343.755 211.666 344.899C205.807 346.044 200.077 342.188 198.932 336.329L179.719 238.032H137.71L118.497 336.329C117.352 342.188 111.622 346.044 105.764 344.899C99.9049 343.754 96.0489 338.024 97.1939 332.165L116.619 232.623C114.809 230.15 113.362 227.473 113.612 224.155L115.889 191.078L201.186 190.559Z" fill="#1B4374"/>
<path d="M92.5469 442.007L81.226 439.794C78.481 439.258 76.6729 436.572 77.2099 433.826L99.0299 322.188C99.5669 319.443 102.252 317.636 104.997 318.172L116.318 320.385C119.063 320.922 120.87 323.607 120.334 326.352L98.514 437.99C97.977 440.735 95.2919 442.544 92.5469 442.007Z" fill="#CC862A"/>
<path d="M92.5469 442.007L81.226 439.794C78.481 439.258 76.6729 436.572 77.2099 433.826L80.1239 418.918C80.6609 416.173 83.3459 414.365 86.0909 414.901L97.4119 417.114C100.157 417.651 101.964 420.337 101.428 423.081L98.514 437.99C97.977 440.735 95.2919 442.544 92.5469 442.007Z" fill="#EAB520"/>
<path d="M105.973 342.516C102.769 342.027 98.1729 344.431 97.6839 347.649C97.6099 348.137 97.7299 348.625 98.0219 349.021C98.3149 349.418 98.7449 349.677 99.2319 349.751C99.3219 349.765 99.4129 349.772 99.5009 349.772C100.301 349.772 101.004 349.223 101.301 348.339C102.087 346 104.368 345.696 105.465 345.86L105.577 345.878C106.673 346.045 108.762 347.011 108.818 349.48C108.841 350.516 109.467 351.305 110.375 351.443C110.469 351.458 110.563 351.464 110.656 351.464C111.047 351.464 111.426 351.34 111.747 351.104C112.144 350.812 112.403 350.382 112.477 349.895C112.965 346.677 109.29 343.02 106.085 342.534L105.973 342.516Z" fill="#FFCB1B"/>
<path d="M102.13 360.718C98.9259 360.229 94.3299 362.633 93.8409 365.851C93.7669 366.339 93.8869 366.827 94.1799 367.223C94.4719 367.62 94.9019 367.879 95.3889 367.953C95.4799 367.967 95.5699 367.974 95.6579 367.974C96.4579 367.974 97.1609 367.425 97.4579 366.541C98.2439 364.202 100.525 363.899 101.622 364.062L101.734 364.08C102.83 364.247 104.919 365.213 104.975 367.682C104.998 368.718 105.624 369.507 106.532 369.645C106.626 369.66 106.72 369.666 106.813 369.666C107.204 369.666 107.583 369.542 107.904 369.306C108.301 369.014 108.56 368.584 108.634 368.097C109.122 364.879 105.447 361.222 102.242 360.736L102.13 360.718Z" fill="#FFCB1B"/>
<path d="M98.288 379.932C95.084 379.443 90.488 381.847 89.999 385.065C89.925 385.553 90.045 386.041 90.338 386.437C90.63 386.834 91.06 387.093 91.547 387.167C91.638 387.181 91.728 387.188 91.816 387.188C92.616 387.188 93.319 386.639 93.616 385.755C94.402 383.416 96.683 383.112 97.78 383.276L97.892 383.294C98.988 383.461 101.077 384.427 101.133 386.896C101.156 387.932 101.782 388.721 102.69 388.859C102.784 388.874 102.878 388.88 102.971 388.88C103.362 388.88 103.741 388.756 104.062 388.52C104.459 388.228 104.718 387.798 104.792 387.31C105.28 384.093 101.605 380.436 98.4 379.949L98.288 379.932Z" fill="#FFCB1B"/>
<path d="M94.0409 400.764C90.8369 400.275 86.2409 402.678 85.7519 405.897C85.6779 406.384 85.7979 406.872 86.0899 407.269C86.3829 407.665 86.8129 407.924 87.2999 407.998C87.3909 408.013 87.4809 408.019 87.5689 408.019C88.3689 408.019 89.0719 407.47 89.3689 406.585C90.1549 404.246 92.4359 403.943 93.5329 404.107L93.6449 404.124C94.7409 404.291 96.8299 405.257 96.8859 407.727C96.9089 408.763 97.5349 409.551 98.4429 409.69C98.5369 409.704 98.6309 409.711 98.7239 409.711C99.1149 409.711 99.4939 409.587 99.8149 409.352C100.212 409.06 100.471 408.629 100.545 408.143C101.033 404.924 97.3579 401.268 94.1529 400.781L94.0409 400.764Z" fill="#FFCB1B"/>
<path d="M102.426 452.753C104.999 452.753 106.936 450.39 106.415 447.869C104.159 436.955 94.4939 428.753 82.9119 428.753C71.3309 428.753 61.6649 436.955 59.4089 447.869C58.8879 450.39 60.8249 452.753 63.3989 452.753H102.426Z" fill="#FFCB1B"/>
<path d="M224.746 442.007L236.067 439.794C238.812 439.258 240.62 436.572 240.083 433.826L218.263 322.188C217.726 319.443 215.041 317.636 212.296 318.172L200.975 320.385C198.23 320.922 196.423 323.607 196.959 326.352L218.779 437.99C219.316 440.735 222.001 442.544 224.746 442.007Z" fill="#CC862A"/>
<path d="M211.32 342.516C214.524 342.027 219.12 344.431 219.609 347.649C219.683 348.137 219.563 348.625 219.27 349.021C218.978 349.418 218.548 349.677 218.061 349.751C217.97 349.765 217.88 349.772 217.792 349.772C216.992 349.772 216.289 349.223 215.992 348.339C215.206 346 212.925 345.696 211.828 345.86L211.716 345.878C210.62 346.045 208.531 347.011 208.475 349.48C208.452 350.516 207.826 351.305 206.918 351.443C206.824 351.458 206.73 351.464 206.637 351.464C206.246 351.464 205.867 351.34 205.546 351.104C205.149 350.812 204.89 350.382 204.816 349.895C204.328 346.677 208.003 343.02 211.208 342.534L211.32 342.516Z" fill="#FFCB1B"/>
<path d="M215.163 360.718C218.367 360.229 222.963 362.633 223.452 365.851C223.526 366.339 223.406 366.827 223.113 367.223C222.821 367.62 222.391 367.879 221.904 367.953C221.813 367.967 221.723 367.974 221.635 367.974C220.835 367.974 220.132 367.425 219.835 366.541C219.049 364.202 216.768 363.899 215.671 364.062L215.559 364.08C214.463 364.247 212.374 365.213 212.318 367.682C212.295 368.718 211.669 369.507 210.761 369.645C210.667 369.66 210.573 369.666 210.48 369.666C210.089 369.666 209.71 369.542 209.389 369.306C208.992 369.014 208.733 368.584 208.659 368.097C208.171 364.879 211.846 361.222 215.051 360.736L215.163 360.718Z" fill="#FFCB1B"/>
<path d="M219.006 379.932C222.21 379.443 226.806 381.847 227.295 385.065C227.369 385.553 227.249 386.041 226.956 386.437C226.664 386.834 226.234 387.093 225.747 387.167C225.656 387.181 225.566 387.188 225.478 387.188C224.678 387.188 223.975 386.639 223.678 385.755C222.892 383.416 220.611 383.112 219.514 383.276L219.402 383.294C218.306 383.461 216.217 384.427 216.161 386.896C216.138 387.932 215.512 388.721 214.604 388.859C214.51 388.874 214.416 388.88 214.323 388.88C213.932 388.88 213.553 388.756 213.232 388.52C212.835 388.228 212.576 387.798 212.502 387.31C212.014 384.093 215.689 380.436 218.894 379.949L219.006 379.932Z" fill="#FFCB1B"/>
<path d="M223.253 400.764C226.457 400.275 231.053 402.678 231.542 405.897C231.616 406.384 231.496 406.872 231.204 407.269C230.911 407.665 230.481 407.924 229.994 407.998C229.904 408.013 229.813 408.019 229.725 408.019C228.925 408.019 228.222 407.47 227.925 406.585C227.139 404.246 224.858 403.943 223.761 404.107L223.649 404.124C222.553 404.291 220.464 405.257 220.408 407.727C220.385 408.763 219.759 409.551 218.851 409.69C218.757 409.704 218.663 409.711 218.57 409.711C218.179 409.711 217.8 409.587 217.479 409.352C217.082 409.06 216.823 408.629 216.749 408.143C216.261 404.924 219.936 401.268 223.141 400.781L223.253 400.764Z" fill="#FFCB1B"/>
<path d="M224.715 442.007L236.036 439.794C238.781 439.258 240.589 436.572 240.052 433.826L237.138 418.918C236.601 416.173 233.916 414.365 231.171 414.901L219.85 417.114C217.105 417.651 215.298 420.337 215.834 423.081L218.748 437.99C219.285 440.735 221.97 442.544 224.715 442.007Z" fill="#EAB520"/>
<path d="M214.867 452.753C212.294 452.753 210.357 450.39 210.878 447.869C213.134 436.955 222.799 428.753 234.381 428.753C245.962 428.753 255.628 436.955 257.884 447.869C258.405 450.39 256.468 452.753 253.894 452.753H214.867Z" fill="#FFCB1B"/>
<path d="M267.455 163.492L261.767 175.122C260.387 177.942 256.952 179.121 254.132 177.741L167.923 135.576C165.103 134.196 163.924 130.76 165.303 127.94L170.991 116.311C172.371 113.491 175.806 112.312 178.626 113.691L264.836 155.857C267.656 157.235 268.834 160.671 267.455 163.492Z" fill="#CE1D5F"/>
<path d="M233.486 177.135L217.275 190.085C217.278 190.086 217.295 190.092 217.295 190.092C217.295 190.092 216.27 190.864 215.896 191.853C215.895 191.857 215.894 191.861 215.893 191.864C215.533 193.617 215.407 197.083 219.776 197.846C219.779 197.846 219.782 197.847 219.786 197.848C219.824 197.854 219.866 197.858 219.905 197.864C220.575 197.939 222.095 197.891 223.946 196.413C223.95 196.41 223.954 196.409 223.958 196.406L225.588 195.104C227.792 193.343 231.001 193.278 233.111 195.15C234.006 195.944 234.572 196.924 234.85 197.957C234.86 197.995 234.898 198.014 234.928 197.99C236.107 197.048 255.016 181.943 264.035 174.738C268.912 170.842 270.375 163.861 267.068 158.566C263.157 152.302 254.721 150.998 249.116 155.475L233.715 167.778C233.688 167.8 233.688 167.84 233.716 167.861C234.427 168.405 235.042 169.114 235.445 170.061C236.505 172.548 235.599 175.448 233.486 177.135Z" fill="#EC2579"/>
<path d="M234.861 198C234.588 196.951 234.019 195.955 233.111 195.15C231.001 193.277 227.793 193.342 225.589 195.103L223.958 196.405C223.954 196.409 223.95 196.409 223.946 196.413C222.095 197.891 220.575 197.939 219.905 197.864C219.866 197.858 219.823 197.854 219.786 197.847C219.782 197.847 219.779 197.846 219.776 197.846C215.407 197.083 215.533 193.617 215.893 191.864C215.894 191.86 215.895 191.857 215.896 191.853C216.27 190.863 217.295 190.092 217.295 190.092C217.295 190.092 217.278 190.086 217.275 190.085L233.487 177.134C235.599 175.447 236.505 172.548 235.446 170.061C235.039 169.106 234.416 168.392 233.697 167.846C233.676 167.831 233.648 167.832 233.627 167.848L208.233 188.133C208.094 188.245 207.97 188.368 207.836 188.485L207.802 188.442L200.753 194.046C199.548 195.004 199.348 196.758 200.306 197.963L211.998 212.668C212.956 213.873 214.709 214.074 215.914 213.115L222.963 207.511V207.51C223.121 207.395 223.284 207.291 223.438 207.168C223.438 207.168 234.236 198.542 234.844 198.057C234.861 198.043 234.868 198.022 234.861 198Z" fill="#FFCB1B"/>
<path d="M213.715 214.827L198.59 195.805C198.58 195.792 198.582 195.774 198.595 195.764L203.454 191.9C203.467 191.89 203.486 191.892 203.496 191.905L218.621 210.928C218.631 210.94 218.629 210.959 218.616 210.969L213.756 214.833C213.744 214.842 213.725 214.84 213.715 214.827Z" fill="#FEE092"/>
<path d="M63.869 97.889L59.944 110.226C58.992 113.217 60.661 116.444 63.652 117.396L141.985 142.32C144.977 143.272 148.203 141.603 149.155 138.611L153.08 126.274C154.032 123.283 152.363 120.056 149.372 119.105L71.039 94.181C68.046 93.229 64.82 94.898 63.869 97.889Z" fill="#CE1D5F"/>
<path d="M57.1819 30.701L54.1929 29.611C53.4649 29.345 52.6599 29.72 52.3939 30.448L47.0949 44.98C46.8299 45.707 47.2049 46.513 47.9319 46.778L50.9219 47.868C51.6499 48.134 52.4549 47.759 52.7199 47.031L58.0189 32.5C58.2839 31.772 57.9089 30.966 57.1819 30.701Z" fill="#C1946F"/>
<path d="M32.282 16.675L20.828 22.709C18.051 24.173 16.975 27.642 18.439 30.42L40.2009 71.727C41.6639 74.504 45.134 75.579 47.911 74.116L59.3649 68.081C62.1429 66.618 63.218 63.148 61.754 60.371L39.992 19.064C38.529 16.288 35.059 15.212 32.282 16.675Z" fill="#E5B37F"/>
<path d="M56.4259 87.251L46.7799 68.881C46.7839 68.881 46.8019 68.882 46.8019 68.882C46.8019 68.882 46.1729 67.764 46.2279 66.708C46.2289 66.704 46.2289 66.7 46.2299 66.696C46.6029 64.946 47.8809 61.722 52.1869 62.778C52.1909 62.779 52.1939 62.779 52.1969 62.78C52.2349 62.789 52.2749 62.803 52.3129 62.813C52.9569 63.013 54.3299 63.667 55.4309 65.765C55.4339 65.769 55.4369 65.772 55.4389 65.776L56.4089 67.623C57.7209 70.121 60.6329 71.469 63.3179 70.602C64.4559 70.234 65.3679 69.564 66.0369 68.73C66.0609 68.699 66.1039 68.697 66.1219 68.731C66.8229 70.067 78.0739 91.494 83.4409 101.714C86.3419 107.241 84.8779 114.222 79.7239 117.743C73.6259 121.909 65.3769 119.716 62.0419 113.365L52.8779 95.913C52.8619 95.882 52.8779 95.845 52.9129 95.836C53.7819 95.624 54.6299 95.222 55.3799 94.516C57.3479 92.664 57.6829 89.644 56.4259 87.251Z" fill="#EC2579"/>
<path d="M66.064 68.694C65.393 69.545 64.4709 70.228 63.3169 70.601C60.6319 71.469 57.72 70.122 56.409 67.624L55.4379 65.776C55.4359 65.771 55.433 65.769 55.431 65.764C54.329 63.667 52.956 63.013 52.312 62.812C52.274 62.802 52.234 62.789 52.196 62.779C52.193 62.778 52.19 62.778 52.187 62.777C47.88 61.721 46.603 64.946 46.229 66.696C46.228 66.7 46.2279 66.703 46.2269 66.707C46.1719 67.763 46.801 68.882 46.801 68.882C46.801 68.882 46.783 68.881 46.78 68.88L56.426 87.252C57.682 89.645 57.348 92.663 55.379 94.515C54.623 95.227 53.766 95.631 52.888 95.841C52.863 95.848 52.837 95.835 52.825 95.813L37.715 67.036C37.632 66.878 37.569 66.715 37.493 66.555L37.444 66.581L33.239 58.617C32.521 57.256 33.041 55.569 34.403 54.85L51.0159 46.078C52.3779 45.36 54.0639 45.881 54.7829 47.242L58.988 55.206L58.9859 55.207C59.0849 55.375 59.193 55.536 59.285 55.711C59.285 55.711 65.709 67.946 66.071 68.635C66.082 68.656 66.078 68.677 66.064 68.694Z" fill="#FFCB1B"/>
<path d="M53.456 44.791L31.965 56.138C31.95 56.146 31.945 56.164 31.952 56.178L34.851 61.668C34.859 61.683 34.876 61.689 34.891 61.68L56.382 50.333C56.397 50.325 56.402 50.308 56.394 50.293L53.496 44.803C53.487 44.789 53.47 44.783 53.456 44.791Z" fill="#FEE092"/>
<path d="M130.56 72.031C128.67 68.063 132.723 64.588 132.723 64.588C130.271 62.668 130.309 60.377 130.941 58.588C131.583 56.768 133.401 55.588 135.382 55.588H137.435C139.434 55.588 141.056 57.163 141.056 59.105V67.473C141.056 69.585 139.787 71.504 137.809 72.384L135.065 73.604C133.374 74.355 131.341 73.669 130.56 72.031Z" fill="#75C8BA"/>
<path d="M184.341 72.031C186.231 68.063 182.178 64.588 182.178 64.588C184.63 62.668 184.592 60.377 183.96 58.588C183.318 56.768 181.5 55.588 179.519 55.588H177.466C175.467 55.588 173.845 57.163 173.845 59.105V67.473C173.845 69.585 175.114 71.504 177.092 72.384L179.836 73.604C181.526 74.355 183.56 73.669 184.341 72.031Z" fill="#75C8BA"/>
<path d="M139.695 71.178C135.004 71.178 131.201 74.981 131.201 79.672C131.201 84.364 135.004 88.167 139.695 88.167V71.178Z" fill="#C1946F"/>
<path d="M175.263 88.167C179.954 88.167 183.757 84.364 183.757 79.673C183.757 74.981 179.954 71.178 175.263 71.178V88.167Z" fill="#C1946F"/>
<path d="M170.208 107.38H144.749C141.671 107.38 139.175 104.884 139.175 101.806V56.919H175.782V101.806C175.782 104.884 173.286 107.38 170.208 107.38Z" fill="#E5B37F"/>
<path d="M171.939 52.988L180.274 16.742C180.503 15.746 180.103 14.714 179.257 14.14C176.299 12.133 168.616 7.88699 156.568 7.88699H155.658C143.61 7.88699 135.927 12.133 132.969 14.14C132.123 14.714 131.724 15.746 131.953 16.742L140.287 52.988H171.939Z" fill="#EC2579"/>
<path d="M173.404 46.636C173.526 46.207 173.336 45.748 172.977 45.485C171.426 44.351 166.601 41.578 156.518 41.578H156.199C146.015 41.578 140.858 44.407 139.224 45.519C138.863 45.764 138.702 46.208 138.813 46.63L140.092 52.305L140.269 52.988H171.948L173.404 46.636Z" fill="#F6AACB"/>
<path d="M190.079 56.894H124.878C124.288 56.894 123.804 56.411 123.804 55.82V52.64C123.804 52.049 124.288 51.566 124.878 51.566H190.079C190.67 51.566 191.153 52.049 191.153 52.64V55.82C191.153 56.411 190.67 56.894 190.079 56.894Z" fill="#EC2579"/>
<path d="M163.781 28.559C165.148 29.926 165.148 32.142 163.781 33.508C162.414 34.875 160.199 34.875 158.832 33.508C157.466 32.142 156.212 28.672 157.579 27.306C158.946 25.938 162.414 27.192 163.781 28.559Z" fill="#FFCB1B"/>
<path d="M153.02 33.507C151.653 34.874 149.438 34.874 148.071 33.507C146.704 32.14 146.704 29.925 148.071 28.558C149.438 27.192 152.906 25.938 154.273 27.305C155.64 28.672 154.387 32.141 153.02 33.507Z" fill="#FFCB1B"/>
<path d="M148.031 22.707C146.65 21.326 146.65 19.086 148.031 17.705C149.412 16.324 151.651 16.324 153.032 17.705C154.413 19.086 155.68 22.592 154.299 23.974C152.918 25.354 149.412 24.087 148.031 22.707Z" fill="#FFCB1B"/>
<path d="M158.806 17.353C160.187 15.972 162.427 15.972 163.808 17.353C165.189 18.734 165.189 20.973 163.808 22.355C162.427 23.736 158.921 25.002 157.54 23.621C156.159 22.24 157.425 18.734 158.806 17.353Z" fill="#FFCB1B"/>
<path d="M150.314 80.178H148.396C148.074 80.178 147.81 79.914 147.81 79.592V70.449C147.81 70.127 148.074 69.863 148.396 69.863H150.314C150.636 69.863 150.9 70.127 150.9 70.449V79.592C150.9 79.914 150.636 80.178 150.314 80.178Z" fill="#040303"/>
<path d="M145.394 61.811C148.115 60.878 151.095 62.291 152.088 65.005" stroke="#040303" stroke-width="0.866" stroke-miterlimit="10" stroke-linecap="round"/>
<path d="M164.554 80.178H166.65C166.984 80.178 167.256 79.905 167.256 79.572V70.469C167.256 70.136 166.984 69.863 166.65 69.863H164.554C164.221 69.863 163.948 70.136 163.948 70.469V79.572C163.948 79.905 164.221 80.178 164.554 80.178Z" fill="#040303"/>
<path d="M170.208 61.861C167.553 60.753 164.488 61.968 163.32 64.612" stroke="#040303" stroke-width="0.866" stroke-miterlimit="10" stroke-linecap="round"/>
<path d="M151.923 113.386L157.633 120.903C158.245 121.709 158.577 122.692 158.577 123.704V212.175C158.577 213.148 157.864 213.969 156.901 214.106C152.835 214.683 141.915 214.74 130.194 202.167C115.363 186.257 130.194 128.01 131.003 128.01C131.812 128.01 148.192 114.157 148.192 114.157L151.923 113.386Z" fill="#E8B221"/>
<path d="M165.177 113.448L159.513 120.903C158.901 121.709 158.57 122.692 158.57 123.704V212.175C158.57 213.148 159.283 213.969 160.246 214.106C164.311 214.683 175.232 214.74 186.952 202.167C201.784 186.257 186.952 128.01 186.143 128.01C185.334 128.01 169.073 114.205 169.073 114.205L165.177 113.448Z" fill="#E8B221"/>
<path d="M158.566 125.642V213.13" stroke="#6D5C26" stroke-width="0.866" stroke-miterlimit="10" stroke-linecap="round" stroke-linejoin="round"/>
<path d="M167.747 114.529L166.588 182.075C166.408 192.535 169.664 202.85 176.2 211.04C181.728 217.968 190.398 224.677 203.989 228.411C204.405 225.792 204.519 223.134 204.33 220.49L199.199 148.548C199.199 148.548 198.393 130.092 182.023 118.531C181.468 118.139 180.88 117.797 180.275 117.485C179.694 117.186 178.901 116.778 178.104 116.368C176.017 115.294 173.714 114.701 171.366 114.633L167.747 114.529Z" fill="#CE1D5F"/>
<path d="M172.072 113.998L188.267 145.732C189.248 147.654 189.759 149.777 189.759 151.929C189.759 155.454 188.391 158.844 185.937 161.398L169.309 178.712C168.972 179.063 168.504 179.262 168.015 179.262C167.015 179.262 166.21 178.449 166.23 177.459L167.509 115.026C167.535 113.768 168.543 112.746 169.812 112.69C170.76 112.647 171.645 113.16 172.072 113.998Z" fill="#F6AACB"/>
<path d="M173.546 196.713C174.913 198.08 177.128 198.08 178.495 196.713C179.862 195.346 179.862 193.131 178.495 191.764C177.128 190.398 173.66 189.144 172.293 190.511C170.926 191.878 172.179 195.346 173.546 196.713Z" fill="#FFCB1B"/>
<path d="M178.534 185.912C179.915 184.531 179.915 182.291 178.534 180.91C177.153 179.529 174.914 179.529 173.533 180.91C172.152 182.291 170.885 185.797 172.266 187.179C173.647 188.56 177.153 187.293 178.534 185.912Z" fill="#FFCB1B"/>
<path d="M149.195 114.529L150.348 182.237C150.527 192.722 147.288 203.062 140.785 211.272C135.285 218.216 126.659 224.942 113.138 228.685C112.724 226.059 112.611 223.395 112.798 220.744L117.904 148.63C117.904 148.63 118.705 130.13 134.991 118.54C135.544 118.147 136.129 117.804 136.73 117.493C137.309 117.193 138.098 116.784 138.891 116.372C140.967 115.296 143.259 114.702 145.595 114.634L149.195 114.529Z" fill="#CE1D5F"/>
<path d="M144.958 113.998L128.677 145.732C127.691 147.654 127.177 149.777 127.177 151.929C127.177 155.454 128.553 158.844 131.019 161.398L147.736 178.712C148.074 179.063 148.545 179.262 149.036 179.262C150.042 179.262 150.851 178.449 150.831 177.459L149.545 115.026C149.519 113.768 148.506 112.746 147.23 112.69C146.277 112.647 145.388 113.16 144.958 113.998Z" fill="#F6AACB"/>
<path d="M143.391 196.713C142.024 198.08 139.809 198.08 138.442 196.713C137.075 195.346 137.075 193.131 138.442 191.764C139.809 190.398 143.277 189.144 144.644 190.511C146.01 191.878 144.757 195.346 143.391 196.713Z" fill="#FFCB1B"/>
<path d="M138.402 185.912C137.021 184.531 137.021 182.291 138.402 180.91C139.783 179.529 142.022 179.529 143.403 180.91C144.784 182.291 146.051 185.797 144.67 187.179C143.289 188.56 139.783 187.293 138.402 185.912Z" fill="#FFCB1B"/>
<path d="M149.07 82.976C153.315 82.976 156.756 79.5349 156.756 75.29C156.756 71.0451 153.315 67.604 149.07 67.604C144.825 67.604 141.384 71.0451 141.384 75.29C141.384 79.5349 144.825 82.976 149.07 82.976Z" stroke="#FEE000" stroke-width="0.866" stroke-miterlimit="10"/>
<path d="M144.185 85.672C144.185 86.474 143.535 87.123 142.734 87.123C141.932 87.123 141.283 86.474 141.283 85.672C141.283 84.87 141.932 84.221 142.734 84.221C143.535 84.221 144.185 84.87 144.185 85.672Z" fill="#FEE000"/>
<path d="M140.868 90.767C140.868 91.569 140.218 92.218 139.417 92.218C138.615 92.218 137.965 91.569 137.965 90.767C137.965 89.965 138.615 89.316 139.417 89.316C140.218 89.316 140.868 89.965 140.868 90.767Z" fill="#FEE000"/>
<path d="M135.523 88.817C135.523 89.619 134.873 90.268 134.072 90.268C133.27 90.268 132.62 89.619 132.62 88.817C132.62 88.015 133.27 87.366 134.072 87.366C134.874 87.366 135.523 88.015 135.523 88.817Z" fill="#FEE000"/>
<path d="M1.8949 20.339C1.8949 20.339 14.4519 -2.659 41.7659 1.646" stroke="#EC2579" stroke-width="0.866" stroke-miterlimit="10" stroke-linecap="round"/>
<path d="M157.479 90.767C157.479 90.767 148.836 90.718 144.709 88.167C144.709 88.167 145.348 103.402 157.479 103.117C169.61 103.402 170.249 88.167 170.249 88.167C166.123 90.718 157.479 90.767 157.479 90.767Z" fill="white"/>
<path d="M12.0569 19.855C12.0569 19.855 19.4609 6.294 35.5669 8.833" stroke="#EC2579" stroke-width="0.866" stroke-miterlimit="10" stroke-linecap="round"/>
<path d="M195.435 155.525L220.76 295.392C220.922 296.288 221.606 296.92 222.298 296.814C222.991 296.708 223.438 295.901 223.306 295L202.636 154.417C202.249 151.787 200.271 149.881 198.251 150.192C196.231 150.503 194.96 152.909 195.435 155.525Z" fill="#DAA627"/>
<path d="M187.042 151.652C188.028 157.829 193.835 162.037 200.012 161.051C206.188 160.065 210.397 154.258 209.411 148.082C208.425 141.905 202.618 137.696 196.441 138.682C190.264 139.668 186.056 145.476 187.042 151.652Z" fill="#FFCB1B"/>
<path d="M188.909 147.112C189.145 148.593 190.537 149.602 192.018 149.365C193.499 149.129 194.508 147.737 194.271 146.256C194.035 144.775 192.643 143.767 191.162 144.003C189.681 144.239 188.673 145.631 188.909 147.112Z" fill="#FFEABB"/>
<path d="M203.092 150.15C203.39 145.023 200.227 140.501 195.63 138.843C196.668 138.6 197.755 138.495 198.872 138.56C205.117 138.923 209.884 144.28 209.521 150.524C209.158 156.768 203.801 161.536 197.557 161.173C196.439 161.108 195.372 160.877 194.37 160.515C199.128 159.402 202.794 155.277 203.092 150.15Z" fill="#EEB81D"/>
<path d="M213.854 219.798L204.435 220.554C203.693 220.613 203.042 220.06 202.983 219.317L200.612 189.77C200.552 189.028 201.106 188.377 201.849 188.317L211.267 187.562C213.26 187.402 215.005 188.888 215.165 190.88L217.173 215.9C217.332 217.893 215.846 219.638 213.854 219.798Z" fill="#E5B37F"/>
</svg>
