<?xml version="1.0" encoding="utf-8"?>
<!-- Generator: Adobe Illustrator 16.0.0, SVG Export Plug-In . SVG Version: 6.00 Build 0)  -->
<!DOCTYPE svg PUBLIC "-//W3C//DTD SVG 1.1//EN" "http://www.w3.org/Graphics/SVG/1.1/DTD/svg11.dtd">
<svg version="1.1" id="Layer_1" xmlns="http://www.w3.org/2000/svg" xmlns:xlink="http://www.w3.org/1999/xlink" x="0px" y="0px"
	 width="634px" height="600px" viewBox="0 0 634 600" enable-background="new 0 0 634 600" xml:space="preserve">
<g>
	<defs>
		<rect id="SVGID_1_" x="-268" y="-237" width="1920" height="1080"/>
	</defs>
	<clipPath id="SVGID_2_">
		<use xlink:href="#SVGID_1_"  overflow="visible"/>
	</clipPath>
</g>
<g>
	<defs>
		<rect id="SVGID_3_" x="-268" y="-237" width="1920" height="1080"/>
	</defs>
	<clipPath id="SVGID_4_">
		<use xlink:href="#SVGID_3_"  overflow="visible"/>
	</clipPath>
	<path clip-path="url(#SVGID_4_)" fill="#F8BBD5" d="M19.77,284.426c0,0.001,0.002,0.003,0.002,0.004
		c0.092-0.212,0.203-0.412,0.303-0.62C19.872,284.014,19.769,284.22,19.77,284.426"/>
	<path clip-path="url(#SVGID_4_)" fill="#EE4389" d="M465.831,515.479l-49.637-236.715l-141.164,1.057l-141.163-1.057
		L84.229,515.479c-0.485,1.697-0.624,3.415-0.457,5.093c-0.574,5.788,2.613,11.445,8.556,14.725
		c23.465,12.954,84.357,40.274,179.514,39.562l3.187-0.024l3.189,0.024c95.156,0.713,156.049-26.607,179.512-39.562
		c5.945-3.279,9.13-8.937,8.557-14.725C466.455,518.895,466.315,517.177,465.831,515.479"/>
</g>
<g>
	<defs>
		<path id="SVGID_5_" d="M275.029,279.821l-141.162-1.057L84.229,515.479c-0.485,1.698-0.623,3.416-0.456,5.094
			c-0.574,5.788,2.613,11.445,8.555,14.725c23.466,12.953,84.357,40.274,179.514,39.563l3.187-0.026l3.19,0.026
			c95.155,0.712,156.048-26.609,179.511-39.563c5.946-3.279,9.131-8.937,8.557-14.725c0.168-1.678,0.029-3.396-0.457-5.094
			l-49.637-236.714L275.029,279.821z"/>
	</defs>
	<clipPath id="SVGID_6_">
		<use xlink:href="#SVGID_5_"  overflow="visible"/>
	</clipPath>
	<path clip-path="url(#SVGID_6_)" fill="#D83C7E" d="M366.276,267.201c17.514,35.641,37.43,85.186,49.591,146.632
		c12.96,65.484,12.679,122.086,9.361,163.15c41.306-16.595,82.61-33.192,123.915-49.787l-84.26-288.194L366.276,267.201z"/>
	<path clip-path="url(#SVGID_6_)" fill="#D83C7E" d="M207.654,274.352c-17.515,35.641-37.431,85.185-49.592,146.633
		c-12.96,65.482-12.679,122.085-9.361,163.147c-41.305-16.595-82.61-33.19-123.915-49.787l84.261-288.192L207.654,274.352z"/>
</g>
<g>
	<defs>
		<rect id="SVGID_7_" x="-268" y="-237" width="1920" height="1080"/>
	</defs>
	<clipPath id="SVGID_8_">
		<use xlink:href="#SVGID_7_"  overflow="visible"/>
	</clipPath>
	<path clip-path="url(#SVGID_8_)" fill="#F8BBD5" d="M160.446,322.23c-0.775,2.811,0.487,5.804,2.853,7.506
		c10.2,7.342,41.889,25.246,107.841,24.753l2.086-0.016c66.611-0.499,100.206-19.258,110.837-26.609
		c2.348-1.624,3.384-4.534,2.634-7.29l-8.642-37.057l-1.19-4.456l-207.206,1.552L160.446,322.23z"/>
	<path clip-path="url(#SVGID_8_)" fill="#F8BBD5" d="M116.542,322.558c-1.085,2.812,0.659,5.803,3.937,7.498
		c14.134,7.312,58.102,30.212,149.636,29.525l2.895-0.021c92.448-0.692,139.091-24.635,153.866-32.02
		c3.264-1.629,4.71-4.544,3.677-7.297l-11.886-37.032l-1.64-4.452l-287.578,2.152L116.542,322.558z"/>
	<path clip-path="url(#SVGID_8_)" fill="#EE4389" d="M51.608,301.523c151.229,22.259,294.811,21.156,445.516-3.336
		c8.887-1.762,14.018-6.537,12.57-17.666c-0.342-2.629-0.514-3.941-0.856-6.571c-0.225-1.738-0.668-3.348-1.203-4.891
		c0.038,8.468-104.879,16.118-234.361,17.088c-129.47,0.97-234.48-5.108-234.591-13.573c-0.511,1.55-0.928,3.167-1.128,4.906
		c-0.303,2.634-0.455,3.949-0.758,6.583C35.515,295.212,42.695,299.895,51.608,301.523"/>
	<path clip-path="url(#SVGID_8_)" fill="#F8BBD5" d="M507.726,280.914c-0.002-0.205-0.106-0.408-0.312-0.61
		c0.103,0.206,0.216,0.402,0.31,0.612C507.724,280.915,507.726,280.915,507.726,280.914"/>
	<path clip-path="url(#SVGID_8_)" fill="#EE4389" d="M493.48,293.242c0,15.51-101.81,28.083-227.398,28.083
		c-125.589,0-227.399-12.573-227.399-28.083s101.81-28.083,227.399-28.083C391.67,265.159,493.48,277.732,493.48,293.242"/>
	<path clip-path="url(#SVGID_8_)" fill="#EE4389" d="M495.083,301.524c-150.143,22.267-292.691,21.172-442.311-3.313
		c-8.824-1.761-13.917-6.535-12.478-17.665c0.339-2.628,0.509-3.941,0.849-6.57c0.224-1.738,0.664-3.349,1.195-4.892
		c-0.038,8.469,104.123,16.113,232.675,17.076c128.539,0.963,232.795-5.121,232.904-13.586c0.507,1.55,0.921,3.167,1.12,4.907
		c0.301,2.633,0.45,3.948,0.752,6.582C511.063,295.212,503.934,299.895,495.083,301.524"/>
	<path clip-path="url(#SVGID_8_)" fill="#EE4389" d="M53.105,293.242c0,15.51,101.81,28.083,227.398,28.083
		c125.589,0,227.399-12.573,227.399-28.083s-101.81-28.083-227.399-28.083C154.915,265.159,53.105,277.732,53.105,293.242"/>
	<path clip-path="url(#SVGID_8_)" fill="#A92F66" d="M468.483,258.178c-42.924-8.252-114.597-13.337-195.771-12.729
		c-81.175,0.607-152.765,6.765-195.56,15.66C209.664,298.749,336.686,297.763,468.483,258.178"/>
	<path clip-path="url(#SVGID_8_)" fill="#A92F66" d="M273.337,294.539c129.482-0.97,234.375-11.809,234.308-24.212
		c-0.095-0.4-0.21-0.771-0.314-1.161c-2.306-4.27-17.202-8.126-41.164-11.27c-130.152,27.407-255.507,28.37-386.189,2.892
		c-23.906,3.501-38.74,7.581-40.987,11.883c-0.098,0.394-0.209,0.771-0.299,1.173C38.832,286.242,143.866,295.509,273.337,294.539"
		/>
	<path clip-path="url(#SVGID_8_)" fill="#FFD539" d="M224.247,440c-9.005-8.871-9.114-23.365-0.242-32.371
		c8.872-9.006,23.361-9.114,32.368-0.242c9.006,8.872,17.373,31.5,8.502,40.507C256.001,456.898,233.252,448.872,224.247,440"/>
	<path clip-path="url(#SVGID_8_)" fill="#FFD539" d="M294.39,407.104c8.873-9.007,23.364-9.115,32.371-0.243
		c9.006,8.873,9.114,23.364,0.243,32.369c-8.873,9.007-31.501,17.373-40.508,8.501C277.491,438.859,285.517,416.11,294.39,407.104"
		/>
	<path clip-path="url(#SVGID_8_)" fill="#FFD539" d="M319.791,476.035c7.96,7.84,8.056,20.649,0.215,28.608
		c-7.842,7.96-20.647,8.057-28.609,0.215c-7.958-7.841-15.353-27.841-7.514-35.801C291.726,461.099,311.832,468.193,319.791,476.035
		"/>
	<path clip-path="url(#SVGID_8_)" fill="#FFD539" d="M258.391,507.118c-7.843,7.959-20.651,8.055-28.61,0.215
		c-7.961-7.841-8.057-20.647-0.214-28.609c7.841-7.959,27.84-15.353,35.799-7.512C273.324,479.053,266.231,499.159,258.391,507.118"
		/>
	<path clip-path="url(#SVGID_8_)" fill="#95275B" d="M450.399,270.516c0.042,5.619-79.217,10.768-177.03,11.5
		c-97.813,0.733-177.14-3.228-177.183-8.847c-0.042-5.619,79.218-10.769,177.03-11.501
		C371.03,260.935,450.357,264.897,450.399,270.516"/>
	<path clip-path="url(#SVGID_8_)" fill="#E5B434" d="M581.741,278.817L473.449,60.266c-0.694-1.402-0.4-2.972,0.663-3.534
		s2.504,0.09,3.245,1.467l115.436,214.775c2.159,4.016,1.386,8.667-1.714,10.306C587.979,284.918,583.766,282.904,581.741,278.817"
		/>
	<path clip-path="url(#SVGID_8_)" fill="#FFD539" d="M574.146,292.742c-4.965-9.516-1.275-21.256,8.241-26.221
		c9.517-4.965,21.256-1.275,26.221,8.242c4.965,9.516,1.275,21.255-8.241,26.22C590.851,305.949,579.111,302.259,574.146,292.742"/>
	<path clip-path="url(#SVGID_8_)" fill="#FFEFCA" d="M581.366,297.083c-1.19-2.281-0.306-5.096,1.976-6.286
		c2.281-1.19,5.095-0.306,6.286,1.975c1.19,2.282,0.305,5.096-1.976,6.287C585.371,300.249,582.556,299.364,581.366,297.083"/>
	
		<path clip-path="url(#SVGID_8_)" fill="none" stroke="#FFD539" stroke-width="3.93" stroke-linecap="round" stroke-linejoin="bevel" stroke-miterlimit="10" d="
		M417.701,102.138c0,0,4.902-34.27,40.697-41.576"/>
	
		<path clip-path="url(#SVGID_8_)" fill="none" stroke="#FFD539" stroke-width="3.93" stroke-linecap="round" stroke-linejoin="bevel" stroke-miterlimit="10" d="
		M430.054,96.839c0,0,2.891-20.207,23.997-24.515"/>
	<rect x="323.941" y="109.107" clip-path="url(#SVGID_8_)" fill="#FFD111" width="23.702" height="52.161"/>
	<rect x="321.792" y="140.745" clip-path="url(#SVGID_8_)" fill="#FBE92A" width="27.999" height="81.978"/>
	<path clip-path="url(#SVGID_8_)" fill="#E9257D" d="M344.664,150.886h-17.745c-4.019,0-7.276-3.258-7.276-7.276
		s3.257-7.276,7.276-7.276h17.745c4.019,0,7.275,3.258,7.275,7.276S348.683,150.886,344.664,150.886"/>
	<path clip-path="url(#SVGID_8_)" fill="#E9257D" d="M321.792,140.037L321.792,140.037c-1.187,0-2.148-0.962-2.148-2.148v-3.141
		c0-1.187,0.961-2.148,2.148-2.148s2.148,0.961,2.148,2.148v3.141C323.939,139.075,322.979,140.037,321.792,140.037"/>
	<path clip-path="url(#SVGID_8_)" fill="#E9257D" d="M335.791,140.037L335.791,140.037c-1.187,0-2.148-0.962-2.148-2.148v-3.141
		c0-1.187,0.961-2.148,2.148-2.148s2.148,0.961,2.148,2.148v3.141C337.938,139.075,336.978,140.037,335.791,140.037"/>
	<path clip-path="url(#SVGID_8_)" fill="#E9257D" d="M342.831,140.037L342.831,140.037c-1.187,0-2.148-0.962-2.148-2.148v-3.141
		c0-1.187,0.961-2.148,2.148-2.148s2.148,0.961,2.148,2.148v3.141C344.979,139.075,344.018,140.037,342.831,140.037"/>
	<path clip-path="url(#SVGID_8_)" fill="#E9257D" d="M328.751,140.037L328.751,140.037c-1.187,0-2.148-0.962-2.148-2.148v-3.141
		c0-1.187,0.961-2.148,2.148-2.148s2.148,0.961,2.148,2.148v3.141C330.899,139.075,329.938,140.037,328.751,140.037"/>
	<path clip-path="url(#SVGID_8_)" fill="#E9257D" d="M349.791,140.037L349.791,140.037c-1.187,0-2.148-0.962-2.148-2.148v-3.141
		c0-1.187,0.961-2.148,2.148-2.148s2.148,0.961,2.148,2.148v3.141C351.938,139.075,350.978,140.037,349.791,140.037"/>
	<rect x="203.724" y="109.107" clip-path="url(#SVGID_8_)" fill="#FBE92A" width="23.703" height="52.161"/>
	<rect x="201.575" y="140.745" clip-path="url(#SVGID_8_)" fill="#FBE92A" width="28" height="81.978"/>
	<path clip-path="url(#SVGID_8_)" fill="#E9257D" d="M224.447,150.886h-17.744c-4.019,0-7.277-3.258-7.277-7.276
		s3.258-7.276,7.277-7.276h17.744c4.019,0,7.276,3.258,7.276,7.276S228.466,150.886,224.447,150.886"/>
	<path clip-path="url(#SVGID_8_)" fill="#E9257D" d="M201.575,140.745L201.575,140.745c-1.187,0-2.148-0.962-2.148-2.148v-3.849
		c0-1.187,0.961-2.149,2.148-2.149s2.148,0.962,2.148,2.149v3.849C203.723,139.783,202.762,140.745,201.575,140.745"/>
	<path clip-path="url(#SVGID_8_)" fill="#E9257D" d="M215.575,140.745L215.575,140.745c-1.187,0-2.148-0.962-2.148-2.148v-3.849
		c0-1.187,0.961-2.149,2.148-2.149s2.148,0.962,2.148,2.149v3.849C217.723,139.783,216.762,140.745,215.575,140.745"/>
	<path clip-path="url(#SVGID_8_)" fill="#E9257D" d="M222.615,140.745L222.615,140.745c-1.187,0-2.149-0.962-2.149-2.148v-3.849
		c0-1.187,0.962-2.149,2.149-2.149s2.148,0.962,2.148,2.149v3.849C224.763,139.783,223.802,140.745,222.615,140.745"/>
	<path clip-path="url(#SVGID_8_)" fill="#E9257D" d="M208.536,140.745L208.536,140.745c-1.187,0-2.149-0.962-2.149-2.148v-3.849
		c0-1.187,0.962-2.149,2.149-2.149s2.148,0.962,2.148,2.149v3.849C210.684,139.783,209.723,140.745,208.536,140.745"/>
	<path clip-path="url(#SVGID_8_)" fill="#E9257D" d="M229.575,140.745L229.575,140.745c-1.187,0-2.148-0.962-2.148-2.148v-3.849
		c0-1.187,0.961-2.149,2.148-2.149s2.148,0.962,2.148,2.149v3.849C231.723,139.783,230.762,140.745,229.575,140.745"/>
	<path clip-path="url(#SVGID_8_)" fill="#D32071" d="M226.034,116.085h-20.918c-1.956,0-3.541-1.585-3.541-3.541
		c0-1.955,1.585-3.541,3.541-3.541h20.918c1.956,0,3.541,1.586,3.541,3.541C229.575,114.5,227.99,116.085,226.034,116.085"/>
	<path clip-path="url(#SVGID_8_)" fill="#D32071" d="M346.25,116.085h-20.919c-1.955,0-3.54-1.585-3.54-3.541
		c0-1.955,1.585-3.541,3.54-3.541h20.919c1.955,0,3.54,1.586,3.54,3.541C349.791,114.5,348.206,116.085,346.25,116.085"/>
	<path clip-path="url(#SVGID_8_)" fill="#E9257D" d="M319.535,108.774c-0.016,0.029-0.028,0.06-0.036,0.091
		c-0.146,0.602,0.504,1.159,1.371,1.159h29.843c0.867,0,1.517-0.558,1.371-1.16c-0.008-0.031-0.021-0.061-0.035-0.089
		c-3.293-6.161-6.966-14.168-10.101-23.98c-2.973-9.303-4.706-17.864-5.737-25.021c-0.069-0.475-0.755-0.472-0.822,0.004
		c-1.049,7.57-2.896,16.754-6.218,26.725C326.165,95.524,322.697,102.954,319.535,108.774"/>
	<path clip-path="url(#SVGID_8_)" fill="#E9257D" d="M199.319,108.774c-0.016,0.029-0.029,0.06-0.037,0.091
		c-0.146,0.602,0.505,1.159,1.372,1.159h29.842c0.868,0,1.518-0.558,1.371-1.16c-0.007-0.031-0.02-0.061-0.035-0.089
		c-3.293-6.161-6.966-14.168-10.101-23.98c-2.973-9.303-4.705-17.864-5.737-25.021c-0.069-0.475-0.755-0.472-0.821,0.004
		c-1.049,7.57-2.897,16.754-6.218,26.725C205.949,95.524,202.481,102.954,199.319,108.774"/>
	<path clip-path="url(#SVGID_8_)" fill="#1B4172" d="M338.137,129.769h-4.692c-0.089,0-0.161-0.072-0.161-0.161v-6.001
		c0-1.384,1.123-2.506,2.506-2.506c1.385,0,2.507,1.122,2.507,2.506v6.001C338.297,129.697,338.226,129.769,338.137,129.769"/>
	<rect x="240.258" y="134.966" clip-path="url(#SVGID_8_)" fill="#9AD4BF" width="15.952" height="74.763"/>
	<rect x="295.154" y="134.966" clip-path="url(#SVGID_8_)" fill="#9AD4BF" width="15.952" height="74.763"/>
	<rect x="267.707" y="160.788" clip-path="url(#SVGID_8_)" fill="#9AD4BF" width="15.952" height="48.941"/>
	<path clip-path="url(#SVGID_8_)" fill="#E9257D" d="M247.571,100.741l-7.296,31.766c-0.094,0.411,0.23,0.801,0.664,0.801h14.591
		c0.436,0,0.759-0.39,0.665-0.801l-7.296-31.766C248.741,100.054,247.728,100.054,247.571,100.741"/>
	<path clip-path="url(#SVGID_8_)" fill="#D32071" d="M255.456,135.723h-14.441c-1.333,0-2.414-1.081-2.414-2.415
		c0-1.333,1.081-2.414,2.414-2.414h14.441c1.333,0,2.414,1.081,2.414,2.414C257.87,134.642,256.789,135.723,255.456,135.723"/>
	<path clip-path="url(#SVGID_8_)" fill="#E9257D" d="M302.466,100.741l-7.295,31.766c-0.095,0.411,0.229,0.801,0.664,0.801h14.591
		c0.436,0,0.759-0.39,0.664-0.801l-7.295-31.766C303.637,100.054,302.624,100.054,302.466,100.741"/>
	<path clip-path="url(#SVGID_8_)" fill="#D32071" d="M310.351,135.723h-14.44c-1.334,0-2.415-1.081-2.415-2.415
		c0-1.333,1.081-2.414,2.415-2.414h14.44c1.334,0,2.415,1.081,2.415,2.414C312.766,134.642,311.685,135.723,310.351,135.723"/>
	<path clip-path="url(#SVGID_8_)" fill="#E9257D" d="M275.019,138.384l-7.296,20.794c-0.095,0.269,0.229,0.525,0.664,0.525h14.591
		c0.436,0,0.759-0.256,0.664-0.525l-7.295-20.794C276.189,137.935,275.176,137.935,275.019,138.384"/>
	<path clip-path="url(#SVGID_8_)" fill="#D32071" d="M283.276,162.207H268.09c-1.127,0-2.042-0.914-2.042-2.042
		s0.915-2.042,2.042-2.042h15.186c1.128,0,2.042,0.914,2.042,2.042S284.404,162.207,283.276,162.207"/>
	<rect x="165.075" y="205.931" clip-path="url(#SVGID_8_)" fill="#8BC1B0" width="225.979" height="64.645"/>
	<rect x="250.588" y="191.733" clip-path="url(#SVGID_8_)" fill="#FFD111" width="50.188" height="35.993"/>
	<path clip-path="url(#SVGID_8_)" fill="#E9257D" d="M301.347,194.685h-51.328c-1.759,0-3.185-1.426-3.185-3.184
		c0-1.759,1.426-3.185,3.185-3.185h51.328c1.759,0,3.184,1.426,3.184,3.185C304.531,193.259,303.106,194.685,301.347,194.685"/>
	<path clip-path="url(#SVGID_8_)" fill="#E9257D" d="M251.722,190.513h-2.1c-1.54,0-2.788-1.249-2.788-2.788
		c0-1.54,1.248-2.789,2.788-2.789h2.1c1.54,0,2.788,1.249,2.788,2.789C254.51,189.264,253.262,190.513,251.722,190.513"/>
	<path clip-path="url(#SVGID_8_)" fill="#E9257D" d="M276.733,190.513h-2.1c-1.54,0-2.789-1.249-2.789-2.788
		c0-1.54,1.249-2.789,2.789-2.789h2.1c1.54,0,2.788,1.249,2.788,2.789C279.521,189.264,278.273,190.513,276.733,190.513"/>
	<path clip-path="url(#SVGID_8_)" fill="#E9257D" d="M289.309,190.513h-2.101c-1.54,0-2.788-1.249-2.788-2.788
		c0-1.54,1.248-2.789,2.788-2.789h2.101c1.539,0,2.788,1.249,2.788,2.789C292.097,189.264,290.848,190.513,289.309,190.513"/>
	<path clip-path="url(#SVGID_8_)" fill="#E9257D" d="M264.157,190.513h-2.1c-1.54,0-2.788-1.249-2.788-2.788
		c0-1.54,1.248-2.789,2.788-2.789h2.1c1.54,0,2.788,1.249,2.788,2.789C266.945,189.264,265.697,190.513,264.157,190.513"/>
	<path clip-path="url(#SVGID_8_)" fill="#E9257D" d="M301.743,190.513h-2.1c-1.54,0-2.788-1.249-2.788-2.788
		c0-1.54,1.248-2.789,2.788-2.789h2.1c1.54,0,2.788,1.249,2.788,2.789C304.531,189.264,303.283,190.513,301.743,190.513"/>
	<path clip-path="url(#SVGID_8_)" fill="#1B4172" d="M304.531,150.86h-2.8c-0.379,0-0.686-0.308-0.686-0.687v-4.477
		c0-1.152,0.934-2.086,2.087-2.086c1.152,0,2.086,0.934,2.086,2.086v4.477C305.218,150.552,304.911,150.86,304.531,150.86"/>
	<path clip-path="url(#SVGID_8_)" fill="#1B4172" d="M304.531,165.587h-2.8c-0.379,0-0.686-0.307-0.686-0.686v-4.478
		c0-1.152,0.934-2.086,2.087-2.086c1.152,0,2.086,0.934,2.086,2.086v4.478C305.218,165.28,304.911,165.587,304.531,165.587"/>
	<path clip-path="url(#SVGID_8_)" fill="#1B4172" d="M277.509,177.186h-3.652c-0.286,0-0.519-0.232-0.519-0.518v-4.388
		c0-1.295,1.05-2.344,2.345-2.344c1.295,0,2.344,1.049,2.344,2.344v4.388C278.027,176.954,277.795,177.186,277.509,177.186"/>
	<path clip-path="url(#SVGID_8_)" fill="#1B4172" d="M277.509,206.808h-3.652c-0.286,0-0.519-0.232-0.519-0.518v-3.232
		c0-1.295,1.05-2.345,2.345-2.345c1.295,0,2.344,1.05,2.344,2.345v3.232C278.027,206.576,277.795,206.808,277.509,206.808"/>
	<path clip-path="url(#SVGID_8_)" fill="#1B4172" d="M265.396,206.808h-3.652c-0.286,0-0.518-0.232-0.518-0.518v-3.232
		c0-1.295,1.049-2.345,2.344-2.345c1.295,0,2.345,1.05,2.345,2.345v3.232C265.915,206.576,265.682,206.808,265.396,206.808"/>
	<path clip-path="url(#SVGID_8_)" fill="#1B4172" d="M289.623,206.808h-3.653c-0.286,0-0.518-0.232-0.518-0.518v-3.232
		c0-1.295,1.05-2.345,2.344-2.345c1.295,0,2.345,1.05,2.345,2.345v3.232C290.141,206.576,289.908,206.808,289.623,206.808"/>
	<path clip-path="url(#SVGID_8_)" fill="#60A89E" d="M325.144,263.325h-6.706c-1.287,0-2.33-1.043-2.33-2.331
		c0-1.287,1.043-2.33,2.33-2.33h6.706c1.287,0,2.33,1.043,2.33,2.33C327.474,262.282,326.431,263.325,325.144,263.325"/>
	<path clip-path="url(#SVGID_8_)" fill="#60A89E" d="M357.667,220.013h-6.706c-1.287,0-2.33-1.043-2.33-2.331
		c0-1.287,1.043-2.331,2.33-2.331h6.706c1.287,0,2.331,1.044,2.331,2.331C359.999,218.97,358.955,220.013,357.667,220.013"/>
	<path clip-path="url(#SVGID_8_)" fill="#60A89E" d="M351.001,225.864h-4.983c-0.933,0-1.69-0.756-1.69-1.689s0.757-1.69,1.69-1.69
		h4.983c0.933,0,1.689,0.757,1.689,1.69S351.935,225.864,351.001,225.864"/>
	<path clip-path="url(#SVGID_8_)" fill="#60A89E" d="M199.245,221.305h-6.706c-1.287,0-2.331-1.043-2.331-2.331
		c0-1.287,1.044-2.331,2.331-2.331h6.706c1.287,0,2.33,1.044,2.33,2.331C201.575,220.262,200.532,221.305,199.245,221.305"/>
	<path clip-path="url(#SVGID_8_)" fill="#60A89E" d="M204.067,227.412h-4.983c-0.934,0-1.69-0.756-1.69-1.689s0.756-1.69,1.69-1.69
		h4.983c0.933,0,1.689,0.757,1.689,1.69S205,227.412,204.067,227.412"/>
	<path clip-path="url(#SVGID_8_)" fill="#60A89E" d="M243.612,242.622h-6.706c-1.287,0-2.331-1.043-2.331-2.331
		c0-1.287,1.044-2.33,2.331-2.33h6.706c1.287,0,2.33,1.043,2.33,2.33C245.942,241.579,244.899,242.622,243.612,242.622"/>
	<path clip-path="url(#SVGID_8_)" fill="#60A89E" d="M371.4,257.007h-6.705c-1.288,0-2.331-1.043-2.331-2.331
		c0-1.287,1.043-2.331,2.331-2.331h6.705c1.287,0,2.331,1.044,2.331,2.331C373.731,255.964,372.687,257.007,371.4,257.007"/>
	<path clip-path="url(#SVGID_8_)" fill="#60A89E" d="M214.037,248.752h-6.706c-1.287,0-2.33-1.043-2.33-2.331
		c0-1.287,1.043-2.331,2.33-2.331h6.706c1.287,0,2.33,1.044,2.33,2.331C216.367,247.709,215.324,248.752,214.037,248.752"/>
	<path clip-path="url(#SVGID_8_)" fill="#60A89E" d="M190.619,266.704h-7.057c-0.932,0-1.689-0.756-1.689-1.689
		s0.757-1.69,1.689-1.69h7.057c0.933,0,1.689,0.757,1.689,1.69S191.552,266.704,190.619,266.704"/>
	<path clip-path="url(#SVGID_8_)" fill="#60A89E" d="M331.243,239.65h-4.983c-0.933,0-1.689-0.756-1.689-1.689
		c0-0.934,0.756-1.69,1.689-1.69h4.983c0.934,0,1.689,0.756,1.689,1.69C332.932,238.894,332.177,239.65,331.243,239.65"/>
	<path clip-path="url(#SVGID_8_)" fill="#FBE92A" d="M385.708,185.576h-10.291c-2.951,0-5.344,2.393-5.344,5.344v79.017
		c0,2.952,2.393,5.345,5.344,5.345h10.291c2.952,0,5.345-2.393,5.345-5.345V190.92C391.054,187.969,388.661,185.576,385.708,185.576
		"/>
	<path clip-path="url(#SVGID_8_)" fill="#FBE92A" d="M180.709,185.576h-10.291c-2.951,0-5.344,2.393-5.344,5.344v79.017
		c0,2.952,2.393,5.345,5.344,5.345h10.291c2.952,0,5.345-2.393,5.345-5.345V190.92C186.055,187.969,183.662,185.576,180.709,185.576
		"/>
	<rect x="242.004" y="222.268" clip-path="url(#SVGID_8_)" fill="#FBE92A" width="67.358" height="48.308"/>
	<path clip-path="url(#SVGID_8_)" fill="#E9257D" d="M308.637,229.21h-65.908c-3.184,0-5.765-2.581-5.765-5.764
		c0-3.183,2.581-5.764,5.765-5.764h65.908c3.184,0,5.764,2.581,5.764,5.764C314.401,226.629,311.821,229.21,308.637,229.21"/>
	<path clip-path="url(#SVGID_8_)" fill="#E9257D" d="M242.542,221.305h-0.854c-2.609,0-4.724-2.115-4.724-4.725
		c0-2.609,2.115-4.724,4.724-4.724h0.854c2.609,0,4.725,2.115,4.725,4.724C247.268,219.19,245.151,221.305,242.542,221.305"/>
	<path clip-path="url(#SVGID_8_)" fill="#E9257D" d="M276.11,221.305h-0.854c-2.609,0-4.724-2.115-4.724-4.725
		c0-2.609,2.115-4.724,4.724-4.724h0.854c2.609,0,4.725,2.115,4.725,4.724C280.835,219.19,278.719,221.305,276.11,221.305"/>
	<path clip-path="url(#SVGID_8_)" fill="#E9257D" d="M292.988,221.305h-0.854c-2.609,0-4.724-2.115-4.724-4.725
		c0-2.609,2.115-4.724,4.724-4.724h0.854c2.609,0,4.725,2.115,4.725,4.724C297.713,219.19,295.597,221.305,292.988,221.305"/>
	<path clip-path="url(#SVGID_8_)" fill="#E9257D" d="M259.231,221.305h-0.854c-2.609,0-4.724-2.115-4.724-4.725
		c0-2.609,2.115-4.724,4.724-4.724h0.854c2.609,0,4.725,2.115,4.725,4.724C263.956,219.19,261.84,221.305,259.231,221.305"/>
	<path clip-path="url(#SVGID_8_)" fill="#E9257D" d="M309.677,221.305h-0.854c-2.609,0-4.724-2.115-4.724-4.725
		c0-2.609,2.115-4.724,4.724-4.724h0.854c2.608,0,4.724,2.115,4.724,4.724C314.401,219.19,312.285,221.305,309.677,221.305"/>
	<path clip-path="url(#SVGID_8_)" fill="#1B4172" d="M284.917,270.575h-18.469c-0.341,0-0.617-0.276-0.617-0.618v-16.666
		c0-5.441,4.41-9.852,9.852-9.852c5.44,0,9.851,4.411,9.851,9.852v16.666C285.534,270.299,285.258,270.575,284.917,270.575"/>
	<path clip-path="url(#SVGID_8_)" fill="#E9257D" d="M297.132,242.854h-5.431c-1.043,0-1.888-0.845-1.888-1.888
		c0-1.042,0.845-1.887,1.888-1.887h5.431c1.043,0,1.889,0.845,1.889,1.887C299.021,242.009,298.175,242.854,297.132,242.854"/>
	<path clip-path="url(#SVGID_8_)" fill="#E9257D" d="M302.635,248.606h-3.255c-0.747,0-1.353-0.606-1.353-1.354
		s0.606-1.354,1.353-1.354h3.255c0.747,0,1.354,0.606,1.354,1.354S303.382,248.606,302.635,248.606"/>
	<path clip-path="url(#SVGID_8_)" fill="#E9257D" d="M248.649,265.656h-6.646v-3.912h6.646c1.08,0,1.956,0.876,1.956,1.956
		C250.605,264.78,249.729,265.656,248.649,265.656"/>
	<path clip-path="url(#SVGID_8_)" fill="#E9257D" d="M252.25,259.742h-3.474c-0.774,0-1.402-0.628-1.402-1.402
		c0-0.775,0.628-1.403,1.402-1.403h3.474c0.774,0,1.402,0.628,1.402,1.403C253.652,259.114,253.024,259.742,252.25,259.742"/>
	<path clip-path="url(#SVGID_8_)" fill="#D32071" d="M351.416,150.886h-31.249c-0.72,0-1.304-0.583-1.304-1.304
		c0-0.72,0.584-1.303,1.304-1.303h31.249c0.72,0,1.304,0.583,1.304,1.303C352.72,150.303,352.136,150.886,351.416,150.886"/>
	<path clip-path="url(#SVGID_8_)" fill="#D32071" d="M231.199,150.886h-31.248c-0.72,0-1.304-0.583-1.304-1.304
		c0-0.72,0.584-1.303,1.304-1.303h31.248c0.721,0,1.304,0.583,1.304,1.303C232.503,150.303,231.92,150.886,231.199,150.886"/>
	<path clip-path="url(#SVGID_8_)" fill="#FFD111" d="M406.646,134.546c2.242,0,4.391-1.972,4.287-4.287
		c-0.104-2.322-1.884-4.287-4.287-4.287c-2.242,0-4.391,1.972-4.287,4.287C402.463,132.583,404.243,134.546,406.646,134.546"/>
	<path clip-path="url(#SVGID_8_)" fill="#75C8BA" d="M337.465,64.263c-0.105-0.363-0.387-0.584-0.68-0.531
		c-0.332,0.061-0.698,0.097-1.093,0.09c-0.318-0.006-0.615-0.039-0.888-0.089c-0.291-0.053-0.569,0.17-0.674,0.53
		c-0.28,0.955-0.566,1.799-0.837,2.529c-0.003,0.007-0.005,0.014-0.006,0.021c-0.022,0.136,0.077,0.261,0.211,0.261
		c0.513,0.225,1.268,0.472,2.194,0.488c0.988,0.018,1.794-0.233,2.335-0.463c0.042-0.018,0.083-0.041,0.121-0.071
		c0.086-0.068,0.16-0.146,0.148-0.215c-0.001-0.007-0.003-0.014-0.006-0.021C338.025,66.064,337.742,65.22,337.465,64.263"/>
	<path clip-path="url(#SVGID_8_)" fill="#75C8BA" d="M335.791,65.465L335.791,65.465c-0.311,0-0.562-0.252-0.562-0.563V32.39
		c0-0.311,0.251-0.563,0.562-0.563c0.312,0,0.563,0.252,0.563,0.563v32.512C336.354,65.213,336.103,65.465,335.791,65.465"/>
	<path clip-path="url(#SVGID_8_)" fill="#75C8BA" d="M337.771,33.108c0,1.094-0.887,1.98-1.98,1.98c-1.094,0-1.981-0.886-1.981-1.98
		s0.887-1.98,1.981-1.98C336.884,31.128,337.771,32.014,337.771,33.108"/>
	<path clip-path="url(#SVGID_8_)" fill="#75C8BA" d="M335.791,60.022L335.791,60.022c-0.667,0-1.208,0.541-1.208,1.208v1.836
		c0,0.667,0.541,1.208,1.208,1.208c0.668,0,1.209-0.541,1.209-1.208V61.23C337,60.563,336.458,60.022,335.791,60.022"/>
	<path clip-path="url(#SVGID_8_)" fill="#75C8BA" d="M335.927,47.153v-9.357c0-0.251,0.187-0.463,0.437-0.492
		c1.288-0.147,3.102-0.211,5.168,0.22c5.575,1.16,7.343,4.735,12.431,6.133c1.384,0.38,3.301,0.679,5.776,0.393
		c0.546-0.063,0.775,0.676,0.286,0.93c-1.751,0.91-3.452,1.413-5.08,1.621c-5.675,0.725-8.765-1.955-13.576-1.145
		c-1.94,0.327-3.43,0.961-4.611,2.058C336.442,47.809,335.927,47.586,335.927,47.153"/>
	<path clip-path="url(#SVGID_8_)" fill="#75C8BA" d="M217.248,64.263c-0.105-0.363-0.387-0.584-0.68-0.531
		c-0.332,0.061-0.698,0.097-1.093,0.09c-0.318-0.006-0.615-0.039-0.888-0.089c-0.291-0.053-0.568,0.17-0.674,0.53
		c-0.28,0.955-0.565,1.799-0.837,2.529l-0.006,0.021c-0.022,0.136,0.078,0.261,0.211,0.261c0.513,0.225,1.268,0.472,2.194,0.488
		c0.988,0.018,1.795-0.233,2.335-0.463c0.042-0.018,0.083-0.041,0.121-0.071c0.086-0.068,0.16-0.146,0.148-0.215
		c-0.001-0.007-0.003-0.014-0.005-0.021C217.808,66.064,217.524,65.22,217.248,64.263"/>
	<path clip-path="url(#SVGID_8_)" fill="#75C8BA" d="M215.574,65.465L215.574,65.465c-0.312,0-0.563-0.252-0.563-0.563V32.39
		c0-0.311,0.251-0.563,0.563-0.563c0.311,0,0.562,0.252,0.562,0.563v32.512C216.136,65.213,215.885,65.465,215.574,65.465"/>
	<path clip-path="url(#SVGID_8_)" fill="#75C8BA" d="M217.554,33.108c0,1.094-0.887,1.98-1.98,1.98c-1.094,0-1.981-0.886-1.981-1.98
		s0.887-1.98,1.981-1.98C216.667,31.128,217.554,32.014,217.554,33.108"/>
	<path clip-path="url(#SVGID_8_)" fill="#75C8BA" d="M215.574,60.022L215.574,60.022c-0.668,0-1.209,0.541-1.209,1.208v1.836
		c0,0.667,0.541,1.208,1.209,1.208c0.667,0,1.208-0.541,1.208-1.208V61.23C216.782,60.563,216.241,60.022,215.574,60.022"/>
	<path clip-path="url(#SVGID_8_)" fill="#75C8BA" d="M215.709,47.153v-9.357c0-0.251,0.187-0.463,0.437-0.492
		c1.288-0.147,3.102-0.211,5.169,0.22c5.575,1.16,7.343,4.735,12.43,6.133c1.384,0.38,3.302,0.679,5.776,0.393
		c0.546-0.063,0.775,0.676,0.287,0.93c-1.752,0.91-3.453,1.413-5.081,1.621c-5.674,0.725-8.765-1.955-13.576-1.145
		c-1.939,0.327-3.429,0.961-4.611,2.058C216.225,47.809,215.709,47.586,215.709,47.153"/>
	<path clip-path="url(#SVGID_8_)" fill="#D32071" d="M249.606,101.964c-0.086-0.308-0.316-0.496-0.557-0.451
		c-0.271,0.052-0.571,0.082-0.895,0.076c-0.261-0.004-0.503-0.033-0.728-0.075c-0.238-0.046-0.466,0.144-0.551,0.449
		c-0.23,0.811-0.464,1.527-0.686,2.147c-0.002,0.006-0.004,0.012-0.005,0.018c-0.018,0.115,0.064,0.222,0.173,0.222
		c0.42,0.19,1.038,0.4,1.797,0.414c0.809,0.015,1.471-0.198,1.912-0.393c0.035-0.015,0.068-0.035,0.1-0.06
		c0.07-0.058,0.13-0.124,0.121-0.183c-0.001-0.006-0.002-0.012-0.004-0.017C250.065,103.492,249.834,102.776,249.606,101.964"/>
	<path clip-path="url(#SVGID_8_)" fill="#75C8BA" d="M249.826,100.226c0,0.879-0.712,1.591-1.591,1.591
		c-0.879,0-1.592-0.712-1.592-1.591s0.713-1.591,1.592-1.591C249.114,98.635,249.826,99.347,249.826,100.226"/>
	<path clip-path="url(#SVGID_8_)" fill="#D32071" d="M277.054,138.413c-0.087-0.308-0.316-0.496-0.557-0.451
		c-0.271,0.052-0.572,0.082-0.896,0.076c-0.26-0.004-0.503-0.033-0.727-0.075c-0.238-0.046-0.466,0.144-0.551,0.45
		c-0.23,0.811-0.464,1.526-0.686,2.147c-0.002,0.005-0.004,0.011-0.005,0.017c-0.018,0.115,0.064,0.222,0.173,0.222
		c0.42,0.19,1.038,0.4,1.796,0.414c0.81,0.015,1.471-0.198,1.913-0.393c0.035-0.015,0.068-0.035,0.1-0.06
		c0.07-0.058,0.13-0.124,0.121-0.183c-0.001-0.006-0.003-0.012-0.005-0.017C277.512,139.941,277.282,139.225,277.054,138.413"/>
	<path clip-path="url(#SVGID_8_)" fill="#75C8BA" d="M277.274,136.675c0,0.879-0.712,1.591-1.591,1.591
		c-0.879,0-1.592-0.712-1.592-1.591s0.713-1.591,1.592-1.591C276.562,135.084,277.274,135.796,277.274,136.675"/>
	<path clip-path="url(#SVGID_8_)" fill="#D32071" d="M304.502,101.964c-0.087-0.308-0.316-0.496-0.557-0.451
		c-0.272,0.052-0.572,0.082-0.896,0.076c-0.26-0.004-0.503-0.033-0.727-0.075c-0.238-0.046-0.466,0.144-0.552,0.449
		c-0.229,0.811-0.463,1.527-0.685,2.147c-0.002,0.006-0.004,0.012-0.005,0.018c-0.018,0.115,0.064,0.222,0.173,0.222
		c0.42,0.19,1.038,0.4,1.796,0.414c0.809,0.015,1.471-0.198,1.913-0.393c0.035-0.015,0.067-0.035,0.099-0.06
		c0.071-0.058,0.131-0.124,0.122-0.183c-0.001-0.006-0.003-0.012-0.005-0.017C304.96,103.492,304.73,102.776,304.502,101.964"/>
	<path clip-path="url(#SVGID_8_)" fill="#75C8BA" d="M304.722,100.226c0,0.879-0.713,1.591-1.591,1.591
		c-0.879,0-1.592-0.712-1.592-1.591s0.713-1.591,1.592-1.591C304.009,98.635,304.722,99.347,304.722,100.226"/>
	<path clip-path="url(#SVGID_8_)" fill="#E9257D" d="M387.313,197.293h-13.499c-4.695,0-8.502-3.807-8.502-8.502
		c0-4.696,3.807-8.502,8.502-8.502h13.499c4.695,0,8.502,3.806,8.502,8.502C395.815,193.486,392.008,197.293,387.313,197.293"/>
	<path clip-path="url(#SVGID_8_)" fill="#E9257D" d="M376.374,184.396L376.374,184.396c-1.429,0-2.587-1.158-2.587-2.586v-2.265
		c0-1.428,1.158-2.586,2.587-2.586c1.429,0,2.586,1.158,2.586,2.586v2.265C378.959,183.237,377.802,184.396,376.374,184.396"/>
	<path clip-path="url(#SVGID_8_)" fill="#E9257D" d="M384.848,184.396L384.848,184.396c-1.429,0-2.586-1.158-2.586-2.586v-2.265
		c0-1.428,1.157-2.586,2.586-2.586c1.429,0,2.587,1.158,2.587,2.586v2.265C387.435,183.237,386.277,184.396,384.848,184.396"/>
	<path clip-path="url(#SVGID_8_)" fill="#E9257D" d="M367.898,184.396L367.898,184.396c-1.428,0-2.586-1.158-2.586-2.586v-2.265
		c0-1.428,1.158-2.586,2.586-2.586c1.429,0,2.587,1.158,2.587,2.586v2.265C370.485,183.237,369.327,184.396,367.898,184.396"/>
	<path clip-path="url(#SVGID_8_)" fill="#E9257D" d="M393.228,184.396L393.228,184.396c-1.429,0-2.587-1.158-2.587-2.586v-2.265
		c0-1.428,1.158-2.586,2.587-2.586s2.587,1.158,2.587,2.586v2.265C395.815,183.237,394.657,184.396,393.228,184.396"/>
	<path clip-path="url(#SVGID_8_)" fill="#E9257D" d="M182.314,197.293h-13.499c-4.695,0-8.502-3.807-8.502-8.502
		c0-4.696,3.807-8.502,8.502-8.502h13.499c4.695,0,8.502,3.806,8.502,8.502C190.816,193.486,187.009,197.293,182.314,197.293"/>
	<path clip-path="url(#SVGID_8_)" fill="#E9257D" d="M171.375,184.396L171.375,184.396c-1.429,0-2.587-1.158-2.587-2.586v-2.265
		c0-1.428,1.158-2.586,2.587-2.586s2.587,1.158,2.587,2.586v2.265C173.961,183.237,172.804,184.396,171.375,184.396"/>
	<path clip-path="url(#SVGID_8_)" fill="#E9257D" d="M179.849,184.396L179.849,184.396c-1.428,0-2.586-1.158-2.586-2.586v-2.265
		c0-1.428,1.158-2.586,2.586-2.586c1.429,0,2.587,1.158,2.587,2.586v2.265C182.436,183.237,181.278,184.396,179.849,184.396"/>
	<path clip-path="url(#SVGID_8_)" fill="#E9257D" d="M162.899,184.396L162.899,184.396c-1.428,0-2.586-1.158-2.586-2.586v-2.265
		c0-1.428,1.158-2.586,2.586-2.586c1.429,0,2.587,1.158,2.587,2.586v2.265C165.486,183.237,164.328,184.396,162.899,184.396"/>
	<path clip-path="url(#SVGID_8_)" fill="#E9257D" d="M188.229,184.396L188.229,184.396c-1.429,0-2.586-1.158-2.586-2.586v-2.265
		c0-1.428,1.157-2.586,2.586-2.586s2.587,1.158,2.587,2.586v2.265C190.816,183.237,189.658,184.396,188.229,184.396"/>
	<path clip-path="url(#SVGID_8_)" fill="#1B4172" d="M217.92,129.769h-4.691c-0.089,0-0.162-0.072-0.162-0.161v-6.001
		c0-1.384,1.124-2.506,2.507-2.506c1.384,0,2.507,1.122,2.507,2.506v6.001C218.082,129.697,218.009,129.769,217.92,129.769"/>
	<path clip-path="url(#SVGID_8_)" fill="#1B4172" d="M249.635,150.86h-2.801c-0.379,0-0.686-0.308-0.686-0.687v-4.477
		c0-1.152,0.934-2.086,2.087-2.086c1.152,0,2.087,0.934,2.087,2.086v4.477C250.322,150.552,250.014,150.86,249.635,150.86"/>
	<path clip-path="url(#SVGID_8_)" fill="#1B4172" d="M249.635,165.587h-2.801c-0.379,0-0.686-0.307-0.686-0.686v-4.478
		c0-1.152,0.934-2.086,2.087-2.086c1.152,0,2.087,0.934,2.087,2.086v4.478C250.322,165.28,250.014,165.587,249.635,165.587"/>
	<path clip-path="url(#SVGID_8_)" fill="#E9257D" d="M342.038,159.8h-3.348c-1.043,0-1.888-0.845-1.888-1.888
		c0-1.043,0.845-1.888,1.888-1.888h3.348c1.043,0,1.888,0.845,1.888,1.888C343.926,158.955,343.081,159.8,342.038,159.8"/>
	<path clip-path="url(#SVGID_8_)" fill="#E9257D" d="M346.416,165.552h-1.905c-0.747,0-1.354-0.606-1.354-1.354
		c0-0.747,0.607-1.353,1.354-1.353h1.905c0.748,0,1.354,0.606,1.354,1.353C347.77,164.946,347.164,165.552,346.416,165.552"/>
	<path clip-path="url(#SVGID_8_)" fill="#E9257D" d="M222.367,185.509h-3.349c-1.043,0-1.887-0.845-1.887-1.888
		c0-1.042,0.844-1.887,1.887-1.887h3.349c1.042,0,1.888,0.845,1.888,1.887C224.255,184.664,223.409,185.509,222.367,185.509"/>
	<path clip-path="url(#SVGID_8_)" fill="#E9257D" d="M226.745,191.262h-1.905c-0.748,0-1.354-0.606-1.354-1.354
		c0-0.747,0.606-1.353,1.354-1.353h1.905c0.747,0,1.354,0.606,1.354,1.353C228.099,190.656,227.492,191.262,226.745,191.262"/>
	<path clip-path="url(#SVGID_8_)" fill="#E9257D" d="M207.339,161.057h-1.905c-0.748,0-1.354-0.606-1.354-1.354
		c0-0.747,0.606-1.353,1.354-1.353h1.905c0.748,0,1.354,0.606,1.354,1.353C208.693,160.451,208.087,161.057,207.339,161.057"/>
	<path clip-path="url(#SVGID_8_)" fill="#E9257D" d="M327.556,178.312h-1.906c-0.747,0-1.354-0.606-1.354-1.354
		c0-0.747,0.607-1.353,1.354-1.353h1.906c0.747,0,1.354,0.606,1.354,1.353C328.91,177.706,328.303,178.312,327.556,178.312"/>
	<path clip-path="url(#SVGID_8_)" fill="#E9257D" d="M342.572,200.713h-1.905c-0.747,0-1.354-0.606-1.354-1.354
		s0.607-1.354,1.354-1.354h1.905c0.748,0,1.354,0.606,1.354,1.354S343.32,200.713,342.572,200.713"/>
	<path clip-path="url(#SVGID_8_)" fill="#60A89E" d="M244.56,198.54h-1.834c-0.79,0-1.431-0.641-1.431-1.431
		c0-0.791,0.641-1.431,1.431-1.431h1.834c0.79,0,1.432,0.64,1.432,1.431C245.992,197.898,245.35,198.54,244.56,198.54"/>
	<path clip-path="url(#SVGID_8_)" fill="#60A89E" d="M253.586,173.561h-1.834c-0.79,0-1.431-0.641-1.431-1.431
		c0-0.791,0.641-1.431,1.431-1.431h1.834c0.79,0,1.431,0.64,1.431,1.431C255.018,172.919,254.376,173.561,253.586,173.561"/>
	<path clip-path="url(#SVGID_8_)" fill="#60A89E" d="M272.324,167.298h-1.834c-0.79,0-1.431-0.641-1.431-1.431
		c0-0.791,0.641-1.431,1.431-1.431h1.834c0.79,0,1.431,0.64,1.431,1.431C273.755,166.657,273.114,167.298,272.324,167.298"/>
	<path clip-path="url(#SVGID_8_)" fill="#60A89E" d="M308.482,199.741h-1.833c-0.791,0-1.432-0.641-1.432-1.431
		c0-0.791,0.641-1.431,1.432-1.431h1.833c0.791,0,1.432,0.64,1.432,1.431C309.914,199.1,309.273,199.741,308.482,199.741"/>
	<path clip-path="url(#SVGID_8_)" fill="#60A89E" d="M300.12,173.779h-1.833c-0.791,0-1.432-0.641-1.432-1.431
		c0-0.791,0.641-1.431,1.432-1.431h1.833c0.791,0,1.432,0.64,1.432,1.431C301.552,173.138,300.911,173.779,300.12,173.779"/>
	<path clip-path="url(#SVGID_8_)" fill="#E6BE12" d="M376.314,209.515h-1.905c-0.748,0-1.354-0.606-1.354-1.354
		s0.606-1.354,1.354-1.354h1.905c0.748,0,1.354,0.606,1.354,1.354S377.062,209.515,376.314,209.515"/>
	<path clip-path="url(#SVGID_8_)" fill="#E6BE12" d="M387.277,227.905h-2.775c-0.747,0-1.354-0.606-1.354-1.354
		c0-0.747,0.607-1.354,1.354-1.354h2.775c0.747,0,1.354,0.607,1.354,1.354C388.631,227.299,388.024,227.905,387.277,227.905"/>
	<path clip-path="url(#SVGID_8_)" fill="#E6BE12" d="M378.233,262.348h-3.824c-0.748,0-1.354-0.606-1.354-1.354
		c0-0.747,0.606-1.353,1.354-1.353h3.824c0.747,0,1.354,0.606,1.354,1.353C379.587,261.742,378.98,262.348,378.233,262.348"/>
	<path clip-path="url(#SVGID_8_)" fill="#E6BE12" d="M179.843,205.366h-1.906c-0.747,0-1.354-0.606-1.354-1.354
		c0-0.747,0.607-1.353,1.354-1.353h1.906c0.747,0,1.354,0.606,1.354,1.353C181.197,204.76,180.59,205.366,179.843,205.366"/>
	<path clip-path="url(#SVGID_8_)" fill="#E6BE12" d="M181.761,258.199h-3.824c-0.747,0-1.354-0.606-1.354-1.354
		c0-0.747,0.607-1.354,1.354-1.354h3.824c0.748,0,1.354,0.607,1.354,1.354C183.115,257.593,182.509,258.199,181.761,258.199"/>
	<path clip-path="url(#SVGID_8_)" fill="#E6BE12" d="M172.047,217.559h-1.906c-0.747,0-1.354-0.606-1.354-1.354
		c0-0.747,0.607-1.353,1.354-1.353h1.906c0.747,0,1.354,0.606,1.354,1.353C173.401,216.953,172.794,217.559,172.047,217.559"/>
	<path clip-path="url(#SVGID_8_)" fill="#E6BE12" d="M173.965,270.392h-3.824c-0.747,0-1.354-0.606-1.354-1.354
		c0-0.747,0.607-1.353,1.354-1.353h3.824c0.748,0,1.354,0.606,1.354,1.353C175.319,269.786,174.713,270.392,173.965,270.392"/>
	<path clip-path="url(#SVGID_8_)" fill="#FFFFFF" d="M416.842,280.282H297.569c-4.284,0-7.756-3.472-7.756-7.756
		c0-4.283,3.472-7.755,7.756-7.755h119.273c4.283,0,7.756,3.472,7.756,7.755C424.598,276.81,421.125,280.282,416.842,280.282"/>
	<path clip-path="url(#SVGID_8_)" fill="#FFFFFF" d="M432.863,267.129h-75.598c-4.128,0-7.474-3.346-7.474-7.474
		s3.346-7.474,7.474-7.474h75.598c4.128,0,7.474,3.346,7.474,7.474S436.991,267.129,432.863,267.129"/>
	<path clip-path="url(#SVGID_8_)" fill="#FFFFFF" d="M246.543,279.077h-78.463c-5.339,0-9.667-4.328-9.667-9.667
		c0-5.34,4.328-9.668,9.667-9.668h78.463c5.339,0,9.667,4.328,9.667,9.668C256.21,274.749,251.882,279.077,246.543,279.077"/>
	<path clip-path="url(#SVGID_8_)" fill="#FFFFFF" d="M304.998,286.111h-67.655c-4.29,0-7.768-3.478-7.768-7.768
		s3.478-7.768,7.768-7.768h67.655c4.29,0,7.769,3.478,7.769,7.768S309.288,286.111,304.998,286.111"/>
	<path clip-path="url(#SVGID_8_)" fill="#FFFFFF" d="M187.545,269.038h-64.627c-4.609,0-8.346-3.737-8.346-8.346
		c0-4.61,3.737-8.346,8.346-8.346h64.627c4.609,0,8.346,3.736,8.346,8.346C195.892,265.301,192.154,269.038,187.545,269.038"/>
	<path clip-path="url(#SVGID_8_)" fill="#FFFFFF" d="M170.715,254.54h-25.35c-5.045,0-9.133-4.09-9.133-9.135
		c0-5.045,4.088-9.134,9.133-9.134h25.35c5.045,0,9.134,4.089,9.134,9.134C179.849,250.45,175.76,254.54,170.715,254.54"/>
	<path clip-path="url(#SVGID_8_)" fill="#FFFFFF" d="M407.347,256.918h-27.416c-5.444,0-9.857-4.413-9.857-9.857
		s4.413-9.858,9.857-9.858h27.416c5.443,0,9.857,4.414,9.857,9.858S412.79,256.918,407.347,256.918"/>
	<path clip-path="url(#SVGID_8_)" fill="#FFFFFF" d="M334.11,267.685h-19.972c-3.63,0-6.572-2.942-6.572-6.572
		c0-3.63,2.942-6.573,6.572-6.573h19.972c3.63,0,6.572,2.943,6.572,6.573C340.682,264.743,337.74,267.685,334.11,267.685"/>
	<path clip-path="url(#SVGID_8_)" fill="#FFFFFF" d="M235.742,263.503h-21.958c-3.588,0-6.496-2.909-6.496-6.496
		c0-3.588,2.908-6.496,6.496-6.496h21.958c3.588,0,6.496,2.908,6.496,6.496C242.238,260.594,239.33,263.503,235.742,263.503"/>
</g>
<g>
	<defs>
		<rect id="SVGID_9_" x="-268" y="-237" width="1920" height="1080"/>
	</defs>
	<clipPath id="SVGID_10_">
		<use xlink:href="#SVGID_9_"  overflow="visible"/>
	</clipPath>
</g>
<g>
	<defs>
		<path id="SVGID_11_" d="M161.205,159.884c-0.275,1.526-0.409,3.072-0.409,4.621v206.06l93.01-34.697
			c10.292-3.838,17.115-13.668,17.115-24.652V158.563V93.281V57.194C270.921,57.194,176.147,71.504,161.205,159.884"/>
	</defs>
	<clipPath id="SVGID_12_">
		<use xlink:href="#SVGID_11_"  overflow="visible"/>
	</clipPath>
</g>
<g>
	<defs>
		<path id="SVGID_13_" d="M348.558,93.281v65.282v152.652c0,10.984,6.824,20.814,17.116,24.652l93.01,34.697v-206.06
			c0-1.549-0.134-3.095-0.408-4.621c-14.944-88.38-109.718-102.69-109.718-102.69V93.281z"/>
	</defs>
	<clipPath id="SVGID_14_">
		<use xlink:href="#SVGID_13_"  overflow="visible"/>
	</clipPath>
</g>
<g>
	<defs>
		<rect id="SVGID_15_" x="-268" y="-237" width="1920" height="1080"/>
	</defs>
	<clipPath id="SVGID_16_">
		<use xlink:href="#SVGID_15_"  overflow="visible"/>
	</clipPath>
</g>
<g>
	<defs>
		<rect id="SVGID_17_" x="-268" y="-237" width="1920" height="1080"/>
	</defs>
	<clipPath id="SVGID_18_">
		<use xlink:href="#SVGID_17_"  overflow="visible"/>
	</clipPath>
</g>
</svg>
