<?xml version="1.0" encoding="utf-8"?>
<!-- Generator: Adobe Illustrator 16.0.0, SVG Export Plug-In . SVG Version: 6.00 Build 0)  -->
<!DOCTYPE svg PUBLIC "-//W3C//DTD SVG 1.1//EN" "http://www.w3.org/Graphics/SVG/1.1/DTD/svg11.dtd">
<svg version="1.1" id="Layer_1" xmlns="http://www.w3.org/2000/svg" xmlns:xlink="http://www.w3.org/1999/xlink" x="0px" y="0px"
	 width="774px" height="600px" viewBox="0 0 774 600" enable-background="new 0 0 774 600" xml:space="preserve">
<g>
	<defs>
		<rect id="SVGID_1_" x="-902" y="-237" width="1920" height="1080"/>
	</defs>
	<clipPath id="SVGID_2_">
		<use xlink:href="#SVGID_1_"  overflow="visible"/>
	</clipPath>
</g>
<g>
	<defs>
		<rect id="SVGID_3_" x="-902" y="-237" width="1920" height="1080"/>
	</defs>
	<clipPath id="SVGID_4_">
		<use xlink:href="#SVGID_3_"  overflow="visible"/>
	</clipPath>
	<path clip-path="url(#SVGID_4_)" fill="#FBD10F" d="M69.254,230.463l-0.509-10.452c-0.112-2.3-2.283-3.86-4.409-3.166l-9.861,3.214
		c-2.528,0.824-3.595,3.934-2.127,6.2l6.353,9.807c1.849,2.855,5.76,3.244,8.14,0.81C68.491,235.188,69.37,232.853,69.254,230.463"
		/>
	<path clip-path="url(#SVGID_4_)" fill="#FBD10F" d="M54.979,243.884l-6.296-0.331c-1.386-0.073-2.479,1.225-2.22,2.636l1.204,6.545
		c0.308,1.678,2.092,2.56,3.557,1.758l7.063-3.864c1.468-0.803,1.88-2.786,0.86-4.125l-0.505-0.663
		C57.753,244.672,56.418,243.96,54.979,243.884"/>
	<path clip-path="url(#SVGID_4_)" fill="#FBD10F" d="M704.169,323.358l0.509,10.452c0.111,2.3,2.282,3.859,4.408,3.166l9.861-3.214
		c2.527-0.824,3.595-3.934,2.127-6.2l-6.352-9.808c-1.849-2.854-5.76-3.243-8.141-0.81
		C704.931,318.634,704.052,320.969,704.169,323.358"/>
	<path clip-path="url(#SVGID_4_)" fill="#FBD10F" d="M718.443,309.938l6.296,0.331c1.386,0.072,2.478-1.226,2.219-2.637
		l-1.203-6.545c-0.309-1.677-2.093-2.559-3.557-1.758l-7.065,3.865c-1.467,0.803-1.88,2.785-0.858,4.125l0.505,0.662
		C715.669,309.149,717.003,309.861,718.443,309.938"/>
</g>
<g>
	<defs>
		<rect id="SVGID_5_" x="-902" y="-237" width="1920" height="1080"/>
	</defs>
	<clipPath id="SVGID_6_">
		<use xlink:href="#SVGID_5_"  overflow="visible"/>
	</clipPath>
</g>
<g>
	<defs>
		<rect id="SVGID_7_" x="-902" y="-237" width="1920" height="1080"/>
	</defs>
	<clipPath id="SVGID_8_">
		<use xlink:href="#SVGID_7_"  overflow="visible"/>
	</clipPath>
</g>
<g>
	<defs>
		<rect id="SVGID_9_" x="-902" y="-237" width="1920" height="1080"/>
	</defs>
	<clipPath id="SVGID_10_">
		<use xlink:href="#SVGID_9_"  overflow="visible"/>
	</clipPath>
</g>
<g>
	<defs>
		<rect id="SVGID_11_" x="-902" y="-237" width="1920" height="1080"/>
	</defs>
	<clipPath id="SVGID_12_">
		<use xlink:href="#SVGID_11_"  overflow="visible"/>
	</clipPath>
	<path clip-path="url(#SVGID_12_)" fill="#FFFFFF" d="M284.667,305.493c-7.88,0-14.226-1.625-19.038-4.827
		c-4.813-3.201-7.615-7.731-8.408-13.592c-0.053-0.935,0.211-1.674,0.846-2.216s1.48-0.837,2.485-0.837h8.197
		c1.745,0,2.854,0.886,3.331,2.66c1.109,5.367,5.342,8.027,12.691,7.978c3.543,0,6.504-0.74,8.938-2.217
		c2.433-1.477,3.648-3.398,3.648-5.811c0-2.167-0.951-3.989-2.908-5.516c-1.956-1.527-4.389-2.708-7.297-3.497
		c-2.909-0.787-6.082-1.822-9.52-3.053c-3.437-1.231-6.611-2.511-9.519-3.89c-2.908-1.379-5.341-3.448-7.298-6.206
		s-2.908-6.057-2.908-9.898c0-5.911,2.433-10.589,7.298-14.036c4.865-3.448,11.211-5.171,19.09-5.171
		c7.457,0,13.433,1.478,17.979,4.482c4.549,3.003,7.193,7.189,7.934,12.607c0.211,2.019-0.847,3.053-3.174,3.102h-7.984
		c-1.64,0-2.75-0.836-3.332-2.511c-1.111-4.629-4.971-6.944-11.581-6.993c-3.226,0-5.923,0.69-8.144,2.019
		c-2.223,1.33-3.332,3.201-3.332,5.565c0,2.512,1.375,4.53,4.072,6.057c2.696,1.527,5.976,2.808,9.836,3.842
		s7.721,2.216,11.528,3.595c3.808,1.379,7.086,3.595,9.783,6.648c2.697,3.054,4.072,6.846,4.072,11.426
		c0,6.107-2.434,10.982-7.352,14.676c-4.917,3.693-11.475,5.515-19.672,5.515L284.667,305.493z"/>
	<path clip-path="url(#SVGID_12_)" fill="#FFFFFF" d="M590.053,300.988v-61.56c0-2.019,1.058-3.004,3.226-3.004h7.298
		c2.168,0,3.227,0.985,3.227,3.004v61.56c0,2.019-1.059,3.004-3.227,3.004h-7.298C591.11,303.992,590.053,303.007,590.053,300.988"
		/>
	<path clip-path="url(#SVGID_12_)" fill="#FFFFFF" d="M624.694,303.992c-2.168,0-3.226-0.985-3.226-3.004v-61.56
		c0-2.019,1.058-3.004,3.226-3.004h12.164c1.956,0,3.225,0.788,3.807,2.413l16.394,34.178h0.951l16.236-34.178
		c0.581-1.625,1.798-2.413,3.702-2.413h11.687c2.168,0,3.279,0.985,3.332,3.004v61.56c0,2.019-1.111,3.004-3.279,3.004h-7.245
		c-2.168,0-3.278-0.985-3.331-3.004v-39.743l0.687-4.678h-1.11l-15.494,30.878c-0.477,1.674-1.691,2.511-3.648,2.511h-4.654
		c-1.956,0-3.174-0.837-3.702-2.511l-15.494-30.878h-1.058l0.635,4.678v39.743c0,2.019-1.058,3.004-3.227,3.004h-7.298H624.694z"/>
	<path clip-path="url(#SVGID_12_)" fill="#FFFFFF" d="M510.5,300.815c0.635,2.216-0.318,3.348-2.803,3.348h-8.778
		c-1.746,0-2.803-0.788-3.174-2.413l-3.596-11.721H466.29l-3.596,11.721c-0.423,1.625-1.48,2.413-3.121,2.413h-8.354
		c-2.485,0-3.438-1.132-2.856-3.348l20.678-61.61c0.37-1.723,1.586-2.61,3.649-2.61h13.537c2.01,0,3.173,0.887,3.543,2.61
		l20.678,61.61H510.5z M488.66,278.554l-8.991-29.154h-0.898l-8.884,29.154H488.66z"/>
	<path clip-path="url(#SVGID_12_)" fill="#FCD210" d="M667.059,423.909H92.151c-20.489,0-37.1-16.61-37.1-37.1
		c0-20.49,16.61-37.101,37.1-37.101h574.907c20.489,0,37.1,16.61,37.1,37.101C704.158,407.299,687.548,423.909,667.059,423.909"/>
	<path clip-path="url(#SVGID_12_)" fill="#FFFFFF" d="M100.188,305.493c-7.88,0-14.226-1.625-19.038-4.827
		c-4.813-3.201-7.614-7.731-8.408-13.592c-0.053-0.935,0.212-1.674,0.847-2.216s1.48-0.837,2.485-0.837h8.196
		c1.745,0,2.856,0.886,3.332,2.66c1.11,5.367,5.341,8.027,12.69,7.978c3.543,0,6.506-0.74,8.938-2.217s3.648-3.398,3.648-5.811
		c0-2.167-0.952-3.989-2.908-5.516c-1.957-1.527-4.39-2.708-7.298-3.497c-2.908-0.787-6.081-1.822-9.519-3.053
		c-3.438-1.231-6.61-2.511-9.52-3.89c-2.908-1.379-5.341-3.448-7.298-6.206c-1.956-2.758-2.908-6.057-2.908-9.898
		c0-5.911,2.433-10.589,7.298-14.036c4.865-3.448,11.211-5.171,19.091-5.171c7.456,0,13.432,1.478,17.98,4.482
		c4.548,3.003,7.191,7.189,7.932,12.607c0.212,2.019-0.846,3.053-3.173,3.102h-7.985c-1.639,0-2.75-0.836-3.331-2.511
		c-1.111-4.629-4.972-6.944-11.581-6.993c-3.227,0-5.924,0.69-8.145,2.019c-2.221,1.33-3.332,3.201-3.332,5.565
		c0,2.512,1.375,4.53,4.072,6.057c2.697,1.527,5.976,2.808,9.836,3.842c3.861,1.034,7.722,2.216,11.528,3.595
		c3.808,1.379,7.087,3.595,9.784,6.648c2.696,3.054,4.072,6.846,4.072,11.426c0,6.107-2.435,10.982-7.352,14.676
		c-4.918,3.693-11.476,5.515-19.672,5.515L100.188,305.493z"/>
	<path clip-path="url(#SVGID_12_)" fill="#FFFFFF" d="M141.075,301.159v-61.56c0-2.019,1.058-3.004,3.226-3.004h7.297
		c2.168,0,3.228,0.985,3.228,3.004v61.56c0,2.019-1.06,3.004-3.228,3.004h-7.297C142.133,304.163,141.075,303.178,141.075,301.159"
		/>
	<path clip-path="url(#SVGID_12_)" fill="#FFFFFF" d="M175.717,304.163c-2.168,0-3.227-0.985-3.227-3.004v-61.56
		c0-2.019,1.059-3.004,3.227-3.004h12.164c1.956,0,3.225,0.788,3.807,2.413l16.394,34.178h0.952l16.235-34.178
		c0.581-1.625,1.798-2.413,3.702-2.413h11.686c2.168,0,3.28,0.985,3.332,3.004v61.56c0,2.019-1.11,3.004-3.278,3.004h-7.245
		c-2.168,0-3.278-0.985-3.331-3.004v-39.743l0.687-4.678h-1.11l-15.494,30.878c-0.478,1.674-1.692,2.511-3.648,2.511h-4.654
		c-1.956,0-3.173-0.837-3.702-2.511l-15.494-30.878h-1.059l0.636,4.678v39.743c0,2.019-1.058,3.004-3.227,3.004h-7.298H175.717z"/>
	<path clip-path="url(#SVGID_12_)" fill="#FFFFFF" d="M381.927,300.815c0.634,2.216-0.317,3.348-2.803,3.348h-8.778
		c-1.746,0-2.804-0.788-3.174-2.413l-3.596-11.721h-25.859l-3.596,11.721c-0.424,1.625-1.481,2.413-3.121,2.413h-8.354
		c-2.485,0-3.438-1.132-2.856-3.348l20.678-61.61c0.37-1.723,1.586-2.61,3.649-2.61h13.536c2.011,0,3.174,0.887,3.544,2.61
		l20.678,61.61H381.927z M360.086,278.554l-8.99-29.154h-0.898l-8.885,29.154H360.086z"/>
	<path clip-path="url(#SVGID_12_)" fill="#FFFFFF" d="M438.625,295.397v5.762c0,2.019-1.059,3.004-3.227,3.004h-37.387
		c-2.168,0-3.227-0.985-3.227-3.004v-61.56c0-2.019,1.059-3.004,3.227-3.004h7.298c2.168,0,3.226,0.985,3.226,3.004v52.745h26.863
		C437.566,292.344,438.625,293.378,438.625,295.397"/>
	<path clip-path="url(#SVGID_12_)" fill="#FFFFFF" d="M563.128,270.084c4.337,0.739,7.773,2.561,10.312,5.417
		c2.538,2.857,3.807,6.501,3.807,10.884c0,5.319-1.797,9.604-5.393,12.854c-3.597,3.251-8.303,4.876-14.173,4.876h-31.2
		c-2.169,0-3.227-0.985-3.227-3.005v-61.559c0-2.02,1.058-3.005,3.227-3.005h29.032c5.87,0,10.576,1.576,14.172,4.777
		c3.597,3.201,5.394,7.437,5.394,12.707c0,4.038-1.057,7.436-3.225,10.193c-2.169,2.758-5.025,4.482-8.62,5.123v0.738H563.128z
		 M537.004,247.775v17.04h14.966c2.802,0,5.076-0.739,6.822-2.266c1.743-1.526,2.591-3.595,2.591-6.205
		c0-2.561-0.848-4.629-2.591-6.206c-1.746-1.575-4.021-2.363-6.822-2.363H537.004z M554.138,293.034
		c2.803,0,5.077-0.837,6.821-2.512c1.746-1.675,2.592-3.841,2.592-6.55s-0.846-4.876-2.592-6.501
		c-1.744-1.625-4.019-2.462-6.821-2.462h-17.134v17.976h17.134V293.034z"/>
</g>
<g>
	<path fill="#1A4172" d="M114.087,370.445v2.69c0,0.942-0.494,1.402-1.506,1.402h-7.728v24.651c0,0.942-0.519,1.402-1.531,1.402
		h-3.333c-1.012,0-1.506-0.46-1.506-1.402v-24.651h-7.752c-1.013,0-1.506-0.46-1.506-1.402v-2.69c0-0.942,0.493-1.402,1.506-1.402
		h21.85C113.593,369.043,114.087,369.503,114.087,370.445z"/>
	<path fill="#1A4172" d="M132.758,376.516c2.321,0,4.222,0.645,5.679,1.955s2.197,3.035,2.197,5.174v15.729
		c0,0.851-0.469,1.265-1.383,1.265h-3.333c-0.913,0-1.357-0.414-1.357-1.265V385.76c0-1.195-0.396-2.161-1.21-2.874
		s-1.876-1.081-3.209-1.081c-1.407,0-2.568,0.368-3.457,1.127s-1.333,1.679-1.333,2.782v13.659c0,0.851-0.444,1.265-1.357,1.265
		h-3.333c-0.914,0-1.383-0.414-1.407-1.265v-30.422c0-0.852,0.469-1.288,1.382-1.312h3.333c0.914,0,1.358,0.438,1.358,1.288v11.636
		h0.395c0.519-1.196,1.407-2.185,2.667-2.943c1.259-0.759,2.74-1.15,4.419-1.15L132.758,376.516z"/>
	<path fill="#1A4172" d="M152.072,390.819v1.425c0,1.266,0.444,2.277,1.333,3.036s2.099,1.126,3.604,1.126
		c2.296,0,3.753-0.666,4.37-2.023c0.32-0.667,0.79-0.988,1.407-0.988h3.506c0.444,0,0.79,0.092,1.012,0.275
		c0.223,0.185,0.321,0.46,0.297,0.852c-0.321,2.069-1.433,3.702-3.333,4.875c-1.901,1.172-4.321,1.771-7.259,1.771
		c-3.333,0-5.999-0.852-7.999-2.553c-2-1.702-3.013-3.955-3.013-6.737v-6.117c0-2.782,0.988-5.035,2.987-6.737
		c2-1.701,4.642-2.553,7.926-2.553c3.234,0,5.851,0.852,7.826,2.553c1.975,1.702,2.963,3.955,2.963,6.737v3.817
		c0,0.851-0.444,1.265-1.358,1.265L152.072,390.819z M156.911,381.23c-1.457,0-2.617,0.367-3.506,1.104
		c-0.889,0.735-1.333,1.725-1.333,2.966v1.196h9.505V385.3c0-1.265-0.42-2.253-1.284-2.989c-0.864-0.735-2-1.104-3.407-1.104
		L156.911,381.23z"/>
	<path fill="#1A4172" d="M193.285,400.592c-0.938,0-1.481-0.414-1.654-1.265l-7.9-28.744c-0.099-0.482-0.024-0.851,0.223-1.126
		c0.247-0.276,0.642-0.414,1.16-0.414h4c0.938,0,1.456,0.437,1.58,1.311l5.357,22.098h0.395l6.173-22.144
		c0.197-0.851,0.74-1.265,1.629-1.265h3.432c0.938,0,1.481,0.414,1.605,1.265l6.221,22.144h0.47l5.259-22.098
		c0.099-0.874,0.642-1.311,1.604-1.311h3.753c1.11,0,1.555,0.506,1.309,1.54l-7.827,28.744c-0.197,0.851-0.765,1.265-1.679,1.265
		h-4.962c-0.914,0-1.457-0.414-1.654-1.265l-5.728-19.982h-0.396l-5.777,19.982c-0.123,0.851-0.666,1.265-1.604,1.265h-4.962
		H193.285z"/>
	<path fill="#1A4172" d="M240.509,401.167c-3.259,0-5.875-0.852-7.875-2.553c-2-1.702-2.987-3.955-2.987-6.737v-6.117
		c0-2.782,0.987-5.035,2.987-6.737c2-1.701,4.642-2.553,7.9-2.553s5.876,0.852,7.851,2.553c1.976,1.702,2.963,3.955,2.963,6.737
		v6.117c0,2.782-0.987,5.035-2.963,6.737c-1.975,1.701-4.592,2.553-7.851,2.553H240.509z M243.99,394.82
		c0.864-0.736,1.284-1.725,1.284-2.943v-6.117c0-1.219-0.42-2.207-1.284-2.943c-0.864-0.735-2.024-1.104-3.481-1.104
		c-1.456,0-2.616,0.368-3.505,1.104c-0.89,0.736-1.334,1.725-1.334,2.943v6.117c0,1.219,0.444,2.207,1.334,2.943
		c0.889,0.735,2.049,1.104,3.505,1.104C241.966,395.924,243.126,395.556,243.99,394.82z"/>
	<path fill="#1A4172" d="M269.919,376.539c0.938-0.092,1.407,0.345,1.433,1.288v3.242c0,0.851-0.47,1.265-1.383,1.265
		c-2.223,0-3.901,0.506-5.037,1.518s-1.703,2.392-1.703,4.162v11.313c0,0.851-0.444,1.265-1.357,1.265h-3.333
		c-0.914,0-1.383-0.414-1.407-1.265V378.31c0-0.851,0.469-1.265,1.382-1.265h3.333c0.914,0,1.358,0.414,1.358,1.265v2.828h0.395
		c0.938-2.966,3.037-4.507,6.32-4.622V376.539z"/>
	<path fill="#1A4172" d="M283.082,400.615c-2.197,0-3.95-0.575-5.259-1.725c-1.309-1.15-1.976-2.668-1.976-4.576v-25.387
		c0-0.851,0.444-1.288,1.358-1.311h3.333c0.913,0,1.382,0.437,1.407,1.287v23.915c0,0.782,0.246,1.403,0.74,1.862
		c0.494,0.46,1.186,0.69,2.049,0.69h0.568c0.567,0,0.864,0.275,0.864,0.851v3.104c0,0.851-0.47,1.265-1.383,1.265h-1.654
		L283.082,400.615z"/>
	<path fill="#1A4172" d="M310.205,367.663c0.914,0,1.358,0.437,1.358,1.288v30.422c0,0.851-0.444,1.265-1.358,1.265h-3.333
		c-0.913,0-1.383-0.414-1.407-1.265v-2.23h-0.395c-0.519,1.195-1.383,2.161-2.617,2.92s-2.691,1.127-4.395,1.127
		c-2.42,0-4.395-0.713-5.926-2.139c-1.53-1.426-2.296-3.288-2.296-5.564v-9.244c0-2.3,0.766-4.162,2.296-5.588
		c1.531-1.426,3.506-2.139,5.926-2.139c1.679,0,3.135,0.368,4.395,1.127c1.259,0.759,2.147,1.725,2.666,2.921h0.396v-11.636
		c0-0.851,0.469-1.288,1.382-1.311h3.333L310.205,367.663z M300.626,395.924c1.407,0,2.567-0.391,3.481-1.173
		c0.913-0.782,1.357-1.747,1.357-2.874v-6.025c0-1.126-0.444-2.092-1.357-2.874c-0.914-0.782-2.074-1.173-3.481-1.173
		s-2.543,0.368-3.407,1.127s-1.283,1.748-1.283,2.967v5.933c0,1.219,0.444,2.207,1.309,2.966c0.863,0.759,1.999,1.127,3.406,1.127
		H300.626z"/>
	<path fill="#1A4172" d="M349.987,369.02c1.013,0,1.531,0.46,1.556,1.402v2.69c0,0.943-0.519,1.403-1.53,1.403h-13.036v8.347h10.715
		c1.013,0,1.531,0.46,1.556,1.403v2.645c0,0.942-0.519,1.426-1.531,1.448h-10.715v10.831c0,0.942-0.493,1.402-1.506,1.402h-3.407
		c-1.012,0-1.506-0.46-1.506-1.402v-28.744c0-0.942,0.494-1.402,1.506-1.402h17.949L349.987,369.02z"/>
	<path fill="#1A4172" d="M375.876,377.021c0.913,0,1.383,0.414,1.407,1.266v21.017c0,0.852-0.47,1.265-1.383,1.265h-3.333
		c-0.913,0-1.357-0.413-1.357-1.265v-2.115h-0.346c-0.519,1.196-1.358,2.161-2.543,2.874c-1.186,0.713-2.617,1.081-4.271,1.081
		c-2.296,0-4.147-0.644-5.555-1.932c-1.407-1.287-2.099-2.989-2.099-5.104v-15.82c0-0.852,0.444-1.266,1.357-1.266h3.333
		c0.914,0,1.383,0.414,1.407,1.266v13.704c0,1.173,0.396,2.116,1.161,2.829c0.765,0.713,1.777,1.058,3.036,1.058
		c1.358,0,2.444-0.368,3.284-1.104c0.839-0.736,1.259-1.633,1.259-2.714V378.31c0-0.851,0.444-1.265,1.357-1.265h3.333
		L375.876,377.021z"/>
	<path fill="#1A4172" d="M390.992,400.615c-2.197,0-3.95-0.575-5.259-1.725c-1.309-1.15-1.976-2.668-1.976-4.576v-25.387
		c0-0.851,0.444-1.288,1.358-1.311h3.333c0.913,0,1.382,0.437,1.407,1.287v23.915c0,0.782,0.246,1.403,0.74,1.862
		c0.494,0.46,1.186,0.69,2.049,0.69h0.568c0.567,0,0.864,0.275,0.864,0.851v3.104c0,0.851-0.47,1.265-1.383,1.265h-1.654
		L390.992,400.615z"/>
	<path fill="#1A4172" d="M405.7,400.615c-2.197,0-3.95-0.575-5.259-1.725c-1.309-1.15-1.976-2.668-1.976-4.576v-25.387
		c0-0.851,0.444-1.288,1.358-1.311h3.333c0.913,0,1.382,0.437,1.407,1.287v23.915c0,0.782,0.246,1.403,0.74,1.862
		c0.494,0.46,1.186,0.69,2.049,0.69h0.568c0.567,0,0.864,0.275,0.864,0.851v3.104c0,0.851-0.47,1.265-1.383,1.265h-1.654
		L405.7,400.615z"/>
	<path fill="#1A4172" d="M435.208,401.167c-3.259,0-5.875-0.852-7.875-2.553c-2-1.702-2.987-3.955-2.987-6.737v-6.117
		c0-2.782,0.987-5.035,2.987-6.737c2-1.701,4.642-2.553,7.9-2.553s5.876,0.852,7.851,2.553c1.976,1.702,2.963,3.955,2.963,6.737
		v6.117c0,2.782-0.987,5.035-2.963,6.737c-1.975,1.701-4.592,2.553-7.851,2.553H435.208z M438.689,394.82
		c0.864-0.736,1.284-1.725,1.284-2.943v-6.117c0-1.219-0.42-2.207-1.284-2.943c-0.864-0.735-2.024-1.104-3.481-1.104
		c-1.456,0-2.616,0.368-3.505,1.104c-0.89,0.736-1.334,1.725-1.334,2.943v6.117c0,1.219,0.444,2.207,1.334,2.943
		c0.889,0.735,2.049,1.104,3.505,1.104C436.665,395.924,437.825,395.556,438.689,394.82z"/>
	<path fill="#1A4172" d="M463.021,372.308c-0.914,0-1.63,0.23-2.148,0.713c-0.519,0.483-0.79,1.15-0.79,2.001v2.023h4.197
		c0.913,0,1.357,0.414,1.357,1.265v2.507c0,0.851-0.444,1.265-1.357,1.265h-4.197v17.246c0,0.851-0.469,1.265-1.383,1.265h-3.333
		c-0.913,0-1.357-0.414-1.357-1.265v-17.246h-2.987c-0.913,0-1.358-0.414-1.358-1.265v-2.507c0-0.851,0.445-1.265,1.358-1.265h2.987
		v-2.967c0-1.954,0.667-3.518,2.024-4.69c1.358-1.173,3.136-1.771,5.357-1.771h2.889c0.913,0,1.357,0.437,1.357,1.287v2.162
		c0,0.851-0.444,1.265-1.357,1.265h-1.259V372.308z"/>
	<path fill="#1A4172" d="M489.247,374.47v7.45h11.629c1.012,0,1.53,0.46,1.555,1.402v2.645c0,0.943-0.519,1.426-1.53,1.449h-11.629
		v7.703h13.604c0.963,0,1.457,0.46,1.457,1.38v2.736c0,0.896-0.494,1.356-1.457,1.356H484.31c-0.963,0-1.457-0.46-1.457-1.356
		v-28.836c0-0.896,0.494-1.356,1.457-1.356h18.565c0.963,0,1.457,0.46,1.457,1.356v2.736c0,0.896-0.494,1.356-1.457,1.356
		L489.247,374.47z"/>
	<path fill="#1A4172" d="M529.596,377.021c0.913,0,1.383,0.414,1.407,1.266v21.017c0,0.852-0.47,1.265-1.383,1.265h-3.333
		c-0.913,0-1.357-0.413-1.357-1.265v-2.115h-0.346c-0.519,1.196-1.358,2.161-2.543,2.874c-1.186,0.713-2.617,1.081-4.271,1.081
		c-2.296,0-4.147-0.644-5.555-1.932c-1.407-1.287-2.099-2.989-2.099-5.104v-15.82c0-0.852,0.444-1.266,1.357-1.266h3.333
		c0.914,0,1.383,0.414,1.407,1.266v13.704c0,1.173,0.396,2.116,1.161,2.829c0.765,0.713,1.777,1.058,3.036,1.058
		c1.358,0,2.444-0.368,3.284-1.104c0.839-0.736,1.259-1.633,1.259-2.714V378.31c0-0.851,0.444-1.265,1.357-1.265h3.333
		L529.596,377.021z"/>
	<path fill="#1A4172" d="M551.304,376.516c2.419,0,4.395,0.713,5.925,2.139c1.531,1.426,2.296,3.288,2.296,5.565v9.243
		c0,2.3-0.765,4.162-2.296,5.588c-1.53,1.426-3.506,2.139-5.925,2.139c-1.679,0-3.136-0.391-4.395-1.149
		c-1.26-0.759-2.148-1.748-2.667-2.943h-0.395v10.692c0,0.851-0.444,1.288-1.358,1.311h-3.333c-0.913,0-1.382-0.437-1.407-1.287
		v-29.479c0-0.852,0.47-1.265,1.383-1.265h3.333c0.913,0,1.357,0.413,1.357,1.265v2.23h0.396c0.519-1.196,1.407-2.185,2.666-2.943
		c1.26-0.759,2.716-1.15,4.395-1.15L551.304,376.516z M553.402,385.898c0-1.219-0.42-2.208-1.284-2.967s-2-1.127-3.407-1.127
		s-2.567,0.391-3.481,1.173c-0.913,0.782-1.357,1.748-1.357,2.874v6.025c0,1.127,0.469,2.092,1.383,2.874
		c0.913,0.782,2.073,1.173,3.48,1.173s2.543-0.368,3.407-1.127s1.284-1.747,1.284-2.966L553.402,385.898z"/>
	<path fill="#1A4172" d="M578.887,376.516c2.321,0,4.222,0.645,5.679,1.955s2.197,3.035,2.197,5.174v15.729
		c0,0.851-0.469,1.265-1.383,1.265h-3.333c-0.913,0-1.357-0.414-1.357-1.265V385.76c0-1.195-0.396-2.161-1.21-2.874
		s-1.876-1.081-3.209-1.081c-1.407,0-2.568,0.368-3.457,1.127s-1.333,1.679-1.333,2.782v13.659c0,0.851-0.444,1.265-1.357,1.265
		h-3.333c-0.914,0-1.383-0.414-1.407-1.265v-30.422c0-0.852,0.469-1.288,1.382-1.312h3.333c0.914,0,1.358,0.438,1.358,1.288v11.636
		h0.395c0.519-1.196,1.407-2.185,2.667-2.943c1.259-0.759,2.74-1.15,4.419-1.15L578.887,376.516z"/>
	<path fill="#1A4172" d="M603.015,401.167c-3.259,0-5.875-0.852-7.875-2.553c-2-1.702-2.987-3.955-2.987-6.737v-6.117
		c0-2.782,0.987-5.035,2.987-6.737c2-1.701,4.642-2.553,7.9-2.553s5.876,0.852,7.851,2.553c1.976,1.702,2.963,3.955,2.963,6.737
		v6.117c0,2.782-0.987,5.035-2.963,6.737c-1.975,1.701-4.592,2.553-7.851,2.553H603.015z M606.496,394.82
		c0.864-0.736,1.284-1.725,1.284-2.943v-6.117c0-1.219-0.42-2.207-1.284-2.943c-0.864-0.735-2.024-1.104-3.481-1.104
		c-1.456,0-2.616,0.368-3.505,1.104c-0.89,0.736-1.334,1.725-1.334,2.943v6.117c0,1.219,0.444,2.207,1.334,2.943
		c0.889,0.735,2.049,1.104,3.505,1.104C604.472,395.924,605.632,395.556,606.496,394.82z"/>
	<path fill="#1A4172" d="M622.723,373.596c-1.161,0-2.074-0.322-2.741-0.942c-0.666-0.621-0.987-1.449-0.987-2.461
		s0.346-1.816,1.013-2.414c0.666-0.599,1.58-0.897,2.716-0.897c1.11,0,1.999,0.299,2.666,0.897c0.667,0.598,1.013,1.402,1.013,2.414
		s-0.346,1.816-1.013,2.438s-1.556,0.92-2.666,0.92V373.596z M621.093,400.638c-0.913,0-1.383-0.414-1.407-1.265v-21.018
		c0-0.851,0.469-1.265,1.383-1.265h3.333c0.913,0,1.357,0.414,1.357,1.265v21.018c0,0.851-0.444,1.265-1.357,1.265h-3.333H621.093z"
		/>
	<path fill="#1A4172" d="M642.229,376.516c3.21,0,5.753,0.713,7.629,2.162c1.876,1.448,2.814,3.38,2.814,5.795v14.877
		c0,0.852-0.444,1.266-1.357,1.266h-3.087c-0.913,0-1.357-0.414-1.357-1.266v-1.931h-0.42c-0.543,1.172-1.432,2.092-2.666,2.759
		s-2.716,1.012-4.42,1.012c-2.543,0-4.567-0.644-6.098-1.908s-2.296-2.967-2.296-5.082c0-2.139,0.766-3.863,2.296-5.174
		s3.555-1.955,6.098-1.955h7.283v-2.115c0-1.127-0.395-2.023-1.209-2.69c-0.815-0.667-1.926-1.012-3.333-1.012
		c-2.296,0-3.654,0.736-4.099,2.23c-0.197,0.759-0.667,1.127-1.407,1.127h-3.283c-0.914,0-1.358-0.437-1.358-1.288
		c0-2.046,0.963-3.702,2.889-4.967s4.395-1.886,7.382-1.886V376.516z M645.192,395.763c0.963-0.575,1.456-1.356,1.456-2.322v-2.185
		h-6.271c-0.963,0-1.753,0.229-2.37,0.713c-0.617,0.482-0.913,1.104-0.913,1.886c0,0.851,0.395,1.518,1.185,2.023
		s1.852,0.759,3.21,0.759C642.995,396.637,644.229,396.338,645.192,395.763z"/>
</g>
<g>
	<defs>
		<rect id="SVGID_13_" x="-902" y="-237" width="1920" height="1080"/>
	</defs>
	<clipPath id="SVGID_14_">
		<use xlink:href="#SVGID_13_"  overflow="visible"/>
	</clipPath>
	
		<path clip-path="url(#SVGID_14_)" fill="none" stroke="#FCD210" stroke-width="10" stroke-linecap="round" stroke-linejoin="round" stroke-miterlimit="10" d="
		M727.756,411.285c0,20.49-16.61,37.101-37.102,37.101H115.749"/>
	<path clip-path="url(#SVGID_14_)" fill="#FCD210" d="M723.287,392.904c0,2.468,2.001,4.468,4.469,4.468s4.468-2,4.468-4.468
		s-2-4.469-4.468-4.469S723.287,390.437,723.287,392.904"/>
</g>
<g>
	<path fill="#FFFFFF" d="M344.127,166.872v2.147c0,0.783-0.38,1.186-1.141,1.208h-7.517v25.054c0,0.76-0.38,1.141-1.141,1.141
		h-2.527c-0.761,0-1.142-0.38-1.142-1.141v-25.054h-7.516c-0.783,0-1.186-0.403-1.186-1.208v-2.147c0-0.761,0.402-1.141,1.186-1.141
		h19.842C343.747,165.731,344.127,166.111,344.127,166.872z"/>
	<path fill="#FFFFFF" d="M360.699,173.001c2.169,0,3.914,0.649,5.257,1.946c1.342,1.297,2.013,2.998,2.013,5.1v15.346
		c0,0.693-0.357,1.051-1.051,1.051h-2.461c-0.693,0-1.052-0.358-1.074-1.051v-13.646c0-1.342-0.425-2.416-1.252-3.221
		c-0.828-0.805-1.946-1.208-3.355-1.208c-1.499,0-2.707,0.425-3.646,1.275c-0.939,0.85-1.409,1.879-1.409,3.109v13.69
		c0,0.693-0.358,1.051-1.052,1.051h-2.46c-0.694,0-1.052-0.358-1.052-1.051V165.44c0-0.693,0.357-1.052,1.052-1.074h2.46
		c0.693,0,1.052,0.358,1.052,1.074v11.632h0.291c0.47-1.23,1.297-2.214,2.505-2.975c1.208-0.76,2.595-1.141,4.184-1.141V173.001z"/>
	<path fill="#FFFFFF" d="M376.6,169.624c-0.872,0-1.565-0.269-2.08-0.783c-0.515-0.514-0.783-1.208-0.783-2.058
		c0-0.828,0.269-1.499,0.806-2.013c0.537-0.514,1.23-0.76,2.08-0.76c0.851,0,1.544,0.246,2.081,0.76
		c0.536,0.515,0.805,1.186,0.805,2.013c0,0.85-0.269,1.544-0.805,2.058c-0.537,0.515-1.23,0.783-2.081,0.783H376.6z
		 M374.318,195.371v-20.804c0-0.693,0.358-1.051,1.052-1.051h2.46c0.693,0,1.052,0.358,1.052,1.051v20.804
		c0,0.693-0.358,1.051-1.052,1.051h-2.46C374.677,196.422,374.318,196.064,374.318,195.371z"/>
	<path fill="#FFFFFF" d="M392.974,196.981c-2.595,0-4.697-0.559-6.309-1.7c-1.61-1.141-2.527-2.729-2.773-4.765
		c-0.067-0.336,0-0.604,0.179-0.783c0.18-0.179,0.447-0.269,0.828-0.269h2.662c0.515,0,0.872,0.313,1.073,0.962
		c0.492,1.723,1.924,2.573,4.295,2.55c1.32,0,2.349-0.246,3.109-0.738s1.141-1.163,1.141-2.013s-0.447-1.521-1.342-2.013
		s-1.991-0.873-3.266-1.163c-1.275-0.291-2.551-0.649-3.825-1.074c-1.275-0.425-2.371-1.141-3.267-2.147
		c-0.895-1.007-1.342-2.327-1.342-3.937c0-2.192,0.783-3.893,2.349-5.101c1.566-1.208,3.646-1.812,6.241-1.812
		c2.506,0,4.541,0.515,6.085,1.566c1.543,1.052,2.438,2.528,2.684,4.429c0.09,0.738-0.269,1.096-1.051,1.096h-2.416
		c-0.246,0-0.447-0.067-0.627-0.179c-0.179-0.112-0.29-0.202-0.335-0.269c-0.045-0.067-0.157-0.246-0.336-0.537
		c-0.738-1.409-2.013-2.103-3.848-2.103c-1.186,0-2.125,0.224-2.818,0.693s-1.028,1.096-1.028,1.879
		c0,0.828,0.447,1.477,1.342,1.946s1.991,0.85,3.266,1.119c1.275,0.268,2.551,0.604,3.825,1.006
		c1.275,0.403,2.371,1.119,3.266,2.147c0.896,1.029,1.343,2.349,1.343,3.982c0,2.259-0.806,4.026-2.438,5.301
		c-1.633,1.275-3.825,1.924-6.599,1.924H392.974z"/>
	<path fill="#FFFFFF" d="M419.789,169.624c-0.872,0-1.565-0.269-2.08-0.783c-0.515-0.514-0.783-1.208-0.783-2.058
		c0-0.828,0.269-1.499,0.806-2.013c0.537-0.514,1.23-0.76,2.08-0.76c0.851,0,1.544,0.246,2.081,0.76
		c0.536,0.515,0.805,1.186,0.805,2.013c0,0.85-0.269,1.544-0.805,2.058c-0.537,0.515-1.23,0.783-2.081,0.783H419.789z
		 M417.508,195.371v-20.804c0-0.693,0.358-1.051,1.052-1.051h2.46c0.693,0,1.052,0.358,1.052,1.051v20.804
		c0,0.693-0.358,1.051-1.052,1.051h-2.46C417.866,196.422,417.508,196.064,417.508,195.371z"/>
	<path fill="#FFFFFF" d="M436.163,196.981c-2.595,0-4.697-0.559-6.309-1.7c-1.61-1.141-2.527-2.729-2.773-4.765
		c-0.067-0.336,0-0.604,0.179-0.783c0.18-0.179,0.447-0.269,0.828-0.269h2.662c0.515,0,0.872,0.313,1.073,0.962
		c0.492,1.723,1.924,2.573,4.295,2.55c1.32,0,2.349-0.246,3.109-0.738s1.141-1.163,1.141-2.013s-0.447-1.521-1.342-2.013
		s-1.991-0.873-3.266-1.163c-1.275-0.291-2.551-0.649-3.825-1.074c-1.275-0.425-2.371-1.141-3.267-2.147
		c-0.895-1.007-1.342-2.327-1.342-3.937c0-2.192,0.783-3.893,2.349-5.101c1.566-1.208,3.646-1.812,6.241-1.812
		c2.506,0,4.541,0.515,6.085,1.566c1.543,1.052,2.438,2.528,2.684,4.429c0.09,0.738-0.269,1.096-1.051,1.096h-2.416
		c-0.246,0-0.447-0.067-0.627-0.179c-0.179-0.112-0.29-0.202-0.335-0.269c-0.045-0.067-0.157-0.246-0.336-0.537
		c-0.738-1.409-2.013-2.103-3.848-2.103c-1.186,0-2.125,0.224-2.818,0.693s-1.028,1.096-1.028,1.879
		c0,0.828,0.447,1.477,1.342,1.946s1.991,0.85,3.266,1.119c1.275,0.268,2.551,0.604,3.825,1.006
		c1.275,0.403,2.371,1.119,3.266,2.147c0.896,1.029,1.343,2.349,1.343,3.982c0,2.259-0.806,4.026-2.438,5.301
		c-1.633,1.275-3.825,1.924-6.599,1.924H436.163z"/>
</g>
<g>
	<defs>
		<rect id="SVGID_15_" x="-902" y="-237" width="1920" height="1080"/>
	</defs>
	<clipPath id="SVGID_16_">
		<use xlink:href="#SVGID_15_"  overflow="visible"/>
	</clipPath>
	<path clip-path="url(#SVGID_16_)" fill="#EB2A78" d="M274.29,182.568c0-3.464,2.808-6.273,6.272-6.273
		c3.464,0,6.272,2.809,6.272,6.273s-2.809,6.273-6.272,6.273C277.098,188.841,274.29,186.032,274.29,182.568"/>
	<path clip-path="url(#SVGID_16_)" fill="#FCD210" d="M251.458,182.568c0-3.464,2.809-6.273,6.272-6.273
		c3.465,0,6.273,2.809,6.273,6.273s-2.809,6.273-6.273,6.273C254.267,188.841,251.458,186.032,251.458,182.568"/>
	<path clip-path="url(#SVGID_16_)" fill="#75C8BA" d="M228.626,182.568c0-3.464,2.809-6.273,6.272-6.273
		c3.465,0,6.273,2.809,6.273,6.273s-2.809,6.273-6.273,6.273C231.435,188.841,228.626,186.032,228.626,182.568"/>
	<path clip-path="url(#SVGID_16_)" fill="#EB2A78" d="M274.29,182.568c0-3.464,2.808-6.273,6.272-6.273
		c3.464,0,6.272,2.809,6.272,6.273s-2.809,6.273-6.272,6.273C277.098,188.841,274.29,186.032,274.29,182.568"/>
	<path clip-path="url(#SVGID_16_)" fill="#FCD210" d="M251.458,182.568c0-3.464,2.809-6.273,6.272-6.273
		c3.465,0,6.273,2.809,6.273,6.273s-2.809,6.273-6.273,6.273C254.267,188.841,251.458,186.032,251.458,182.568"/>
	<path clip-path="url(#SVGID_16_)" fill="#75C8BA" d="M228.626,182.568c0-3.464,2.809-6.273,6.272-6.273
		c3.465,0,6.273,2.809,6.273,6.273s-2.809,6.273-6.273,6.273C231.435,188.841,228.626,186.032,228.626,182.568"/>
	<path clip-path="url(#SVGID_16_)" fill="#EB2A78" d="M274.29,182.568c0-3.464,2.808-6.273,6.272-6.273
		c3.464,0,6.272,2.809,6.272,6.273s-2.809,6.273-6.272,6.273C277.098,188.841,274.29,186.032,274.29,182.568"/>
	<path clip-path="url(#SVGID_16_)" fill="#FCD210" d="M251.458,182.568c0-3.464,2.809-6.273,6.272-6.273
		c3.465,0,6.273,2.809,6.273,6.273s-2.809,6.273-6.273,6.273C254.267,188.841,251.458,186.032,251.458,182.568"/>
	<path clip-path="url(#SVGID_16_)" fill="#75C8BA" d="M228.626,182.568c0-3.464,2.809-6.273,6.272-6.273
		c3.465,0,6.273,2.809,6.273,6.273s-2.809,6.273-6.273,6.273C231.435,188.841,228.626,186.032,228.626,182.568"/>
	<path clip-path="url(#SVGID_16_)" fill="#EB2A78" d="M491.199,182.883c0,3.464-2.809,6.272-6.272,6.272
		c-3.465,0-6.273-2.808-6.273-6.272s2.809-6.273,6.273-6.273C488.391,176.61,491.199,179.419,491.199,182.883"/>
	<path clip-path="url(#SVGID_16_)" fill="#FCD210" d="M514.031,182.883c0,3.464-2.809,6.272-6.273,6.272
		c-3.464,0-6.272-2.808-6.272-6.272s2.809-6.273,6.272-6.273C511.223,176.61,514.031,179.419,514.031,182.883"/>
	<path clip-path="url(#SVGID_16_)" fill="#75C8BA" d="M536.862,182.883c0,3.464-2.808,6.272-6.272,6.272
		c-3.464,0-6.272-2.808-6.272-6.272s2.809-6.273,6.272-6.273C534.055,176.61,536.862,179.419,536.862,182.883"/>
</g>
</svg>
